<?xml version="1.0" encoding="utf-8"?>
<!-- Generator: Adobe Illustrator 19.0.1, SVG Export Plug-In . SVG Version: 6.00 Build 0)  -->
<svg version="1.1" id="Слой_1" xmlns="http://www.w3.org/2000/svg" xmlns:xlink="http://www.w3.org/1999/xlink" x="0px" y="0px"
	 viewBox="-118.4 284.1 223.2 222.9" style="enable-background:new -118.4 284.1 223.2 222.9;" xml:space="preserve">
<g transform="translate(0.000000,300.000000) scale(0.100000,-0.100000)">
	<path d="M-802,146c-98-35-254-168-312-266c-52-86-71-153-70-250c3-263,162-636,391-920c76-94,271-284,383-374
		c315-252,656-406,899-406c217,0,424,125,514,311c47,96,57,159,29,185c-43,40-493,295-522,296c-43,1-70-21-162-134
		c-129-160-142-167-225-123c-76,42-262,183-410,312c-185,161-308,311-353,431c-39,103-31,119,120,243c137,112,160,152,123,222
		c-31,61-286,472-297,479C-711,164-761,161-802,146z"/>
</g>
</svg>
