<?xml version="1.0" encoding="utf-8"?>
<!-- Generator: Adobe Illustrator 19.0.1, SVG Export Plug-In . SVG Version: 6.00 Build 0)  -->
<svg version="1.1" id="Слой_1" xmlns="http://www.w3.org/2000/svg" xmlns:xlink="http://www.w3.org/1999/xlink" x="0px" y="0px"
	 viewBox="28.6 315.6 126 150" style="enable-background:new 28.6 315.6 126 150;" xml:space="preserve">
<style type="text/css">
	.st0{fill:#49B85C;}
	.st1{fill:#FFFFFF;}
</style>
<g>
	<path class="st0" d="M150.2,401.7c0.2-0.5,0.4-1,0.6-1.6c1.3-3.6,2.3-7.4,3-11.3c0.1-0.7,0.2-1.4,0.3-2.1c0.1-0.9,0.2-1.8,0.3-2.7
		c0.2-1.8,0.3-3.6,0.3-5.5c0-34.8-28.2-63-63-63c-34.8,0-63,28.2-63,63c0,1.8,0.1,3.7,0.3,5.5c0.1,0.9,0.2,1.8,0.3,2.7
		c0.1,0.7,0.2,1.4,0.3,2.1c0.6,3.9,1.6,7.7,3,11.3c0.2,0.5,0.4,1,0.6,1.6c0.3,0.7,0.5,1.3,0.8,2c15.1,36.7,57.8,61.9,57.8,61.9
		s42.7-25.1,57.8-61.9C149.7,403,149.9,402.4,150.2,401.7z"/>
	<g>
		<g>
			
				<ellipse transform="matrix(0.1901 -0.9818 0.9818 0.1901 -260.4172 393.7421)" class="st1" cx="108.4" cy="354.7" rx="15.9" ry="10.6"/>
			
				<ellipse transform="matrix(0.2776 -0.9607 0.9607 0.2776 -269.5458 396.694)" class="st1" cx="129" cy="377.6" rx="13.9" ry="9.3"/>
		</g>
		<g>
			
				<ellipse transform="matrix(0.1901 0.9818 -0.9818 0.1901 409.2714 214.1412)" class="st1" cx="74.8" cy="355.1" rx="15.9" ry="10.6"/>
			
				<ellipse transform="matrix(0.2776 0.9607 -0.9607 0.2776 402.3593 220.9288)" class="st1" cx="54.3" cy="378" rx="13.9" ry="9.3"/>
		</g>
	</g>
	<path class="st1" d="M120.9,409.6c0,0,5.9,25.3-14.9,13.2c-16.3-9.5-28.7,0-28.7,0c-21,11.8-14.9-13.2-14.9-13.2s5-27,29.2-27.4
		C91.6,382.2,111.7,380.3,120.9,409.6z"/>
</g>
</svg>
