<?xml version="1.0" standalone="no"?>
<!DOCTYPE svg PUBLIC "-//W3C//DTD SVG 1.1//EN" "http://www.w3.org/Graphics/SVG/1.1/DTD/svg11.dtd" >
<svg xmlns="http://www.w3.org/2000/svg">
<metadata></metadata>
<defs>
<font id="pf_dindisplay_problack" horiz-adv-x="1126" >
<font-face units-per-em="2048" ascent="1536" descent="-512" />
<missing-glyph horiz-adv-x="534" />
<glyph horiz-adv-x="0" />
<glyph unicode="&#xd;" horiz-adv-x="681" />
<glyph unicode=" "  horiz-adv-x="534" />
<glyph unicode="&#x09;" horiz-adv-x="534" />
<glyph unicode="&#xa0;" horiz-adv-x="534" />
<glyph unicode="!" horiz-adv-x="573" d="M156 442l-17 983h293l-14 -983h-262zM289 -14q-78 0 -131.5 54t-53.5 132q0 39 14.5 71.5t39 57.5t57.5 38t70 13t69.5 -13t58 -38t40 -57.5t14.5 -71.5q0 -76 -48 -131t-130 -55z" />
<glyph unicode="&#x22;" horiz-adv-x="753" d="M416 1425h241v-464h-241v464zM104 1425h242v-464h-242v464z" />
<glyph unicode="#" horiz-adv-x="1155" d="M879 629h174v-219h-205l-55 -410h-252l57 410h-139l-58 -410h-251l57 410h-162v219h195l24 170h-166v221h197l57 405h246l-55 -405h143l57 405h246l-55 -405h172v-221h-203zM487 629h144l24 170h-143z" />
<glyph unicode="$" d="M471 18q-119 10 -222.5 56.5t-209.5 144.5l172 230q98 -78 181 -117t175 -39q55 0 94 12t64 31.5t37 44.5t12 47q0 43 -36 70.5t-86 47t-105 31t-92 19.5q-53 12 -113.5 34.5t-112 66.5t-85 113t-33.5 171q0 160 98 268.5t262 141.5v192h199v-182q104 -10 196 -49 t203 -119l-168 -244q-88 72 -161.5 98.5t-149.5 26.5q-72 0 -121 -33.5t-49 -93.5q0 -41 39 -67.5t92 -45t107.5 -28.5t82.5 -17q51 -12 111.5 -38.5t112 -72.5t86 -116t34.5 -168q0 -86 -31.5 -157.5t-87 -124t-131 -86t-165.5 -46.5v-237h-199v235v0z" />
<glyph unicode="%" horiz-adv-x="1802" d="M1690 227q0 -61 -28 -105t-72 -73t-97 -42t-102 -13t-102.5 13t-97.5 42t-72.5 73t-28.5 105v383q0 59 28.5 104.5t72.5 75t97 45t103 15.5q49 0 102 -15.5t97 -45t72 -74.5t28 -105v-383zM1475 575q0 41 -26 61.5t-58 20.5q-33 0 -58.5 -20.5t-25.5 -61.5v-315 q0 -41 25.5 -59.5t58.5 -18.5t58.5 18.5t25.5 59.5v315zM711 795q0 -61 -28 -105.5t-72 -73t-97 -42t-102 -13.5t-102.5 13.5t-97.5 42t-72.5 72.5t-28.5 106v383q0 59 28.5 104t72.5 74.5t97 45t103 15.5q49 0 102 -15.5t97 -45t72 -74.5t28 -104v-383zM496 1143 q0 41 -26 61.5t-58 20.5q-33 0 -58.5 -20.5t-25.5 -61.5v-316q0 -41 25.5 -59t58.5 -18t58.5 18t25.5 59v316zM578 -35h-209l870 1495h211z" />
<glyph unicode="&#x26;" horiz-adv-x="1675" d="M1546 913q0 -176 -67.5 -348t-196.5 -309q66 -59 141.5 -105.5t161.5 -87.5l-115 -206q-45 14 -98 41.5t-105.5 61.5t-100.5 72t-83 74q-27 -25 -67.5 -48t-87.5 -41.5t-99.5 -29t-103.5 -10.5q-94 0 -177 29t-145.5 82t-98.5 131t-36 174q0 70 23.5 130.5t62.5 112.5 t90.5 95t104.5 76q-29 47 -48.5 99t-19.5 120q0 70 21.5 129t63.5 102t101.5 68t133.5 25q70 0 129 -22.5t103 -63.5t69.5 -96.5t25.5 -118.5q0 -59 -19 -109.5t-51 -90.5t-72 -73t-81 -59q51 -74 104.5 -147.5t112.5 -145.5q92 104 137.5 233t45.5 254q0 106 -35 202.5 t-99.5 168.5t-158.5 115t-213 43q-109 0 -195 -31t-146.5 -83t-93 -121.5t-32.5 -145.5q0 -57 13 -119.5t67 -146.5l-205 -129q-72 104 -97.5 200.5t-25.5 184.5q0 123 49 236.5t141.5 200.5t223.5 139t293 52q180 0 321 -60.5t237.5 -164.5t146.5 -243.5t50 -295.5z M879 1049q0 27 -21.5 47t-56.5 20q-29 0 -45.5 -23.5t-16.5 -58.5q0 -25 12.5 -52.5t30.5 -55.5q47 27 72 55.5t25 67.5zM928 276q-27 31 -59.5 73t-65.5 88t-61.5 90t-47.5 77q-72 -41 -125 -92t-53 -117q0 -92 52.5 -139t136.5 -47q102 -1 223 67z" />
<glyph unicode="'" horiz-adv-x="538" d="M150 1425h241v-464h-241v464z" />
<glyph unicode="(" horiz-adv-x="763" d="M551 -291q-86 94 -163 200.5t-134 223.5t-91 241t-34 251q0 131 33 253.5t89 237.5t131 219.5t161 196.5l176 -113q-145 -193 -213 -398.5t-68 -385.5q0 -197 73 -404.5t210 -392.5z" />
<glyph unicode=")" horiz-adv-x="763" d="M698 625q0 -127 -32.5 -251t-90 -241t-134 -223.5t-162.5 -200.5l-173 129q139 184 211 392t72 405q0 180 -66.5 386t-213.5 398l176 113q86 -92 161.5 -196.5t131 -219.5t88 -237.5t32.5 -253.5z" />
<glyph unicode="*" horiz-adv-x="950" d="M791 827l-187 -133l-121 211l-129 -211l-184 133l168 183l-234 53l66 209l227 -94l-26 243h231l-29 -243l226 94l65 -209l-237 -53z" />
<glyph unicode="+" d="M690 492v-381h-254v381h-397v237h397v375h254v-375h397v-237h-397z" />
<glyph unicode="," horiz-adv-x="645" d="M143 -201q55 41 90 95.5t43 99.5q-49 10 -86.5 53t-37.5 113q0 39 15 71.5t40.5 57t59.5 38t69 13.5q92 0 146.5 -63.5t54.5 -167.5q0 -66 -19.5 -130.5t-56.5 -124t-91.5 -110.5t-121.5 -88z" />
<glyph unicode="-" horiz-adv-x="901" d="M96 393v269h709v-269h-709z" />
<glyph unicode="." horiz-adv-x="661" d="M336 -14q-78 0 -131 54t-53 132q0 39 14 71.5t38.5 57.5t57.5 38t70 13t69.5 -13t58 -38t40 -57.5t14.5 -71.5q0 -76 -48 -131t-130 -55z" />
<glyph unicode="/" horiz-adv-x="753" d="M211 -86h-244l518 1571h246z" />
<glyph unicode="0" d="M1018 371q0 -100 -42 -173t-107.5 -119t-145.5 -67.5t-156 -21.5t-155.5 21.5t-146 67.5t-108.5 118.5t-42 173.5v669q0 100 42 173t108.5 120t146.5 69.5t155 22.5q76 0 156 -22.5t145.5 -69.5t107.5 -119.5t42 -173.5v-669zM715 983q0 82 -46 114.5t-102 32.5 q-55 0 -102 -32.5t-47 -114.5v-555q0 -82 47 -115.5t102 -33.5t101.5 33.5t46.5 115.5v555z" />
<glyph unicode="1" d="M475 0v1014l-117 -101l-170 217l316 281h272v-1411h-301z" />
<glyph unicode="2" d="M1028 1016q0 -72 -26.5 -134.5t-67.5 -114.5t-90 -97t-94 -82q-35 -29 -85.5 -65t-98.5 -75.5t-86 -85t-48 -92.5h588v-270h-901v197q0 88 24.5 162.5t64.5 138t93 117t109 96.5q55 43 109 79.5t97 73.5t69 74t26 78q0 49 -39 84t-125 35q-63 0 -132 -22.5t-128 -76.5 l-158 244q84 74 200.5 109.5t241.5 35.5q82 0 164 -19.5t146.5 -67.5t105.5 -126.5t41 -195.5z" />
<glyph unicode="3" d="M578 1427q88 0 167.5 -23.5t141 -72.5t97.5 -125t36 -180q0 -102 -49 -178t-125 -119q86 -41 130 -120t44 -179q0 -119 -43 -203t-111.5 -138t-156.5 -78.5t-179 -24.5q-123 0 -241.5 35.5t-202.5 109.5l158 242q59 -51 133 -75t137 -24q82 0 140.5 40t58.5 112 q0 66 -42 112t-116 46h-174v256h166q66 0 113 44t47 109q0 39 -15.5 65.5t-40 44t-54.5 25t-56 7.5q-63 0 -130 -22.5t-126 -76.5l-158 240q84 74 205 112.5t246 38.5z" />
<glyph unicode="4" d="M961 197v-197h-306v197h-577v239l444 975h322l-430 -946h241v393h306v-393h112v-268h-112z" />
<glyph unicode="5" d="M1032 385q0 -100 -39 -174t-103.5 -123t-147.5 -73.5t-173 -24.5q-125 0 -235.5 35.5t-194.5 109.5l158 242q68 -59 133.5 -78.5t128.5 -19.5q31 0 60.5 9t54 26.5t40 45t15.5 64.5v145q0 113 -100 113q-27 0 -56.5 -10t-57.5 -23.5t-49.5 -27t-31.5 -21.5l-270 107v704 h821v-270h-518v-215q47 27 105.5 43t103.5 16q86 0 152.5 -29.5t111.5 -81t68.5 -122t23.5 -152.5v-215v0z" />
<glyph unicode="6" d="M1024 385q0 -102 -40 -177t-103.5 -123t-143.5 -71.5t-162 -23.5q-86 0 -167.5 23.5t-145 72.5t-101.5 123t-38 176v643q0 100 39 175t103.5 124t147.5 73.5t173 24.5q125 0 235.5 -35.5t194.5 -109.5l-158 -244q-68 59 -133.5 79t-128.5 20q-23 0 -52.5 -8.5t-56 -27 t-44 -46t-17.5 -64.5v-112q88 41 138 53t100 12q90 0 157.5 -30.5t112.5 -83t67.5 -123t22.5 -152.5v-168zM721 532q0 72 -34 97.5t-69 25.5q-41 0 -87 -14t-105 -47v-164q0 -84 47 -117.5t102 -33.5q53 0 99.5 35.5t46.5 115.5v102z" />
<glyph unicode="7" d="M539 0h-324l467 1141h-272v-203h-283v473h899v-250z" />
<glyph unicode="8" d="M588 1425q80 0 159.5 -25.5t143 -77.5t102.5 -131t39 -187q0 -100 -43 -170t-102 -101q72 -39 122 -121t50 -190q0 -113 -44 -195t-114 -134t-154.5 -77.5t-164.5 -25.5t-165 23.5t-154.5 74.5t-114 133t-44.5 197q0 51 15.5 100t41 91t57.5 74t63 50q-63 35 -99.5 101.5 t-36.5 173.5q0 106 41 185t105.5 130t143.5 76.5t153 25.5zM727 993q0 63 -44 101.5t-95 38.5q-27 0 -52.5 -10.5t-46 -28t-33 -42t-12.5 -55.5q0 -80 45.5 -112.5t98.5 -32.5t96 34.5t43 106.5zM582 573q-57 0 -107.5 -39.5t-50.5 -111.5q0 -37 14.5 -64.5t37 -46t50 -28 t56.5 -9.5t56.5 9.5t50 29t36.5 48t14 67.5q0 31 -14 57.5t-36.5 46t-50 30.5t-56.5 11z" />
<glyph unicode="9" d="M1026 385q0 -100 -39 -174t-103.5 -123t-147.5 -73.5t-173 -24.5q-123 0 -234.5 35.5t-195.5 109.5l158 242q70 -59 135.5 -78.5t126.5 -19.5q25 0 53.5 9t55 26.5t44 45t17.5 64.5v131q-43 -20 -77 -32.5t-60.5 -19.5t-51 -9t-49.5 -2q-82 0 -148.5 30.5t-113.5 82.5 t-72.5 123t-25.5 153v135q0 102 38 179t100.5 128t143 76.5t168.5 25.5q98 0 181.5 -27.5t142.5 -80.5t93 -132t34 -181v-619zM723 985q0 43 -13.5 71.5t-34 46t-47 26t-53.5 8.5t-53 -9.5t-46.5 -28t-34 -47t-13.5 -67.5v-84q0 -35 9 -58.5t24.5 -37.5t34 -20.5t34.5 -6.5 q41 0 87.5 14.5t105.5 47.5v145z" />
<glyph unicode=":" horiz-adv-x="712" d="M354 549q-78 0 -131 53t-53 131q0 39 14.5 73t39 58.5t57 37.5t69.5 13t70 -13t58.5 -37.5t39.5 -58.5t14 -73q0 -37 -12 -69.5t-35.5 -58t-56.5 -41t-74 -15.5zM354 -14q-78 0 -131 54t-53 132q0 39 14.5 71.5t39 57.5t57 38t69.5 13t70 -13t58.5 -38t39.5 -57.5 t14 -71.5q0 -76 -48 -131t-130 -55z" />
<glyph unicode=";" horiz-adv-x="645" d="M332 549q-78 0 -131.5 53t-53.5 131q0 39 14.5 73t39 58.5t57.5 37.5t70 13t69.5 -13t58 -37.5t40 -58.5t14.5 -73q0 -37 -12.5 -69.5t-36 -58t-56 -41t-73.5 -15.5zM119 -201q55 41 90 95.5t43 99.5q-49 10 -87 53t-38 113q0 39 15.5 71.5t41 57t59 38t68.5 13.5 q92 0 146.5 -63.5t54.5 -167.5q0 -66 -19.5 -130.5t-56.5 -124t-91 -110.5t-122 -88z" />
<glyph unicode="&#x3c;" d="M39 496v229l1046 457v-269l-723 -305l723 -305v-268z" />
<glyph unicode="=" d="M37 731v227h1053v-227h-1053zM37 262v227h1053v-227h-1053z" />
<glyph unicode="&#x3e;" d="M39 35v268l723 305l-723 305v269l1046 -457v-229z" />
<glyph unicode="?" horiz-adv-x="1030" d="M514 1436q102 0 186 -29t142.5 -78t90.5 -116.5t32 -145.5q0 -72 -20.5 -127t-50.5 -101t-65.5 -87t-65.5 -84t-50.5 -92.5t-20.5 -110.5v-33h-309v35q0 59 8 104t28.5 90.5t52.5 94.5t81 114q16 23 34.5 63t18.5 83q0 49 -35.5 86t-124.5 37q-59 0 -117.5 -23.5 t-117.5 -77.5l-148 246q94 78 211 115t240 37zM539 -14q-78 0 -131.5 54t-53.5 132q0 39 14.5 71.5t39 57.5t57.5 38t70 13t69.5 -13t58 -38t40 -57.5t14.5 -71.5q0 -76 -48 -131t-130 -55z" />
<glyph unicode="@" horiz-adv-x="1806" d="M549 567q0 70 32.5 117t81 75.5t103.5 41t98 12.5h156v16q0 41 -28.5 69t-90.5 28q-41 0 -92 -12.5t-109 -57.5l-110 172q88 70 171 90.5t159 20.5q154 0 247 -81t93 -247v-233q0 -20 9 -31.5t20 -17t22.5 -6.5t15.5 -1q20 0 49 13.5t54.5 44t43 84t17.5 133.5 q0 106 -34 198t-100.5 160t-168 106.5t-236.5 38.5q-145 0 -259.5 -45t-194.5 -121.5t-123 -178t-43 -216.5q0 -117 41 -219t114.5 -179t177 -121t230.5 -44q53 0 109.5 7t148.5 42l66 -190q-35 -18 -80 -29.5t-92.5 -20t-92.5 -11.5t-77 -3q-176 0 -318.5 58.5t-243 162 t-153.5 242.5t-53 303q0 166 61 307.5t172 245t266.5 162.5t343.5 59q193 0 336.5 -55t238.5 -151.5t142 -225.5t47 -276q0 -102 -31.5 -192.5t-89 -158t-137.5 -106.5t-174 -39q-29 0 -61.5 3t-65.5 12.5t-62.5 28t-50.5 48.5q-66 -45 -127 -62.5t-108 -17.5 q-72 0 -121 20.5t-79.5 55.5t-45 79t-14.5 93zM1022 643h-145q-31 0 -56.5 -11t-25.5 -46q0 -18 18 -34.5t57 -16.5q57 0 93 14t59 29v65z" />
<glyph unicode="A" horiz-adv-x="1349" d="M897 279h-455l-84 -279h-350l498 1411h336l489 -1411h-348zM524 545h291l-29 96l-112 389h-8l-113 -389z" />
<glyph unicode="B" horiz-adv-x="1308" d="M1221 422q0 -90 -27 -167t-79 -134.5t-129 -89t-177 -31.5h-686v1411h659q111 0 189 -31.5t128 -85t72.5 -123t22.5 -147.5q0 -37 -11.5 -78t-33 -80t-54 -71.5t-75.5 -53.5q51 -25 89 -62.5t62.5 -81.5t37 -90t12.5 -85zM856 987q0 59 -35 97t-127 38h-245v-256h245 q86 0 124 34t38 87zM870 434q0 66 -37.5 111t-123.5 45h-260v-301h260q80 0 120.5 39.5t40.5 105.5z" />
<glyph unicode="C" horiz-adv-x="1181" d="M963 1028q-70 59 -142.5 78.5t-140.5 19.5q-41 0 -82 -12t-73.5 -37.5t-54 -67.5t-21.5 -104v-399q0 -61 21.5 -103.5t55 -68t74.5 -37.5t82 -12q66 0 135.5 19.5t147.5 78.5l153 -254q-86 -72 -201.5 -107.5t-240.5 -35.5q-98 0 -197.5 26.5t-178.5 82t-128 140 t-49 201.5v533q0 117 48 201.5t126 141t175 84t198 27.5q125 0 245.5 -34.5t204.5 -108.5z" />
<glyph unicode="D" horiz-adv-x="1273" d="M1171 451q0 -117 -44 -202t-116.5 -140.5t-164.5 -82t-187 -26.5h-536v1411h536q109 0 202 -26.5t163 -82t108.5 -139.5t38.5 -200v-512zM844 899q0 61 -20.5 103t-52.5 68t-73 38t-80 12h-169v-833h169q39 0 80 12t73 37.5t52.5 69t20.5 104.5v389z" />
<glyph unicode="E" horiz-adv-x="1200" d="M123 1411h985v-291h-659v-264h563v-289h-563v-278h659v-289h-985v1411z" />
<glyph unicode="F" horiz-adv-x="1128" d="M449 842h563v-289h-563v-553h-326v1411h985v-291h-659v-278z" />
<glyph unicode="G" horiz-adv-x="1265" d="M1153 195q-47 -59 -107.5 -99.5t-124 -65t-127 -34.5t-118.5 -10q-96 0 -194.5 26.5t-178.5 82t-130 140t-50 201.5v527q0 117 48 202.5t127 144t177 87t201 28.5q125 0 251 -35.5t210 -109.5l-158 -252q-70 59 -148.5 78.5t-146.5 19.5q-41 0 -82 -12t-75.5 -37.5 t-56 -67.5t-21.5 -104v-399q0 -61 20 -103.5t53 -68t73 -37.5t81 -12q37 0 77 10t74 39v190h-194v275h520v-604v0z" />
<glyph unicode="H" horiz-adv-x="1351" d="M899 0v571h-450v-571h-326v1411h326v-547h450v547h330v-1411h-330z" />
<glyph unicode="I" horiz-adv-x="653" d="M489 1411v-1411h-325v1411h325z" />
<glyph unicode="J" horiz-adv-x="1101" d="M969 436q0 -117 -44 -200.5t-116 -139t-164 -82t-188 -26.5q-129 0 -251 34.5t-206 106.5l152 250q72 -55 137 -75.5t127 -20.5q49 0 90 11t70.5 37.5t47 72t17.5 112.5v895h328v-975v0z" />
<glyph unicode="K" horiz-adv-x="1325" d="M610 582l-161 -187v-395h-326v1411h326v-551l466 551h385l-475 -573l500 -838h-381z" />
<glyph unicode="L" horiz-adv-x="1124" d="M123 0v1411h321v-1120h670v-291h-991z" />
<glyph unicode="M" horiz-adv-x="1650" d="M1196 657l-133 -254l-123 -215h-231l-125 224l-127 243h-8v-655h-326v1411h299l233 -459l166 -336h13l172 349l223 446h299v-1411h-326v657h-6z" />
<glyph unicode="N" horiz-adv-x="1413" d="M449 811v-811h-326v1411h293l235 -342l310 -469h6v811h323v-1411h-291l-290 430l-250 381h-10z" />
<glyph unicode="O" horiz-adv-x="1331" d="M1219 446q0 -117 -45.5 -202.5t-121 -143t-176 -86t-210.5 -28.5q-111 0 -210.5 28.5t-176 86t-121.5 143.5t-45 202v531q0 117 49 201t128 139t177 81.5t199 26.5q100 0 199.5 -28.5t178 -85t127 -142.5t48.5 -202v-521zM891 905q0 61 -20.5 103.5t-52.5 68t-72.5 37.5 t-79.5 12q-41 0 -81 -12t-73 -37.5t-53.5 -67.5t-20.5 -104v-399q0 -61 20.5 -103.5t53.5 -68t73 -37.5t81 -12q39 0 79.5 12t72.5 37.5t52.5 67.5t20.5 104v399z" />
<glyph unicode="P" horiz-adv-x="1202" d="M449 805h239q92 0 131 46t39 112t-38 111.5t-132 45.5h-239v-315zM739 1411q119 0 203 -38t137.5 -101.5t78 -143t24.5 -165.5t-30 -166t-88 -143.5t-142 -101.5t-193 -38h-280v-514h-326v1411h616z" />
<glyph unicode="Q" horiz-adv-x="1331" d="M1219 457q0 -96 -31 -173t-86 -134.5t-129 -95.5t-160 -54v-45q0 -29 3 -48.5t16.5 -31.5t38 -17t67.5 -5h37v-232q-51 -6 -72.5 -7t-46.5 -1q-98 0 -164.5 24.5t-105.5 65.5t-55.5 97.5t-16.5 121.5v78q-84 18 -157.5 56t-128 95.5t-85 133t-30.5 172.5v504 q0 117 49 203.5t128 145t177 87t199 28.5q100 0 199.5 -28.5t178 -85t127 -142.5t48.5 -202v-510zM891 905q0 61 -20.5 103.5t-52.5 68t-72.5 37.5t-79.5 12q-41 0 -81 -12t-73 -37.5t-53.5 -67.5t-20.5 -104v-399q0 -61 20.5 -103.5t53.5 -68t73 -37.5t81 -12q39 0 79.5 12 t72.5 37.5t52.5 67.5t20.5 104v399z" />
<glyph unicode="R" horiz-adv-x="1239" d="M758 1411q117 0 198.5 -39t134 -102.5t76 -144.5t23.5 -162q0 -55 -16.5 -111.5t-46 -107t-72.5 -94.5t-97 -75l252 -575h-348l-213 520h-200v-520h-326v1411h635zM449 805h241q90 0 130 46t40 112t-41 111.5t-129 45.5h-241v-315z" />
<glyph unicode="S" horiz-adv-x="1269" d="M1198 414q0 -106 -45 -185t-122 -132.5t-180 -80t-218 -26.5q-78 0 -150.5 8t-140.5 29.5t-134.5 59.5t-131.5 95l182 240q90 -72 181 -105.5t184 -33.5q68 0 112.5 12t72.5 31.5t39 42t11 43.5q0 31 -15.5 54t-52 43.5t-97 41t-150.5 45.5q-98 27 -174 60.5t-128.5 81.5 t-79 114t-26.5 158q0 96 38 173t106.5 131t164 82.5t207.5 28.5q123 0 243 -22.5t249 -108.5l-146 -262q-100 63 -183 79.5t-167 16.5q-78 0 -126 -25.5t-48 -84.5q0 -27 15.5 -48.5t52.5 -42t96 -40t145 -43.5q135 -37 217 -83t126 -100.5t58.5 -116.5t14.5 -130z" />
<glyph unicode="T" horiz-adv-x="1081" d="M705 1118v-1118h-326v1118h-359v293h1041v-293h-356z" />
<glyph unicode="U" horiz-adv-x="1351" d="M1229 449q0 -117 -47 -203t-125 -144.5t-177.5 -87t-203.5 -28.5t-203.5 27.5t-177.5 84t-125 141.5t-47 201v971h326v-909q0 -61 20 -103.5t53 -68t73 -37.5t81 -12q39 0 80 12t72.5 37.5t52 67.5t20.5 104v909h328v-962v0z" />
<glyph unicode="V" horiz-adv-x="1275" d="M649 475l144 510l122 426h340l-448 -1411h-334l-453 1411h349l127 -434l141 -502h12z" />
<glyph unicode="W" horiz-adv-x="1906" d="M942 860l-96 -381l-115 -479h-354l-357 1411h347l104 -512l86 -420h14l107 426l129 506h293l137 -539l98 -393h15l80 395l110 537h346l-358 -1411h-352l-115 479l-103 381h-16z" />
<glyph unicode="X" horiz-adv-x="1265" d="M633 446l-256 -446h-367l451 723l-424 688h366l230 -412l229 412h365l-422 -688l450 -723h-366z" />
<glyph unicode="Y" horiz-adv-x="1220" d="M616 860l105 240l133 311h346l-426 -854v-557h-325v557l-429 854h347l135 -317l102 -234h12z" />
<glyph unicode="Z" horiz-adv-x="1122" d="M61 281l607 841h-582v289h975v-270l-617 -852h617v-289h-1000v281z" />
<glyph unicode="[" horiz-adv-x="643" d="M137 -195v1627h469v-218h-190v-1194h190v-215h-469z" />
<glyph unicode="\" horiz-adv-x="753" d="M-31 1485h246l518 -1571h-244z" />
<glyph unicode="]" horiz-adv-x="643" d="M37 -195v215h188v1194h-188v218h467v-1627h-467z" />
<glyph unicode="^" d="M805 485l-242 615l-244 -619h-266l398 942h229l391 -938h-266z" />
<glyph unicode="_" horiz-adv-x="1024" d="M0 -328v187h1024v-187h-1024z" />
<glyph unicode="`" horiz-adv-x="1056" d="M526 1100l-299 381l275 94l190 -397z" />
<glyph unicode="a" horiz-adv-x="1103" d="M698 78q-80 -47 -152.5 -66.5t-135.5 -19.5q-160 0 -244 83t-84 228q0 84 34 142.5t88 95.5t119.5 54t129.5 17h245v27q0 53 -32.5 87t-133.5 34q-49 0 -118.5 -13.5t-141.5 -70.5l-131 217q111 86 219.5 110.5t204.5 24.5q225 0 330.5 -101.5t105.5 -312.5v-614h-278 l-18 76zM700 399h-192q-39 0 -66.5 -14t-27.5 -57q0 -25 19.5 -45.5t68.5 -20.5q61 0 115.5 18.5t82.5 36.5v82z" />
<glyph unicode="b" horiz-adv-x="1097" d="M1016 365q0 -190 -93.5 -281.5t-256.5 -91.5q-53 0 -128 23.5t-143 60.5l-20 -76h-273v1466h304v-520q84 49 156.5 66.5t123.5 17.5q90 0 152.5 -26.5t102.5 -75.5t57.5 -117t17.5 -149v-297zM711 621q0 72 -30 97t-73 25q-41 0 -95 -21.5t-107 -55.5v-336 q16 -10 41.5 -20.5t54 -19.5t57.5 -15.5t49 -6.5q41 0 72 30t31 95v228z" />
<glyph unicode="c" horiz-adv-x="952" d="M922 152q-51 -53 -102.5 -85t-102.5 -49.5t-102.5 -22.5t-100.5 -5q-82 0 -157.5 21.5t-134 66.5t-94.5 114.5t-36 165.5v304q0 94 38 163.5t99.5 115.5t136 67.5t148.5 21.5q49 0 99.5 -4t101.5 -18.5t101 -44t99 -78.5l-172 -219q-72 63 -118.5 75.5t-79.5 12.5 q-55 0 -103.5 -34t-48.5 -112v-194q0 -80 45 -113t101 -33q37 0 93 18.5t109 71.5z" />
<glyph unicode="d" horiz-adv-x="1097" d="M82 662q0 82 21.5 149.5t65.5 116.5t110.5 75.5t156.5 26.5q51 0 124 -10t132 -47v493h303v-1466h-274l-21 88q-70 -45 -146.5 -71.5t-129.5 -26.5q-342 0 -342 375v297zM387 393q0 -74 31 -99.5t71 -25.5q41 0 99.5 21.5t103.5 50.5v352q-57 29 -100 40t-84 11 q-51 0 -86 -28.5t-35 -100.5v-221z" />
<glyph unicode="e" horiz-adv-x="1064" d="M983 424h-590v-12q0 -76 46 -111t106 -35q37 0 99.5 10.5t137.5 63.5l160 -207q-51 -47 -99 -74.5t-96.5 -43t-96.5 -20.5t-97 -5q-90 0 -174 22.5t-147.5 68.5t-101.5 117.5t-38 168.5v262q0 98 36 171.5t97.5 125t141 77t170.5 25.5q96 0 178 -26.5t141 -77t93 -125 t34 -172.5v-203zM680 625q0 61 -43 94t-98 33q-57 0 -101.5 -36t-44.5 -95v-9h287v13z" />
<glyph unicode="f" horiz-adv-x="665" d="M446 776v-776h-290v776h-115v240h115v153q0 76 24.5 132.5t66.5 93.5t99 54t123 17h176v-245h-119q-80 0 -80 -84v-121h199v-240h-199z" />
<glyph unicode="g" horiz-adv-x="1097" d="M995 -53q0 -96 -47 -166t-118.5 -115t-156.5 -66.5t-161 -21.5q-49 0 -105.5 7t-111.5 27.5t-109.5 55.5t-99.5 88l195 195q25 -31 57.5 -49.5t64 -28.5t61.5 -13t48 -3q78 0 129 31.5t51 113.5v88q-84 -49 -156.5 -66.5t-123.5 -17.5q-90 0 -152.5 26.5t-102.5 76 t-57.5 117t-17.5 149.5v276q0 182 89 279.5t253 97.5q53 0 125 -20.5t143 -67.5l21 76h282v-1069zM387 416q0 -72 29.5 -97.5t72.5 -25.5q41 0 95.5 21.5t107.5 56.5v305q-41 29 -98 50.5t-105 21.5q-41 0 -71.5 -30t-30.5 -95v-207z" />
<glyph unicode="h" horiz-adv-x="1116" d="M719 0v621q0 70 -36 96t-75 26q-41 0 -85 -14t-117 -61v-668h-304v1466h304v-530q102 63 176.5 78.5t126.5 15.5q88 0 148.5 -27.5t97 -76.5t53 -117t16.5 -150v-659h-305z" />
<glyph unicode="i" horiz-adv-x="579" d="M139 0v1016h303v-1016h-303zM123 1276q0 70 48 118t118 48t119 -48t49 -118q0 -72 -49.5 -120t-118.5 -48q-70 0 -118 48t-48 120z" />
<glyph unicode="j" horiz-adv-x="585" d="M442 -106q0 -68 -25.5 -124.5t-70.5 -96.5t-107.5 -61.5t-134.5 -21.5h-122v254h59q31 0 50.5 10.5t29.5 25t14 31.5t4 32v1073h303v-1122zM125 1276q0 70 48 118t118 48t119 -48t49 -118q0 -72 -49.5 -120t-118.5 -48q-70 0 -118 48t-48 120z" />
<glyph unicode="k" horiz-adv-x="1095" d="M102 0v1466h308v-733h51q53 0 86 29t59 80l86 172h342l-123 -252q-29 -59 -61.5 -100t-93.5 -64q43 -14 71.5 -37.5t47 -52.5t31 -61.5t22.5 -65.5l127 -381h-340l-101 330q-20 63 -56 94t-114 31h-34v-455h-308z" />
<glyph unicode="l" horiz-adv-x="591" d="M422 352q0 -31 4 -49t17.5 -29.5t39 -16.5t68.5 -7l4 -250q-35 -6 -70.5 -8t-64.5 -2q-102 0 -161.5 21.5t-89.5 61.5t-38 95t-8 123v1175h299v-1114z" />
<glyph unicode="m" horiz-adv-x="1658" d="M1262 0v621q0 72 -30 97t-65 25q-41 0 -78.5 -15t-101.5 -60v-668h-305v621q0 72 -29.5 97t-64.5 25q-41 0 -80 -15t-102 -60v-668h-304v1016h271l20 -80q51 33 92 51.5t75 27.5t61.5 12t52.5 3q94 0 156.5 -34.5t97.5 -94.5q66 45 115 70.5t87.5 39t68.5 16.5t54 3 q88 0 148.5 -30.5t97.5 -83t52.5 -123t15.5 -152.5v-641h-305z" />
<glyph unicode="n" horiz-adv-x="1116" d="M719 0v621q0 72 -33 97t-78 25q-41 0 -85 -14t-117 -61v-668h-304v1016h271l20 -80q102 63 183 78.5t133 15.5q88 0 148.5 -26.5t97 -74.5t53 -114.5t16.5 -148.5v-666h-305z" />
<glyph unicode="o" horiz-adv-x="1075" d="M993 383q0 -96 -32.5 -170t-93 -123t-144.5 -74.5t-184 -25.5q-213 0 -335 99t-122 294v254q0 96 36 170t98.5 123t145 74.5t177.5 25.5q211 0 332.5 -102.5t121.5 -296.5v-248zM692 616q0 80 -49 113t-104 33q-57 0 -106.5 -33t-49.5 -113v-213q0 -80 49 -112.5 t107 -32.5q55 0 104 33t49 112v213z" />
<glyph unicode="p" horiz-adv-x="1097" d="M1016 354q0 -82 -21.5 -149.5t-65.5 -116.5t-110.5 -75.5t-156.5 -26.5q-51 0 -124 10t-132 47v-449h-304v1422h275l20 -88q70 45 150 71.5t133 26.5q336 0 336 -375v-297zM711 623q0 74 -31 99.5t-72 25.5t-99 -21.5t-103 -50.5v-352q57 -29 100 -40.5t84 -11.5 q51 0 86 29t35 100v222z" />
<glyph unicode="q" horiz-adv-x="1097" d="M82 657q0 190 93 281.5t257 91.5q53 0 129 -23.5t144 -66.5l20 76h270v-1422h-303v482q-84 -49 -156.5 -66.5t-123.5 -17.5q-90 0 -152.5 26.5t-102.5 75.5t-57.5 117t-17.5 149v297zM387 401q0 -72 29.5 -97t72.5 -25q41 0 95.5 21.5t107.5 55.5v336q-16 10 -41.5 20.5 t-54.5 19.5t-57.5 15.5t-49.5 6.5q-41 0 -71.5 -30t-30.5 -95v-228z" />
<glyph unicode="r" horiz-adv-x="827" d="M803 721q-131 -12 -219 -39t-170 -78v-604h-301v1016h280l19 -150h2q27 27 71.5 55.5t97 52t110 39t110.5 15.5v-307z" />
<glyph unicode="s" horiz-adv-x="968" d="M492 -10q-51 0 -104.5 5t-110 20.5t-115 46t-117.5 83.5l160 215q78 -63 140.5 -86.5t133.5 -23.5q66 0 99.5 19.5t33.5 45.5q0 25 -17 44.5t-87 31.5q-66 12 -138.5 27.5t-134 47.5t-101.5 85t-40 143q0 84 34 145.5t89 102.5t124 61.5t140 20.5q113 0 212.5 -21.5 t203.5 -99.5l-141 -227q-82 55 -145.5 69.5t-121.5 14.5q-57 0 -76.5 -18.5t-19.5 -39.5q0 -31 40 -44t98.5 -23t128 -24.5t128 -46.5t98.5 -90t40 -155q0 -82 -36 -143t-96.5 -103t-139 -62.5t-162.5 -20.5z" />
<glyph unicode="t" horiz-adv-x="784" d="M43 778v238h125l47 256h246v-256h227v-238h-227v-393q0 -74 32.5 -97.5t110.5 -23.5q57 0 141 6l25 -243q-68 -25 -138.5 -32t-127.5 -7q-109 0 -175.5 25.5t-103.5 70.5t-50 107.5t-13 138.5v448h-119z" />
<glyph unicode="u" horiz-adv-x="1116" d="M397 1016v-621q0 -35 11.5 -58.5t28 -37.5t36 -20.5t35.5 -6.5q41 0 85 14.5t118 61.5v668h303v-1016h-271l-20 80q-51 -33 -97 -51.5t-86 -27.5t-74 -12t-58 -3q-88 0 -148.5 30.5t-97.5 83t-53.5 123t-16.5 152.5v641h305z" />
<glyph unicode="v" horiz-adv-x="1079" d="M549 379q23 78 48.5 167t49.5 167l92 303h330l-367 -1016h-323l-369 1016h340l90 -303q25 -78 50.5 -166t52.5 -168h6z" />
<glyph unicode="w" horiz-adv-x="1509" d="M477 426q20 59 41 128t43 134l74 230h242l77 -248l80 -258h6q18 74 36 152.5t34 154.5t33.5 149.5t36.5 147.5h319l-285 -1016h-311l-76 236l-71 227l-8 2l-74 -234l-74 -231h-305l-285 1016h320l76 -326l59 -264h12z" />
<glyph unicode="x" horiz-adv-x="1062" d="M705 0l-175 293l-174 -293h-346l352 518l-337 498h342l163 -279l162 279h344l-338 -498l355 -518h-348z" />
<glyph unicode="y" horiz-adv-x="1028" d="M190 -406l158 431l-47 32l-281 959h308l80 -352l73 -304h8l99 310l108 346h310l-521 -1422h-295z" />
<glyph unicode="z" horiz-adv-x="995" d="M72 0v244l489 520h-461v250h824v-234l-488 -518h488v-262h-852z" />
<glyph unicode="{" horiz-adv-x="643" d="M424 -190q-102 0 -173 68.5t-71 184.5v269q0 178 -155 178v213q156 6 155 184v264q0 117 71 185.5t173 68.5h201v-206h-84q-23 0 -39.5 -11.5t-25.5 -29t-13 -39t-4 -39.5v-240q0 -94 -48.5 -154.5t-107.5 -89.5q72 -27 114 -87t42 -152v-242q0 -18 1 -39.5t8 -40 t24.5 -30t48.5 -11.5h84v-204h-201z" />
<glyph unicode="|" horiz-adv-x="530" d="M137 -467v1962h254v-1962h-254z" />
<glyph unicode="}" horiz-adv-x="643" d="M623 510q-158 0 -158 -178v-269q0 -117 -69.5 -185t-172.5 -68h-200v204h83q31 0 48.5 11.5t24.5 30t8 40t1 39.5v242q0 92 42 152.5t114 86.5q-59 29 -107.5 89.5t-48.5 154.5v240q0 39 -18 79t-64 40h-83v206h200q102 0 172 -68.5t70 -185.5v-264q0 -178 158 -184v-213 v0z" />
<glyph unicode="~" d="M348 711q49 0 103.5 -21.5t108.5 -47.5t105.5 -47.5t94.5 -21.5q12 0 27.5 3.5t36 16.5t47 44t59.5 86l190 -129q-66 -133 -157 -196.5t-189 -63.5q-59 0 -111.5 20.5t-103.5 45t-104.5 45t-112.5 20.5q-41 0 -82 -23.5t-94 -95.5l-162 146q25 43 54.5 81.5t71.5 69.5 t95 49.5t123 18.5z" />
<glyph unicode="&#xa2;" horiz-adv-x="952" d="M922 152q-78 -84 -158 -117t-158 -41v-275h-143v273q-74 6 -141.5 30.5t-117.5 69.5t-81 110.5t-31 155.5v304q0 86 33 151.5t85 111.5t118.5 71.5t134.5 31.5v268h143v-270q78 -6 155 -34.5t154 -106.5l-172 -219q-72 63 -118.5 75.5t-79.5 12.5q-55 0 -103.5 -34 t-48.5 -112v-194q0 -80 45 -113t101 -33q37 0 93 18.5t109 71.5z" />
<glyph unicode="&#xa3;" d="M819 1040q-59 78 -110.5 100.5t-110.5 22.5q-27 0 -52.5 -10t-47 -29.5t-34.5 -47t-13 -62.5q0 -27 9 -53.5t23.5 -56.5t27.5 -65.5t24 -78.5h288v-213h-286q-8 -78 -28 -154t-52 -137h581v-256h-966v221q61 80 95 154t44 172h-150v213h134q-23 76 -51.5 140.5 t-28.5 123.5q0 82 26.5 155.5t83 130t145.5 90.5t212 34q61 0 122.5 -8.5t120 -31t113.5 -62.5t104 -103z" />
<glyph unicode="&#xa5;" d="M121 492h276v65l-28 64h-242v194h160l-256 596h346l176 -567h12l176 567h346l-256 -596h177v-194h-258l-27 -64v-65h285v-191h-285v-301h-326v301h-276v191z" />
<glyph unicode="&#xa8;" horiz-adv-x="1005" d="M551 1268q0 66 47 111.5t113 45.5t111.5 -46t45.5 -111q0 -66 -46 -113t-111 -47q-66 0 -113 47t-47 113zM145 1268q0 66 46.5 111.5t111.5 45.5q66 0 113 -46t47 -111q0 -66 -47 -113t-113 -47t-112 47t-46 113z" />
<glyph unicode="&#xa9;" horiz-adv-x="1679" d="M842 -33q-154 0 -287 53.5t-231.5 149.5t-153.5 231.5t-55 298.5q0 160 55 295t153.5 233.5t231.5 154t287 55.5t287 -54.5t231 -152.5t153.5 -233.5t55.5 -297.5q0 -160 -55.5 -294t-153.5 -232t-231 -152.5t-287 -54.5zM842 1276q-117 0 -217.5 -44t-173 -122 t-114.5 -182.5t-42 -227.5t42 -227t114.5 -181t173 -121t217.5 -44t217 44t173 121t115 181.5t42 226.5q0 127 -42 233.5t-115 182.5t-173 118t-217 42zM1038 893q-45 39 -91 52t-91 13q-27 0 -53.5 -8t-48 -25.5t-35.5 -45t-14 -66.5v-254q0 -39 14 -66.5t36.5 -45 t49 -25.5t53.5 -8q43 0 87 14t95 53l101 -159q-55 -45 -130 -71t-157 -26q-63 0 -126.5 17.5t-115 54.5t-83 91t-31.5 128v326q0 76 30.5 132t80.5 94t112.5 57.5t128.5 19.5q80 0 160 -23.5t133 -70.5z" />
<glyph unicode="&#xab;" horiz-adv-x="1210" d="M860 20l-299 439l299 438h287l-291 -438l291 -439h-287zM393 20l-299 439l299 438h287l-293 -438l293 -439h-287z" />
<glyph unicode="&#xad;" horiz-adv-x="901" d="M96 393v269h709v-269h-709z" />
<glyph unicode="&#xae;" horiz-adv-x="1077" d="M551 936h-72v-191h-106v500h198q66 0 113 -40t47 -111q0 -41 -19.5 -77t-62.5 -63l96 -209h-114zM479 1143v-107h88q29 0 45.5 15.5t16.5 42.5q0 49 -58 49h-92zM543 551q-96 0 -178 33.5t-142.5 92t-95.5 139.5t-35 175t37 176t98.5 141.5t143.5 93.5t172 34 q96 0 179 -34t143.5 -93.5t95 -141.5t34.5 -176t-36.5 -175t-99 -139.5t-144.5 -92t-172 -33.5zM543 1331q-72 0 -133.5 -25.5t-107.5 -71.5t-71.5 -108.5t-25.5 -134.5t25.5 -133t71.5 -107t107.5 -73t133.5 -27t133 27t106 73t71 107.5t26 132.5q0 72 -26 134.5t-71 108.5 t-106 71.5t-133 25.5z" />
<glyph unicode="&#xb4;" horiz-adv-x="1056" d="M375 1161l174 416l272 -88l-276 -389z" />
<glyph unicode="&#xb8;" horiz-adv-x="948" d="M428 100l147 2l-57 -176q106 -12 151.5 -67.5t45.5 -116.5q0 -37 -16.5 -70.5t-48.5 -61.5t-78 -44.5t-103 -16.5q-66 0 -125 15.5t-104 44.5l51 127q51 -25 84 -31t67 -6q33 0 57.5 15.5t24.5 45.5q0 20 -11 32.5t-26.5 16t-32 1t-28.5 -8.5l-80 41z" />
<glyph unicode="&#xbb;" horiz-adv-x="1210" d="M94 20l291 439l-291 438h287l299 -438l-299 -439h-287zM561 20l293 439l-293 438h287l299 -438l-299 -439h-287z" />
<glyph unicode="&#x2c6;" horiz-adv-x="1056" d="M520 1280q-74 -53 -148.5 -106.5t-148.5 -104.5l-108 98l301 318h211l303 -318l-115 -100z" />
<glyph unicode="&#x2da;" horiz-adv-x="1056" d="M651 1317q0 33 -23.5 54.5t-58.5 21.5t-59.5 -21.5t-24.5 -54.5t25 -55.5t59 -22.5q35 0 58.5 22.5t23.5 55.5zM313 1317q0 49 20.5 92t55.5 76t81 51t99 18q51 0 98.5 -18t81 -51t54 -76t20.5 -92t-20.5 -92t-55 -76t-80.5 -51.5t-100 -18.5q-53 0 -99 18.5t-80 51.5 t-54.5 76t-20.5 92z" />
<glyph unicode="&#x2dc;" horiz-adv-x="1056" d="M403 1456q41 -2 80 -17.5t74 -34t64.5 -33.5t52.5 -15q35 0 62.5 20.5t68.5 73.5l145 -86q-57 -123 -115.5 -174t-132.5 -51q-43 0 -81.5 15t-74.5 32.5t-69 33t-59 15.5q-35 0 -65.5 -15.5t-78.5 -76.5l-141 88q53 113 114.5 169t155.5 56z" />
<glyph unicode="&#x401;" horiz-adv-x="1200" d="M123 1411h985v-291h-659v-264h563v-289h-563v-278h659v-289h-985v1411zM676 1663q0 66 47 112t113 46t111.5 -46t45.5 -112t-46 -113t-111 -47q-66 0 -113 47t-47 113zM270 1663q0 66 46 112t112 46t113 -46t47 -112t-47 -113t-113 -47t-112 47t-46 113z" />
<glyph unicode="&#x402;" horiz-adv-x="1536" d="M1116 485q0 80 -38 128.5t-150 48.5q-39 0 -111 -13.5t-153 -56.5v-592h-326v1118h-318v293h1076v-293h-432v-246q92 41 181 59.5t169 18.5q102 0 182 -27.5t135 -77.5t84 -120t29 -156v-307q0 -117 -41 -203t-115 -143t-175 -86t-222 -29v287q106 6 165.5 53t59.5 168 v176v0z" />
<glyph unicode="&#x403;" horiz-adv-x="1116" d="M137 0v1411h985v-291h-659v-1120h-326zM449 1647l372 268l164 -229l-438 -185z" />
<glyph unicode="&#x404;" horiz-adv-x="1153" d="M938 1028q-70 59 -143.5 78.5t-132.5 19.5q-41 0 -80 -12t-72 -37.5t-52.5 -67.5t-19.5 -104v-47h422v-272h-422v-80q0 -61 21.5 -103.5t55.5 -68t75 -37.5t82 -12q66 0 135.5 19.5t146.5 78.5l154 -254q-86 -72 -201.5 -107.5t-240.5 -35.5q-98 0 -197.5 26.5t-178.5 82 t-128 140t-49 201.5v520q0 117 47 204t122.5 145.5t172 88t196.5 29.5q125 0 243 -34.5t202 -108.5z" />
<glyph unicode="&#x405;" horiz-adv-x="1269" d="M1198 414q0 -106 -45 -185t-122 -132.5t-180 -80t-218 -26.5q-78 0 -150.5 8t-140.5 29.5t-134.5 59.5t-131.5 95l182 240q90 -72 181 -105.5t184 -33.5q68 0 112.5 12t72.5 31.5t39 42t11 43.5q0 31 -15.5 54t-52 43.5t-97 41t-150.5 45.5q-98 27 -174 60.5t-128.5 81.5 t-79 114t-26.5 158q0 96 38 173t106.5 131t164 82.5t207.5 28.5q123 0 243 -22.5t249 -108.5l-146 -262q-100 63 -183 79.5t-167 16.5q-78 0 -126 -25.5t-48 -84.5q0 -27 15.5 -48.5t52.5 -42t96 -40t145 -43.5q135 -37 217 -83t126 -100.5t58.5 -116.5t14.5 -130z" />
<glyph unicode="&#x406;" horiz-adv-x="653" d="M489 1411v-1411h-325v1411h325z" />
<glyph unicode="&#x407;" horiz-adv-x="653" d="M489 1411v-1411h-325v1411h325zM375 1634q0 66 47 112t113 46t111.5 -46t45.5 -112t-46 -112.5t-111 -46.5q-66 0 -113 46.5t-47 112.5zM-31 1634q0 66 46 112t112 46t113 -46t47 -112t-47 -112.5t-113 -46.5t-112 46.5t-46 112.5z" />
<glyph unicode="&#x408;" horiz-adv-x="1101" d="M969 436q0 -117 -44 -200.5t-116 -139t-164 -82t-188 -26.5q-129 0 -251 34.5t-206 106.5l152 250q72 -55 137 -75.5t127 -20.5q49 0 90 11t70.5 37.5t47 72t17.5 112.5v895h328v-975v0z" />
<glyph unicode="&#x409;" horiz-adv-x="1982" d="M858 0v1118h-272v-336q0 -166 -17.5 -309t-73 -251.5t-161 -174t-283.5 -74.5l-49 263q96 25 149.5 68.5t79 108t30.5 151.5t5 200v647h918v-518h301q219 0 338 -118t119 -326q0 -78 -23 -158t-75 -144.5t-137 -105.5t-210 -41h-639zM1184 291h264q88 0 133 46t45 112 t-44 111.5t-134 45.5h-264v-315z" />
<glyph unicode="&#x40a;" horiz-adv-x="1918" d="M795 0v586h-346v-586h-326v1411h326v-532h346v532h325v-530h299q219 0 339 -112t120 -320q0 -78 -23.5 -158t-76 -144.5t-137.5 -105.5t-209 -41h-637zM1120 291h262q88 0 134.5 46t46.5 112t-45 105.5t-136 39.5h-262v-303z" />
<glyph unicode="&#x40b;" horiz-adv-x="1536" d="M1116 0v457q0 45 -6 81.5t-25.5 64.5t-57.5 43.5t-99 15.5q-39 0 -111 -13.5t-153 -56.5v-592h-326v1118h-318v293h1076v-293h-432v-246q92 41 181 59.5t169 18.5q111 0 191.5 -28.5t134 -79.5t79 -122t25.5 -157v-563h-328z" />
<glyph unicode="&#x40c;" horiz-adv-x="1314" d="M123 0v1411h326v-549h104q90 0 142.5 34t84.5 134l121 381h338l-127 -412q-33 -104 -84 -173.5t-117 -92.5q88 -29 137.5 -101.5t79.5 -176.5l136 -455h-359l-112 406q-29 104 -84.5 135.5t-145.5 31.5h-114v-573h-326zM477 1647l373 268l164 -229l-439 -185z" />
<glyph unicode="&#x40e;" horiz-adv-x="1220" d="M199 236h116q57 0 85 25.5t42 60.5l13 32l-422 1057h340l125 -383l108 -344h10l129 371l125 356h326l-403 -1036q-47 -123 -92.5 -202t-98.5 -123t-118.5 -60.5t-149.5 -16.5h-135v263zM612 1444q-88 0 -147 33.5t-95 84t-53.5 107.5t-23.5 105h205q0 -20 7 -44 t21.5 -45.5t36 -36t49.5 -14.5q29 0 50.5 14.5t36 36t21.5 45t7 44.5h205q-6 -47 -23.5 -104.5t-53.5 -108t-95.5 -84t-147.5 -33.5z" />
<glyph unicode="&#x40f;" horiz-adv-x="1351" d="M535 0h-412v1411h326v-1118h450v1118h330v-1411h-402v-367h-292v367z" />
<glyph unicode="&#x410;" horiz-adv-x="1349" d="M897 279h-455l-84 -279h-350l498 1411h336l489 -1411h-348zM524 545h291l-29 96l-112 389h-8l-113 -389z" />
<glyph unicode="&#x411;" horiz-adv-x="1247" d="M123 1411h928v-291h-602v-227h286q219 0 345 -118t126 -326q0 -78 -24.5 -158t-79.5 -144.5t-142.5 -105.5t-211.5 -41h-625v1411zM449 291h249q88 0 140.5 46t52.5 112t-51.5 111.5t-141.5 45.5h-249v-315z" />
<glyph unicode="&#x412;" horiz-adv-x="1308" d="M1221 422q0 -90 -27 -167t-79 -134.5t-129 -89t-177 -31.5h-686v1411h659q111 0 189 -31.5t128 -85t72.5 -123t22.5 -147.5q0 -37 -11.5 -78t-33 -80t-54 -71.5t-75.5 -53.5q51 -25 89 -62.5t62.5 -81.5t37 -90t12.5 -85zM856 987q0 59 -35 97t-127 38h-245v-256h245 q86 0 124 34t38 87zM870 434q0 66 -37.5 111t-123.5 45h-260v-301h260q80 0 120.5 39.5t40.5 105.5z" />
<glyph unicode="&#x413;" horiz-adv-x="1116" d="M137 0v1411h985v-291h-659v-1120h-326z" />
<glyph unicode="&#x414;" horiz-adv-x="1531" d="M1323 1411v-1126h127v-609h-291v324h-846v-324h-293v609h105q47 35 79 83t52 112.5t31.5 148.5t17.5 194l31 588h987zM1004 1126h-375l-17 -303q-4 -66 -8 -136.5t-16.5 -141t-34 -137t-57.5 -123.5h508v841z" />
<glyph unicode="&#x415;" horiz-adv-x="1200" d="M123 1411h985v-291h-659v-264h563v-289h-563v-278h659v-289h-985v1411z" />
<glyph unicode="&#x416;" horiz-adv-x="1910" d="M793 0v573h-62q-90 0 -145.5 -31.5t-83.5 -135.5l-113 -406h-358l135 455q31 104 80 177t137 101q-66 23 -117 92.5t-84 173.5l-127 412h338l121 -381q33 -100 85 -134t142 -34h52v549h325v-549h51q90 0 142.5 34t85.5 134l121 381h337l-126 -412q-33 -104 -84.5 -173.5 t-116.5 -92.5q88 -29 137 -101.5t80 -176.5l135 -455h-358l-113 406q-29 104 -84 135.5t-145 31.5h-62v-573h-325z" />
<glyph unicode="&#x417;" horiz-adv-x="1159" d="M551 1423q100 0 191.5 -21.5t161 -68.5t111.5 -122.5t42 -186.5q0 -102 -52.5 -178t-134.5 -119q94 -39 146.5 -118t52.5 -179q0 -121 -44 -205t-117.5 -137t-170 -77.5t-200.5 -24.5q-74 0 -148 9t-141.5 26.5t-126 45t-101.5 64.5l168 242q31 -25 72 -43.5t85 -30.5 t86 -18.5t75 -6.5q121 0 179 46.5t58 117.5q0 82 -57 120t-158 38h-200v254h192q92 0 147.5 41t55.5 113q0 41 -19.5 67.5t-49 42.5t-67.5 23.5t-75 7.5q-66 0 -144.5 -22.5t-140.5 -75.5l-155 231q92 72 219 108.5t260 36.5z" />
<glyph unicode="&#x418;" horiz-adv-x="1413" d="M954 834l-540 -834h-291v1411h323v-846h7l544 846h293v-1411h-325v834h-11z" />
<glyph unicode="&#x419;" horiz-adv-x="1413" d="M715 1458q-88 0 -147.5 34t-95.5 84t-53.5 107.5t-23.5 104.5h205q0 -20 7 -44t21.5 -45.5t36 -35.5t50.5 -14t50 14t35.5 35.5t21.5 45t7 44.5h205q-6 -47 -23.5 -104.5t-53 -107.5t-95 -84t-147.5 -34zM954 834l-540 -834h-291v1411h323v-846h7l544 846h293v-1411h-325 v834h-11z" />
<glyph unicode="&#x41a;" horiz-adv-x="1314" d="M123 0v1411h326v-549h104q90 0 142.5 34t84.5 134l121 381h338l-127 -412q-33 -104 -84 -173.5t-117 -92.5q88 -29 137.5 -101.5t79.5 -176.5l136 -455h-359l-112 406q-29 104 -84.5 135.5t-145.5 31.5h-114v-573h-326z" />
<glyph unicode="&#x41b;" horiz-adv-x="1351" d="M575 1118v-336q0 -166 -17 -309t-72.5 -251.5t-161 -174t-283.5 -74.5l-49 263q96 25 149.5 68.5t79 108t30.5 151.5t5 200v647h961v-1411h-330v1118h-312z" />
<glyph unicode="&#x41c;" horiz-adv-x="1650" d="M1196 657l-133 -254l-123 -215h-231l-125 224l-127 243h-8v-655h-326v1411h299l233 -459l166 -336h13l172 349l223 446h299v-1411h-326v657h-6z" />
<glyph unicode="&#x41d;" horiz-adv-x="1351" d="M899 0v571h-450v-571h-326v1411h326v-547h450v547h330v-1411h-330z" />
<glyph unicode="&#x41e;" horiz-adv-x="1331" d="M1219 446q0 -117 -45.5 -202.5t-121 -143t-176 -86t-210.5 -28.5q-111 0 -210.5 28.5t-176 86t-121.5 143.5t-45 202v531q0 117 49 201t128 139t177 81.5t199 26.5q100 0 199.5 -28.5t178 -85t127 -142.5t48.5 -202v-521zM891 905q0 61 -20.5 103.5t-52.5 68t-72.5 37.5 t-79.5 12q-41 0 -81 -12t-73 -37.5t-53.5 -67.5t-20.5 -104v-399q0 -61 20.5 -103.5t53.5 -68t73 -37.5t81 -12q39 0 79.5 12t72.5 37.5t52.5 67.5t20.5 104v399z" />
<glyph unicode="&#x41f;" horiz-adv-x="1351" d="M899 0v1118h-450v-1118h-326v1411h1106v-1411h-330z" />
<glyph unicode="&#x420;" horiz-adv-x="1202" d="M449 805h239q92 0 131 46t39 112t-38 111.5t-132 45.5h-239v-315zM739 1411q119 0 203 -38t137.5 -101.5t78 -143t24.5 -165.5t-30 -166t-88 -143.5t-142 -101.5t-193 -38h-280v-514h-326v1411h616z" />
<glyph unicode="&#x421;" horiz-adv-x="1181" d="M963 1028q-70 59 -142.5 78.5t-140.5 19.5q-41 0 -82 -12t-73.5 -37.5t-54 -67.5t-21.5 -104v-399q0 -61 21.5 -103.5t55 -68t74.5 -37.5t82 -12q66 0 135.5 19.5t147.5 78.5l153 -254q-86 -72 -201.5 -107.5t-240.5 -35.5q-98 0 -197.5 26.5t-178.5 82t-128 140 t-49 201.5v533q0 117 48 201.5t126 141t175 84t198 27.5q125 0 245.5 -34.5t204.5 -108.5z" />
<glyph unicode="&#x422;" horiz-adv-x="1081" d="M705 1118v-1118h-326v1118h-359v293h1041v-293h-356z" />
<glyph unicode="&#x423;" horiz-adv-x="1220" d="M199 236h116q57 0 85 25.5t42 60.5l13 32l-422 1057h340l125 -383l108 -344h10l129 371l125 356h326l-403 -1036q-47 -123 -92.5 -202t-98.5 -123t-118.5 -60.5t-149.5 -16.5h-135v263z" />
<glyph unicode="&#x424;" horiz-adv-x="1644" d="M985 1343q111 -4 210 -40.5t174 -102t119 -157t44 -205.5v-201q0 -115 -43 -209t-118 -161.5t-174 -106.5t-212 -41v-119h-326v119q-119 8 -219 47t-172.5 105.5t-113.5 158.5t-41 207v201q0 115 46 207t121.5 156.5t175 101t203.5 40.5v82h326v-82zM1217 803 q0 117 -65 182.5t-167 69.5v-647q96 6 164 70.5t68 180.5v144zM428 659q0 -57 19.5 -102t51 -78t73.5 -51t87 -20v647q-45 -2 -87 -19.5t-73.5 -50.5t-51 -79t-19.5 -103v-144z" />
<glyph unicode="&#x425;" horiz-adv-x="1265" d="M633 446l-256 -446h-367l451 723l-424 688h366l230 -412l229 412h365l-422 -688l450 -723h-366z" />
<glyph unicode="&#x426;" horiz-adv-x="1402" d="M1229 1411v-1128h127v-607h-291v324h-942v1411h326v-1122h450v1122h330z" />
<glyph unicode="&#x427;" horiz-adv-x="1273" d="M383 1411v-428q0 -111 50 -159t171 -48q27 0 60.5 4t67.5 10.5t65.5 15.5t56.5 19v586h326v-1409h-328v565q-66 -33 -158 -47t-178 -14q-104 0 -189 22.5t-145.5 74.5t-93.5 135t-33 204v469h328z" />
<glyph unicode="&#x428;" horiz-adv-x="1927" d="M1804 1411v-1411h-1681v1411h326v-1122h350v1122h325v-1122h351v1122h329z" />
<glyph unicode="&#x429;" horiz-adv-x="1972" d="M1124 289h351v1122h329v-1128h127v-607h-291v324h-1517v1411h326v-1122h350v1122h325v-1122z" />
<glyph unicode="&#x42a;" horiz-adv-x="1560" d="M434 0v1128h-407v283h733v-518h295q219 0 341 -118t122 -326q0 -78 -24 -158t-77 -144.5t-139 -105.5t-211 -41h-633zM760 291h258q88 0 136 46t48 112t-47 111.5t-137 45.5h-258v-315z" />
<glyph unicode="&#x42b;" horiz-adv-x="1781" d="M449 291h256q88 0 137 46t49 112t-48 111.5t-138 45.5h-256v-315zM123 0v1411h326v-518h292q219 0 342 -118t123 -326q0 -78 -24.5 -158t-77.5 -144.5t-139 -105.5t-211 -41h-631zM1649 1411v-1411h-326v1411h326z" />
<glyph unicode="&#x42c;" horiz-adv-x="1247" d="M449 291h256q88 0 137 46t49 112t-48 111.5t-138 45.5h-256v-315zM123 0v1411h326v-518h292q219 0 342 -118t123 -326q0 -78 -24.5 -158t-77.5 -144.5t-139 -105.5t-211 -41h-631z" />
<glyph unicode="&#x42d;" horiz-adv-x="1159" d="M90 1296q86 61 203 94t254 33q106 0 197.5 -26.5t159 -81.5t105.5 -140t38 -202v-533q0 -117 -46.5 -201.5t-123 -141t-175 -84t-202.5 -27.5q-125 0 -249 34.5t-208 108.5l158 252q70 -59 145.5 -78.5t142.5 -19.5q49 0 91.5 12t73 37.5t49 67.5t18.5 104v86h-436v272 h436v41q0 61 -18.5 103.5t-49 68t-72.5 37.5t-87 12q-61 0 -124 -16t-134 -68z" />
<glyph unicode="&#x42e;" horiz-adv-x="1775" d="M1663 446q0 -117 -41 -202.5t-113.5 -143t-170 -86t-208.5 -28.5t-207 28.5t-168.5 86t-114.5 143.5t-42 202v125h-139v-571h-326v1411h326v-547h139v113q0 117 46 201t121 139t170 81.5t195 26.5t196.5 -28.5t171.5 -85t120 -142.5t45 -202v-521zM1335 905 q0 61 -17.5 103.5t-45 68t-65.5 37.5t-77 12q-41 0 -77.5 -12t-65.5 -37.5t-46 -67.5t-17 -104v-399q0 -61 17 -103.5t46 -68t66 -37.5t77 -12q39 0 77 12t65.5 37.5t45 67.5t17.5 104v399z" />
<glyph unicode="&#x42f;" horiz-adv-x="1312" d="M1190 1411v-1411h-326v535h-108q-90 0 -141.5 -32t-79.5 -136l-103 -367h-366l120 377q23 74 52.5 135t95.5 98q-63 20 -107.5 60.5t-71 91.5t-38 107.5t-11.5 107.5q0 78 26 155.5t79 139t137 100.5t199 39h643zM864 1120h-250q-92 0 -132 -44t-40 -115q0 -66 40 -104 t126 -38h256v301z" />
<glyph unicode="&#x430;" horiz-adv-x="1103" d="M698 78q-80 -47 -152.5 -66.5t-135.5 -19.5q-160 0 -244 83t-84 228q0 84 34 142.5t88 95.5t119.5 54t129.5 17h245v27q0 53 -32.5 87t-133.5 34q-49 0 -118.5 -13.5t-141.5 -70.5l-131 217q111 86 219.5 110.5t204.5 24.5q225 0 330.5 -101.5t105.5 -312.5v-614h-278 l-18 76zM700 399h-192q-39 0 -66.5 -14t-27.5 -57q0 -25 19.5 -45.5t68.5 -20.5q61 0 115.5 18.5t82.5 36.5v82z" />
<glyph unicode="&#x431;" horiz-adv-x="1079" d="M410 922q33 20 88 36.5t104 16.5q86 0 157.5 -22.5t125 -69.5t83 -122t29.5 -179v-207q0 -96 -37.5 -169t-101 -121t-147.5 -71.5t-176 -23.5q-98 0 -182.5 23.5t-143.5 71.5t-93 121t-34 169v223q0 123 9 220t29.5 173t55.5 134.5t84 105.5q70 66 159 108.5t181 77.5 q68 27 126 48.5t116 47.5l98 -239q-55 -23 -103.5 -41.5t-101.5 -40.5q-51 -18 -106.5 -42t-103.5 -54.5t-82.5 -71.5t-43.5 -98zM696 547q0 80 -47 114.5t-106 34.5q-57 0 -106.5 -39t-49.5 -118v-125q0 -80 46 -113t104 -33q27 0 55.5 8.5t52 24.5t37.5 44t14 69v133z" />
<glyph unicode="&#x432;" horiz-adv-x="1079" d="M840 530q66 -23 111.5 -80t45.5 -145q0 -133 -85 -219t-255 -86h-555v1014h549q166 0 246 -77t80 -194q0 -35 -12.5 -69.5t-32 -63t-44 -49t-48.5 -26.5v-5zM684 322q0 35 -23.5 59.5t-76.5 24.5h-181v-164h181q53 0 76.5 22.5t23.5 57.5zM674 700q0 70 -82 70h-189v-131 h189q41 0 61.5 17t20.5 44z" />
<glyph unicode="&#x433;" horiz-adv-x="897" d="M100 0v1014h797v-246h-498v-768h-299z" />
<glyph unicode="&#x434;" horiz-adv-x="1204" d="M770 770h-256l-10 -162q-2 -39 -6 -85t-12.5 -92t-20.5 -91t-31 -80h336v510zM1061 1014v-754h102v-528h-266v268h-610v-268h-267v528h84q33 27 53.5 64.5t34 82t20.5 94.5t11 101l31 412h807z" />
<glyph unicode="&#x435;" horiz-adv-x="1064" d="M983 424h-590v-12q0 -76 46 -111t106 -35q37 0 99.5 10.5t137.5 63.5l160 -207q-51 -47 -99 -74.5t-96.5 -43t-96.5 -20.5t-97 -5q-90 0 -174 22.5t-147.5 68.5t-101.5 117.5t-38 168.5v262q0 98 36 171.5t97.5 125t141 77t170.5 25.5q96 0 178 -26.5t141 -77t93 -125 t34 -172.5v-203zM680 625q0 61 -43 94t-98 33q-57 0 -101.5 -36t-44.5 -95v-9h287v13z" />
<glyph unicode="&#x436;" horiz-adv-x="1544" d="M612 0v397h-14q-37 0 -65.5 -4t-49 -18.5t-37 -41t-28.5 -71.5l-78 -262h-342l117 330q12 37 26.5 68.5t33 56t45 43t65.5 32.5q-66 29 -99.5 74t-60.5 117l-109 295h326l84 -215q29 -74 64.5 -104.5t101.5 -30.5h20v350h306v-350h20q66 0 101.5 30.5t64.5 104.5l84 215 h325l-108 -295q-27 -72 -60.5 -117t-99.5 -74q39 -14 65.5 -32.5t45 -43t33 -56t26.5 -68.5l117 -330h-342l-78 262q-12 45 -28.5 71.5t-37 41t-49 18.5t-65.5 4h-14v-397h-306z" />
<glyph unicode="&#x437;" horiz-adv-x="970" d="M510 1026q70 0 137.5 -16.5t119.5 -52t85 -92t33 -138.5q0 -66 -40 -117t-93 -86q63 -33 100 -89t37 -124q0 -86 -35 -146.5t-93.5 -100t-135 -58t-162.5 -18.5q-104 0 -219 28.5t-195 85.5l137 207q27 -20 61 -34.5t67.5 -24.5t65.5 -15.5t56 -5.5q80 0 117 23.5 t37 60.5q0 45 -30 66.5t-101 21.5h-150v220h142q59 0 95 22.5t36 61.5q0 43 -35 61t-80 18q-47 0 -111.5 -17t-117.5 -58l-136 202q80 59 189.5 87t218.5 28z" />
<glyph unicode="&#x438;" horiz-adv-x="1128" d="M717 537l-180 -275l-175 -262h-260v1014h301v-531h11l145 226l205 305h262v-1014h-299v537h-10z" />
<glyph unicode="&#x439;" horiz-adv-x="1128" d="M567 1149q-88 0 -147.5 34t-95 84t-53 107.5t-23.5 104.5h205q0 -20 7 -44t21.5 -45.5t36 -36t49.5 -14.5q29 0 50.5 14.5t36 36t21.5 45t7 44.5h205q-6 -47 -23.5 -104.5t-53.5 -107.5t-95.5 -84t-147.5 -34zM717 537l-180 -275l-175 -262h-260v1014h301v-531h11 l145 226l205 305h262v-1014h-299v537h-10z" />
<glyph unicode="&#x43a;" horiz-adv-x="1114" d="M102 0v1016h306v-350h41q66 0 111.5 30.5t74.5 104.5l84 215h325l-108 -295q-27 -72 -60.5 -117t-99.5 -74q39 -14 65.5 -32.5t45 -43t33 -56t26.5 -68.5l117 -330h-342l-78 262q-12 45 -31.5 71.5t-44 41t-56.5 18.5t-69 4h-34v-397h-306z" />
<glyph unicode="&#x43b;" horiz-adv-x="1085" d="M481 565q0 -129 -21.5 -233.5t-72.5 -181t-135 -122.5t-207 -55l-45 238q61 14 98 38.5t56.5 64.5t26.5 97.5t7 141.5v461h793v-1014h-301v764h-199v-199z" />
<glyph unicode="&#x43c;" horiz-adv-x="1341" d="M942 0v455l-172 -326h-201l-172 320v-449h-295v1014h271l299 -551l299 551h268v-1014h-297z" />
<glyph unicode="&#x43d;" horiz-adv-x="1120" d="M717 0v393h-320v-393h-295v1014h295v-375h320v375h301v-1014h-301z" />
<glyph unicode="&#x43e;" horiz-adv-x="1075" d="M993 383q0 -96 -32.5 -170t-93 -123t-144.5 -74.5t-184 -25.5q-213 0 -335 99t-122 294v254q0 96 36 170t98.5 123t145 74.5t177.5 25.5q211 0 332.5 -102.5t121.5 -296.5v-248zM692 616q0 80 -49 113t-104 33q-57 0 -106.5 -33t-49.5 -113v-213q0 -80 49 -112.5 t107 -32.5q55 0 104 33t49 112v213z" />
<glyph unicode="&#x43f;" horiz-adv-x="1118" d="M711 0v756h-305v-756h-304v1016h914v-1016h-305z" />
<glyph unicode="&#x440;" horiz-adv-x="1097" d="M1016 354q0 -82 -21.5 -149.5t-65.5 -116.5t-110.5 -75.5t-156.5 -26.5q-51 0 -124 10t-132 47v-449h-304v1422h275l20 -88q70 45 150 71.5t133 26.5q336 0 336 -375v-297zM711 623q0 74 -31 99.5t-72 25.5t-99 -21.5t-103 -50.5v-352q57 -29 100 -40.5t84 -11.5 q51 0 86 29t35 100v222z" />
<glyph unicode="&#x441;" horiz-adv-x="952" d="M922 152q-51 -53 -102.5 -85t-102.5 -49.5t-102.5 -22.5t-100.5 -5q-82 0 -157.5 21.5t-134 66.5t-94.5 114.5t-36 165.5v304q0 94 38 163.5t99.5 115.5t136 67.5t148.5 21.5q49 0 99.5 -4t101.5 -18.5t101 -44t99 -78.5l-172 -219q-72 63 -118.5 75.5t-79.5 12.5 q-55 0 -103.5 -34t-48.5 -112v-194q0 -80 45 -113t101 -33q37 0 93 18.5t109 71.5z" />
<glyph unicode="&#x442;" horiz-adv-x="868" d="M584 764v-764h-297v764h-277v250h850v-250h-276z" />
<glyph unicode="&#x443;" horiz-adv-x="1028" d="M190 -406l158 431l-47 32l-281 959h308l80 -352l73 -304h8l99 310l108 346h310l-521 -1422h-295z" />
<glyph unicode="&#x444;" horiz-adv-x="1376" d="M1294 426q0 -96 -32.5 -176t-92 -137.5t-143.5 -90t-186 -32.5v-398h-303v398q-102 0 -185.5 32.5t-144 90t-93 137.5t-32.5 176v164q0 193 120 307.5t335 124.5v387h303v-387q100 -4 184 -36t143.5 -88t93 -134t33.5 -174v-164zM383 446q0 -78 43 -127t111 -51v475 q-72 -2 -113 -49t-41 -125v-123zM840 268q74 2 113.5 51.5t39.5 126.5v123q0 78 -36.5 125t-116.5 49v-475z" />
<glyph unicode="&#x445;" horiz-adv-x="1062" d="M705 0l-175 293l-174 -293h-346l352 518l-337 498h342l163 -279l162 279h344l-338 -498l355 -518h-348z" />
<glyph unicode="&#x446;" horiz-adv-x="1136" d="M1008 1014v-754h100v-528h-266v268h-740v1014h295v-754h308v754h303z" />
<glyph unicode="&#x447;" horiz-adv-x="1073" d="M350 1012v-310q0 -121 164 -120q37 0 79 7t81 23v400h297v-1012h-297v381q-53 -18 -112.5 -28.5t-119.5 -10.5q-78 0 -148.5 17.5t-124.5 56.5t-86 100.5t-32 151.5v344h299z" />
<glyph unicode="&#x448;" horiz-adv-x="1560" d="M1458 1014v-1014h-1356v1014h299v-752h228v752h299v-752h227v752h303z" />
<glyph unicode="&#x449;" horiz-adv-x="1591" d="M1460 1014v-754h103v-528h-267v268h-1190v1014h300v-752h227v752h297v-752h229v752h301z" />
<glyph unicode="&#x44a;" horiz-adv-x="1253" d="M631 244h190q59 0 85 25.5t26 60.5t-25.5 61.5t-85.5 26.5h-190v-174zM334 0v774h-316v240h613v-357h219q176 0 274.5 -87t98.5 -240q0 -57 -18.5 -115.5t-61.5 -107t-112.5 -78t-170.5 -29.5h-526z" />
<glyph unicode="&#x44b;" horiz-adv-x="1492" d="M1077 0v1014h303v-1014h-303zM399 244h191q59 0 84.5 25.5t25.5 60.5t-25.5 61.5t-84.5 26.5h-191v-174zM102 0v1014h297v-357h219q176 0 274.5 -87t98.5 -240q0 -57 -18.5 -115.5t-61.5 -107t-112.5 -78t-169.5 -29.5h-527z" />
<glyph unicode="&#x44c;" horiz-adv-x="1021" d="M403 244h191q59 0 85 25.5t26 60.5t-26 61.5t-85 26.5h-191v-174zM106 0v1014h297v-357h220q176 0 274 -87t98 -240q0 -57 -18.5 -115.5t-61.5 -107t-112.5 -78t-169.5 -29.5h-527z" />
<glyph unicode="&#x44d;" horiz-adv-x="940" d="M63 897q47 41 98.5 66.5t101.5 39t96.5 18.5t82.5 5q88 0 163 -21.5t128 -66.5t84 -114.5t31 -166.5v-295q0 -96 -36 -165.5t-94.5 -115.5t-134 -68.5t-157.5 -22.5q-49 0 -99.5 4t-101.5 18.5t-101 44t-99 78.5l163 215q37 -31 68 -48t56.5 -25.5t46 -9.5t36.5 -1 q63 0 107.5 34t44.5 112v2h-281v209h279q-6 68 -43 96.5t-88 28.5q-35 0 -90.5 -13.5t-106.5 -60.5z" />
<glyph unicode="&#x44e;" horiz-adv-x="1462" d="M1380 356q0 -86 -33.5 -153.5t-93 -115.5t-138.5 -72.5t-169 -24.5q-92 0 -172 25.5t-139.5 74.5t-93 117.5t-33.5 154.5v31h-100v-393h-295v1014h295v-375h100v27q0 86 37 153.5t98.5 114.5t140 71.5t162.5 24.5q82 0 161 -24.5t139.5 -70.5t97 -113.5t36.5 -151.5v-314 zM1083 627q0 72 -42 103.5t-95 31.5t-97 -32t-44 -103v-232q0 -72 44 -104.5t97 -32.5t95 33t42 104v232z" />
<glyph unicode="&#x44f;" horiz-adv-x="1077" d="M975 1014v-1014h-303v367h-56q-35 0 -62.5 -4.5t-49 -18.5t-37.5 -39.5t-29 -71.5l-63 -233h-316l93 301q14 47 36.5 78t63.5 47q-47 14 -78 45t-49.5 69t-25.5 77.5t-7 74.5q0 57 19.5 114.5t62.5 103.5t112.5 75t168.5 29h520zM672 768h-174q-49 0 -75 -23.5t-26 -58.5 t22.5 -56.5t78.5 -21.5h174v160z" />
<glyph unicode="&#x451;" horiz-adv-x="1064" d="M983 424h-590v-12q0 -76 46 -111t106 -35q37 0 99.5 10.5t137.5 63.5l160 -207q-51 -47 -99 -74.5t-96.5 -43t-96.5 -20.5t-97 -5q-90 0 -174 22.5t-147.5 68.5t-101.5 117.5t-38 168.5v262q0 98 36 171.5t97.5 125t141 77t170.5 25.5q96 0 178 -26.5t141 -77t93 -125 t34 -172.5v-203zM680 625q0 61 -43 94t-98 33q-57 0 -101.5 -36t-44.5 -95v-9h287v13zM588 1282q0 66 47 112t113 46t111.5 -46t45.5 -112t-46 -113t-111 -47q-66 0 -113 47t-47 113zM182 1282q0 66 46 112t112 46t113 -46t47 -112t-47 -113t-113 -47t-112 47t-46 113z" />
<glyph unicode="&#x452;" horiz-adv-x="1136" d="M1044 213q0 -104 -34.5 -181t-96 -126t-144.5 -72.5t-177 -23.5v258q68 0 108.5 32.5t40.5 112.5l-2 403q0 70 -35.5 96.5t-74.5 26.5q-41 0 -85 -14t-118 -61v-664h-303v1143h-103v190h103v133h303v-133h344v-190h-344v-211q102 63 177 78.5t126 15.5q88 0 148.5 -27.5 t97.5 -77t53 -117t16 -149.5v-442z" />
<glyph unicode="&#x453;" horiz-adv-x="897" d="M315 1161l174 416l273 -88l-277 -389zM100 0v1014h797v-246h-498v-768h-299z" />
<glyph unicode="&#x454;" horiz-adv-x="952" d="M733 670q-68 57 -113 68.5t-75 11.5q-51 0 -95 -25t-55 -94h250v-232h-252q4 -72 48 -101.5t98 -29.5q37 0 93 18.5t109 71.5l181 -206q-51 -53 -102.5 -85t-102.5 -49.5t-102.5 -22.5t-100.5 -5q-82 0 -157.5 21.5t-134 66.5t-94.5 114.5t-36 165.5v299q0 94 38 164 t99.5 116t136 67.5t148.5 21.5q47 0 95 -3t96.5 -16.5t96.5 -39t95 -68.5z" />
<glyph unicode="&#x455;" horiz-adv-x="968" d="M492 -10q-51 0 -104.5 5t-110 20.5t-115 46t-117.5 83.5l160 215q78 -63 140.5 -86.5t133.5 -23.5q66 0 99.5 19.5t33.5 45.5q0 25 -17 44.5t-87 31.5q-66 12 -138.5 27.5t-134 47.5t-101.5 85t-40 143q0 84 34 145.5t89 102.5t124 61.5t140 20.5q113 0 212.5 -21.5 t203.5 -99.5l-141 -227q-82 55 -145.5 69.5t-121.5 14.5q-57 0 -76.5 -18.5t-19.5 -39.5q0 -31 40 -44t98.5 -23t128 -24.5t128 -46.5t98.5 -90t40 -155q0 -82 -36 -143t-96.5 -103t-139 -62.5t-162.5 -20.5z" />
<glyph unicode="&#x456;" horiz-adv-x="579" d="M139 0v1016h303v-1016h-303zM123 1276q0 70 48 118t118 48t119 -48t49 -118q0 -72 -49.5 -120t-118.5 -48q-70 0 -118 48t-48 120z" />
<glyph unicode="&#x457;" horiz-adv-x="579" d="M342 1268q0 66 47 111.5t113 45.5t111.5 -46t45.5 -111q0 -66 -46 -113t-111 -47q-66 0 -113 47t-47 113zM-63 1268q0 66 46 111.5t111 45.5q66 0 113 -46t47 -111q0 -66 -47 -113t-113 -47t-111.5 47t-45.5 113zM139 0v1010h303v-1010h-303z" />
<glyph unicode="&#x458;" horiz-adv-x="585" d="M442 -106q0 -68 -25.5 -124.5t-70.5 -96.5t-107.5 -61.5t-134.5 -21.5h-122v254h59q31 0 50.5 10.5t29.5 25t14 31.5t4 32v1073h303v-1122zM125 1276q0 70 48 118t118 48t119 -48t49 -118q0 -72 -49.5 -120t-118.5 -48q-70 0 -118 48t-48 120z" />
<glyph unicode="&#x459;" horiz-adv-x="1599" d="M967 1014v-357h219q176 0 274.5 -87t98.5 -240q0 -57 -18.5 -115.5t-61.5 -107t-113 -78t-170 -29.5h-526v768h-168l2 -203q0 -129 -21.5 -233.5t-73 -181t-135.5 -122.5t-206 -55l-45 238q61 14 98 38.5t56.5 64.5t26.5 97.5t7 141.5v461h756zM967 244h190q59 0 85 25.5 t26 60.5t-25.5 61.5t-85.5 26.5h-190v-174z" />
<glyph unicode="&#x45a;" horiz-adv-x="1548" d="M920 1014v-357h219q176 0 274 -87t98 -240q0 -57 -18 -115.5t-61 -107t-113 -78t-170 -29.5h-526v403h-226v-403h-295v1014h295v-367h226v367h297zM920 244h190q59 0 85 25.5t26 60.5t-26 61.5t-85 26.5h-190v-174z" />
<glyph unicode="&#x45b;" horiz-adv-x="1136" d="M739 0v616q0 70 -35.5 96.5t-74.5 26.5q-41 0 -85 -14t-118 -61v-664h-303v1143h-103v190h103v133h303v-133h344v-190h-344v-211q102 63 177 78.5t126 15.5q88 0 148.5 -27.5t97.5 -77t53 -117t16 -149.5v-655h-305z" />
<glyph unicode="&#x45c;" horiz-adv-x="1114" d="M418 1161l174 416l272 -88l-276 -389zM102 0v1016h306v-350h41q66 0 111.5 30.5t74.5 104.5l84 215h325l-108 -295q-27 -72 -60.5 -117t-99.5 -74q39 -14 65.5 -32.5t45 -43t33 -56t26.5 -68.5l117 -330h-342l-78 262q-12 45 -31.5 71.5t-44 41t-56.5 18.5t-69 4h-34 v-397h-306z" />
<glyph unicode="&#x45e;" horiz-adv-x="1028" d="M190 -406l158 431l-47 32l-281 959h308l80 -352l73 -304h8l99 310l108 346h310l-521 -1422h-295zM512 1149q-88 0 -147.5 34t-95.5 84t-53 107.5t-23 104.5h204q0 -20 7.5 -44t21.5 -45.5t35.5 -36t50.5 -14.5t50.5 14.5t35.5 36t21.5 45t7.5 44.5h204q-6 -47 -23 -104.5 t-53 -107.5t-95.5 -84t-147.5 -34z" />
<glyph unicode="&#x45f;" horiz-adv-x="1110" d="M420 0h-318v1014h295v-770h310v770h301v-1014h-320v-311h-268v311z" />
<glyph unicode="&#x490;" horiz-adv-x="1159" d="M1122 1120h-659v-1120h-326v1411h737v270h248v-561z" />
<glyph unicode="&#x491;" horiz-adv-x="897" d="M399 768v-768h-299v1014h576v221h215v-467h-492z" />
<glyph unicode="&#x4d9;" horiz-adv-x="1091" d="M98 592h590v12q0 145 -151 146q-37 0 -99.5 -10.5t-138.5 -63.5l-147 211q51 47 103 74.5t105.5 42t106.5 18.5t102 4q90 0 167 -22.5t133.5 -68.5t88 -118t31.5 -168v-258q0 -98 -35.5 -172t-97 -125t-142.5 -76.5t-169 -25.5q-96 0 -178 26.5t-141.5 76.5t-93.5 125 t-34 173v199zM401 395q0 -61 43 -94t99 -33q57 0 101 36t44 95v9h-287v-13z" />
<glyph unicode="&#x2000;" horiz-adv-x="957" />
<glyph unicode="&#x2001;" horiz-adv-x="1915" />
<glyph unicode="&#x2002;" horiz-adv-x="957" />
<glyph unicode="&#x2003;" horiz-adv-x="1915" />
<glyph unicode="&#x2004;" horiz-adv-x="638" />
<glyph unicode="&#x2005;" horiz-adv-x="478" />
<glyph unicode="&#x2006;" horiz-adv-x="319" />
<glyph unicode="&#x2007;" horiz-adv-x="319" />
<glyph unicode="&#x2008;" horiz-adv-x="239" />
<glyph unicode="&#x2009;" horiz-adv-x="383" />
<glyph unicode="&#x200a;" horiz-adv-x="106" />
<glyph unicode="&#x2010;" horiz-adv-x="901" d="M96 393v269h709v-269h-709z" />
<glyph unicode="&#x2011;" horiz-adv-x="901" d="M96 393v269h709v-269h-709z" />
<glyph unicode="&#x2012;" horiz-adv-x="901" d="M96 393v269h709v-269h-709z" />
<glyph unicode="&#x2013;" horiz-adv-x="1075" d="M41 449v253h993v-253h-993z" />
<glyph unicode="&#x2014;" horiz-adv-x="2150" d="M41 449v253h2068v-253h-2068z" />
<glyph unicode="&#x2018;" horiz-adv-x="624" d="M514 1421q-55 -41 -90 -95t-43 -99q49 -10 87 -53.5t38 -112.5q0 -39 -15.5 -72t-41 -57.5t-59.5 -37.5t-68 -13q-92 0 -146.5 63.5t-54.5 167.5q0 63 19.5 129t56 125t91 110.5t122.5 88.5z" />
<glyph unicode="&#x2019;" horiz-adv-x="624" d="M121 1024q55 41 90 95.5t43 99.5q-49 10 -87 53t-38 112q0 39 15.5 72t41 57.5t59.5 38t68 13.5q92 0 146.5 -63.5t54.5 -168.5q0 -66 -19.5 -130t-56.5 -123.5t-91 -110.5t-122 -88z" />
<glyph unicode="&#x201a;" horiz-adv-x="645" d="M143 -201q55 41 90 95.5t43 99.5q-49 10 -86.5 53t-37.5 113q0 39 15 71.5t40.5 57t59.5 38t69 13.5q92 0 146.5 -63.5t54.5 -167.5q0 -66 -19.5 -130.5t-56.5 -124t-91.5 -110.5t-121.5 -88z" />
<glyph unicode="&#x201c;" horiz-adv-x="1075" d="M514 1421q-55 -41 -90 -95t-43 -99q49 -10 87 -53.5t38 -112.5q0 -39 -15.5 -72t-41 -57.5t-59.5 -37.5t-68 -13q-92 0 -146.5 63.5t-54.5 167.5q0 63 19.5 129t56 125t91 110.5t122.5 88.5zM950 1421q-55 -41 -90 -95t-43 -99q49 -10 87 -53.5t38 -112.5 q0 -39 -15.5 -72t-41 -57.5t-59 -37.5t-68.5 -13q-92 0 -146.5 63.5t-54.5 167.5q0 63 19.5 129t56.5 125t91 110.5t122 88.5z" />
<glyph unicode="&#x201d;" horiz-adv-x="1075" d="M559 1024q55 41 90 95.5t43 99.5q-49 10 -87 53t-38 112q0 39 15.5 72t41 57.5t59.5 38t69 13.5q92 0 146 -63.5t54 -168.5q0 -66 -19.5 -130t-56 -123.5t-91 -110.5t-121.5 -88zM123 1024q55 41 90 95.5t43 99.5q-49 10 -87 53t-38 112q0 39 15.5 72t41 57.5t59.5 38 t68 13.5q92 0 146.5 -63.5t54.5 -168.5q0 -66 -19.5 -130t-56.5 -123.5t-91 -110.5t-122 -88z" />
<glyph unicode="&#x201e;" horiz-adv-x="1179" d="M143 -201q55 41 90 95.5t43 99.5q-49 10 -86.5 53t-37.5 113q0 39 15 71.5t40.5 57t59.5 38t69 13.5q92 0 146.5 -63.5t54.5 -167.5q0 -66 -19.5 -130.5t-56.5 -124t-91.5 -110.5t-121.5 -88zM657 -201q55 41 90 95.5t44 99.5q-49 10 -87 53t-38 113q0 39 15 71.5t41 57 t59.5 38t68.5 13.5q92 0 146.5 -63.5t54.5 -167.5q0 -66 -19.5 -130.5t-56.5 -124t-91.5 -110.5t-121.5 -88z" />
<glyph unicode="&#x2026;" horiz-adv-x="1974" d="M336 -14q-78 0 -131 54t-53 132q0 39 14 71.5t38.5 57.5t57.5 38t70 13t69.5 -13t58 -38t40 -57.5t14.5 -71.5q0 -76 -48 -131t-130 -55zM1012 -14q-78 0 -131.5 54t-53.5 132q0 39 14.5 71.5t39 57.5t57.5 38t70 13t69.5 -13t58 -38t40 -57.5t14.5 -71.5q0 -76 -48 -131 t-130 -55zM1647 -14q-78 0 -131.5 54t-53.5 132q0 39 14.5 71.5t39 57.5t57.5 38t69 13q37 0 70 -13t58.5 -38t40 -57.5t14.5 -71.5q0 -76 -48 -131t-130 -55z" />
<glyph unicode="&#x202f;" horiz-adv-x="383" />
<glyph unicode="&#x2039;" horiz-adv-x="827" d="M393 20l-299 439l299 438h287l-293 -438l293 -439h-287z" />
<glyph unicode="&#x203a;" horiz-adv-x="827" d="M94 20l293 439l-293 438h287l299 -438l-299 -439h-287z" />
<glyph unicode="&#x205f;" horiz-adv-x="478" />
<glyph unicode="&#x20ac;" d="M51 743v189h94v37q0 117 48.5 201.5t126 141t175 84t197.5 27.5q109 0 215.5 -25.5t188.5 -80.5l-146 -262q-61 43 -124.5 57t-123.5 14q-37 0 -75.5 -10t-71.5 -33.5t-55.5 -60.5t-28.5 -90h391v-189h-811zM862 672v-189h-391q4 -55 26.5 -93t56.5 -61.5t73 -33.5 t78 -10q61 0 123.5 17t134.5 65l151 -258q-86 -59 -192.5 -91t-223.5 -32q-98 0 -197.5 26.5t-178 82t-128 140t-49.5 201.5v47h-94v189h811z" />
<glyph unicode="&#x2122;" horiz-adv-x="1947" d="M518 545h-205v667h-241v197h688v-197h-242v-667zM1550 958l-90 -155l-80 -141h-153l-82 145l-84 149h-6v-411h-205v864h188l150 -281l112 -204h11l114 211l146 274h188v-864h-205v413h-4z" />
<glyph unicode="&#x25fc;" horiz-adv-x="1013" d="M0 1014h1014v-1014h-1014v1014z" />
</font>
</defs>
</svg>
