<?xml version="1.0" standalone="no"?>
<!DOCTYPE svg PUBLIC "-//W3C//DTD SVG 1.1//EN" "http://www.w3.org/Graphics/SVG/1.1/DTD/svg11.dtd" >
<svg xmlns="http://www.w3.org/2000/svg">
<metadata></metadata>
<defs>
<font id="pf_dindisplay_probold_italic" horiz-adv-x="1093" >
<font-face units-per-em="2048" ascent="1536" descent="-512" />
<missing-glyph horiz-adv-x="520" />
<glyph horiz-adv-x="0" />
<glyph unicode="&#xd;" horiz-adv-x="681" />
<glyph unicode=" "  horiz-adv-x="520" />
<glyph unicode="&#x09;" horiz-adv-x="520" />
<glyph unicode="&#xa0;" horiz-adv-x="520" />
<glyph unicode="!" horiz-adv-x="544" d="M158 424l180 1001h256l-211 -1001h-225zM188 -14q-61 0 -98 37.5t-37 95.5q0 37 16.5 71.5t43 61.5t62.5 43t73 16q59 0 97 -35.5t38 -93.5q0 -37 -15.5 -72.5t-42 -63.5t-62.5 -44t-75 -16z" />
<glyph unicode="&#x22;" horiz-adv-x="710" d="M594 1425h207l-84 -438h-207zM301 1425h211l-86 -438h-209z" />
<glyph unicode="#" horiz-adv-x="1122" d="M874 610h181l-37 -192h-207l-137 -418h-217l137 418h-168l-137 -418h-219l139 418h-168l37 192h196l70 209h-172l39 193h199l139 413h211l-137 -413h174l139 413h211l-137 -413h178l-37 -193h-205zM489 610h173l69 209h-172z" />
<glyph unicode="$" d="M377 12q-115 10 -211 58.5t-178 130.5q8 10 31.5 38.5t50 60.5t51 61.5t33.5 39.5q80 -74 173 -114.5t187 -40.5q109 0 176.5 42t67.5 130q0 39 -18.5 65.5t-51.5 46t-79 36t-103 34.5q-47 14 -103.5 38t-105.5 63.5t-82 99t-33 145.5q0 106 40 187t104.5 137.5 t146.5 88.5t168 38q2 10 7 36.5t11.5 55.5t11.5 55.5t7 38.5h172l-37 -178q98 -8 189.5 -44t168.5 -106q-8 -10 -33.5 -40.5t-54 -64.5t-54 -63.5t-34.5 -39.5q-72 63 -152.5 87.5t-146.5 24.5q-33 0 -72.5 -9t-75.5 -30.5t-59.5 -54.5t-23.5 -82q0 -37 27.5 -63.5t67.5 -47 t84 -34t75 -21.5q53 -14 111.5 -37.5t107.5 -64.5t81 -102.5t32 -151.5q0 -96 -35 -176t-99.5 -138.5t-157.5 -93.5t-210 -41q0 -12 -5 -43.5t-12.5 -67.5t-14.5 -68t-9 -44h-174l43 223v0z" />
<glyph unicode="%" horiz-adv-x="1751" d="M1622 227q-23 -119 -103.5 -176t-205.5 -57q-47 0 -96.5 14.5t-90.5 43t-66.5 72.5t-25.5 103q0 12 1 24.5t3 24.5l64 334q23 117 99.5 179.5t207.5 62.5q55 0 105.5 -16.5t88 -47t60.5 -74.5t23 -100q0 -27 -7 -53zM1495 569q2 8 2 21q0 41 -28.5 65.5t-65.5 24.5 t-68.5 -22.5t-42.5 -73.5l-59 -316q-2 -8 -2 -22q0 -45 31.5 -63.5t64.5 -18.5q35 0 66.5 21.5t42.5 70.5zM776 793q-23 -119 -103.5 -175.5t-205.5 -56.5q-47 0 -96 14.5t-90 43t-67 72.5t-26 104q0 12 1 24t4 25l63 334q23 117 99.5 179t207.5 62q55 0 105.5 -16.5 t88.5 -47t60.5 -74.5t22.5 -99q0 -27 -6 -54zM649 1137q2 8 2 20q0 41 -27.5 65.5t-66.5 24.5q-37 0 -68.5 -22.5t-42.5 -73.5l-59 -315q-2 -8 -2 -23q0 -45 32 -63.5t64 -18.5q37 0 68 21.5t41 70.5zM453 -35h-185l1162 1495h186z" />
<glyph unicode="&#x26;" horiz-adv-x="1673" d="M1083 1669q156 0 270.5 -46t190.5 -127t114 -188.5t38 -230.5q0 -229 -109.5 -445t-304.5 -384q113 -123 268 -199l-135 -180q-41 16 -87 44t-90 60.5t-84 69.5t-67 74q-39 -29 -91 -52.5t-110.5 -41t-118.5 -26.5t-114 -9q-166 0 -262 82t-96 237q0 86 31.5 162 t85 139.5t124 115.5t148.5 93q-20 43 -31.5 86t-11.5 86q0 80 29.5 149.5t80 120t119 80t148.5 29.5q123 0 195.5 -66.5t72.5 -171.5q0 -72 -26.5 -130t-69.5 -106t-98.5 -87t-110.5 -70q41 -86 88 -172t100 -172q147 135 230.5 304t83.5 345q0 88 -19.5 166t-67.5 137.5 t-129 94.5t-204 35q-145 0 -262 -43t-198 -120t-124 -183.5t-43 -231.5q0 -23 3 -52.5t7 -66.5l-208 -47q-8 47 -10.5 86t-2.5 72q0 172 67.5 315.5t184.5 246.5t272.5 160.5t333.5 57.5zM979 1165q-25 0 -44.5 -12t-32.5 -30.5t-21.5 -42t-8.5 -46.5q0 -27 9.5 -55.5 t23.5 -58.5q66 33 112 73.5t46 98.5q0 31 -21.5 52t-62.5 21zM979 266q-29 37 -58.5 86t-57 100.5t-51.5 100.5t-38 88q-55 -29 -103 -60.5t-82 -67.5t-53.5 -78t-19.5 -93q0 -80 50 -121t130 -41q61 0 134 21.5t149 64.5z" />
<glyph unicode="'" horiz-adv-x="534" d="M360 1425h209l-84 -438h-211z" />
<glyph unicode="(" horiz-adv-x="702" d="M391 -276q-111 152 -179.5 332t-68.5 378q0 162 49.5 312.5t131.5 287.5t188 259t221 227l129 -95q-96 -102 -179 -220t-144.5 -248t-96 -268t-34.5 -279q0 -147 36.5 -296t110.5 -282z" />
<glyph unicode=")" horiz-adv-x="702" d="M-43 -168q94 98 177 215t145.5 244t98.5 264t36 276q0 147 -34 300t-112 294l164 95q111 -150 178.5 -325t67.5 -374q0 -164 -50 -316.5t-134 -290.5t-191.5 -262t-224.5 -228z" />
<glyph unicode="*" horiz-adv-x="880" d="M815 852q-6 -4 -32.5 -21.5t-59.5 -37t-60.5 -37t-33.5 -21.5l-82 211l-170 -211q-4 2 -24.5 19.5t-45 38t-45 38t-22.5 21.5l200 184l-221 56q2 6 15.5 33.5t30 58t29.5 58.5t17 34l209 -96q0 10 3 46t7.5 76.5t7.5 76.5t5 46h200l-73 -245l243 96q0 -6 4.5 -32.5 t7.5 -59.5t6 -59.5t3 -32.5l-246 -56z" />
<glyph unicode="+" d="M668 506l-74 -385h-215l76 385h-396l41 203h396l71 381h213l-71 -381h393l-41 -203h-393z" />
<glyph unicode="," horiz-adv-x="600" d="M12 -199q61 39 104.5 90.5t59.5 100.5q-39 8 -63.5 37.5t-24.5 76.5q0 39 13.5 75t38 62.5t58 42t76.5 15.5q68 0 111 -50t43 -130q0 -61 -25.5 -125t-71.5 -122t-109.5 -108.5t-141.5 -87.5z" />
<glyph unicode="-" horiz-adv-x="839" d="M141 649h645l-45 -231h-647z" />
<glyph unicode="." horiz-adv-x="589" d="M213 -14q-59 0 -95 36.5t-36 94.5q0 37 15.5 71.5t41 62.5t60 44t75.5 16q59 0 97.5 -35.5t38.5 -93.5q0 -37 -15.5 -72.5t-42 -63.5t-62.5 -44t-77 -16z" />
<glyph unicode="/" horiz-adv-x="718" d="M84 -86h-205l819 1571h209z" />
<glyph unicode="0" d="M985 375q-18 -102 -61 -175t-104.5 -120t-140.5 -68.5t-169 -21.5q-74 0 -146.5 19.5t-132 61.5t-96.5 108.5t-37 160.5q0 23 3 47.5t8 52.5l118 600q39 193 162 289t318 96q70 0 140.5 -20.5t127.5 -63.5t93 -110.5t36 -159.5q0 -18 -1 -37.5t-5 -40.5zM838 981 q4 10 4 21.5v21.5q0 39 -14.5 66.5t-38 46t-52 28t-57.5 9.5q-76 0 -130 -44.5t-75 -144.5l-108 -559q-2 -12 -3.5 -22.5t-1.5 -20.5q0 -41 14.5 -68.5t38 -44t52.5 -24.5t57 -8q78 0 132.5 40.5t72.5 139.5z" />
<glyph unicode="1" d="M401 0l209 1073l-164 -119l-110 187l362 270h238l-274 -1411h-261z" />
<glyph unicode="2" d="M727 1425q72 0 142.5 -16t126 -53t90 -97.5t34.5 -148.5q0 -90 -32.5 -166t-86 -139.5t-119 -113.5t-132.5 -91q-68 -41 -133.5 -83t-121 -87t-96.5 -94t-59 -105h612q-10 -59 -21 -116.5t-24 -114.5h-882q27 143 62.5 246.5t87.5 183.5t125 143.5t173 126.5 q68 43 134.5 84t118.5 84t85 87t33 94q0 59 -50.5 93t-121.5 34q-72 0 -147.5 -26t-143.5 -77q-25 53 -50.5 104.5t-47.5 104.5q92 68 206.5 105.5t237.5 37.5z" />
<glyph unicode="3" d="M705 1425q76 0 144.5 -18t120.5 -58t83.5 -101.5t31.5 -147.5q0 -131 -72.5 -226.5t-178.5 -148.5q72 -35 105.5 -101.5t33.5 -152.5q0 -127 -46 -218t-121 -150.5t-170 -88t-194 -28.5q-125 0 -239.5 37.5t-177.5 107.5q6 6 31.5 37t56 66.5t56.5 66.5t32 37 q47 -49 118.5 -77t137.5 -28q117 0 185.5 59.5t68.5 164.5q0 66 -44 106.5t-118 40.5h-164l43 223h160q37 0 75.5 13.5t71.5 40t53.5 66.5t20.5 91q0 39 -16.5 65.5t-42 42t-55 23t-56.5 7.5q-68 0 -142.5 -27t-140.5 -78q-4 6 -19 38t-33.5 67.5t-34 66.5t-17.5 37 q90 70 208 107.5t245 37.5z" />
<glyph unicode="4" d="M879 203l-37 -203h-264l38 203h-587l39 211l647 997h276l-629 -975h300l77 404h265l-78 -404h114l-43 -233h-118z" />
<glyph unicode="5" d="M993 379q-39 -203 -170 -296t-338 -93q-127 0 -234.5 44t-178.5 109l170 201q59 -59 126.5 -82.5t135.5 -23.5q96 0 154.5 40.5t74.5 133.5l29 157q4 10 4 20.5v20.5q0 53 -28.5 77t-73.5 24q-29 0 -64 -10.5t-69.5 -24.5t-64.5 -30.5t-48 -29.5l-207 119l127 676h807 l-45 -235h-545l-53 -277q68 35 129 55.5t112 20.5q141 0 218 -81t77 -212q0 -47 -8 -88l-37 -215v0z" />
<glyph unicode="6" d="M985 375q-20 -100 -66.5 -173t-112 -120t-146 -69.5t-168.5 -22.5q-78 0 -149 21.5t-124 64.5t-84 105.5t-31 146.5q0 23 2.5 45t6.5 47l118 614q18 98 64.5 171t112 122t148.5 73.5t175 24.5q127 0 233.5 -36.5t170.5 -108.5l-162 -207q-53 55 -120 79t-136 24 q-37 0 -74 -10.5t-68.5 -32t-56 -55.5t-33.5 -81l-28 -151q100 45 164.5 63.5t117.5 18.5q145 0 217 -79t72 -204q0 -41 -10 -98zM752 528q6 25 6 45q0 57 -32 81t-73 24q-51 0 -110.5 -22.5t-132.5 -57.5l-37 -178q-2 -12 -3 -22.5t-1 -20.5q0 -76 47 -107.5t104 -31.5 q72 0 132.5 42t78.5 140z" />
<glyph unicode="7" d="M416 0h-281l709 1176h-338l-39 -205h-244l84 440h879l-41 -219z" />
<glyph unicode="8" d="M735 1425q70 0 137.5 -21.5t121 -64.5t86 -108.5t32.5 -153.5q0 -137 -57.5 -223t-149.5 -133q57 -31 94 -94.5t37 -147.5q0 -117 -44 -208t-117.5 -153.5t-171 -95t-203.5 -32.5q-78 0 -152 20.5t-130 62.5t-90 106.5t-34 154.5q0 78 22.5 141.5t58.5 112.5t81 83t92 54 q-51 35 -80.5 93.5t-29.5 129.5q0 117 43 206t112.5 149.5t159.5 91t182 30.5zM702 1176q-39 0 -76.5 -14.5t-66.5 -41t-47 -64.5t-18 -87q0 -68 44 -101.5t103 -33.5q35 0 72 13t66.5 37.5t49 61.5t19.5 84q0 68 -44.5 107t-101.5 39zM598 582q-39 0 -80 -14.5t-73.5 -41 t-53 -66.5t-20.5 -89q0 -66 46 -99.5t111 -33.5q41 0 81 13t73 39.5t52.5 65.5t19.5 93q0 61 -45 97t-111 36z" />
<glyph unicode="9" d="M233 1042q18 98 65.5 171t113 120t145.5 70.5t168 23.5q80 0 150.5 -21.5t124 -63.5t85 -104t31.5 -144q0 -45 -8 -86l-123 -627q-39 -201 -168 -295t-328 -94q-129 0 -235.5 37t-171.5 108l166 207q53 -53 117.5 -77.5t132.5 -24.5q39 0 76.5 10t69.5 31.5t55.5 55.5 t31.5 81l29 153q-51 -23 -91 -39t-73 -25t-61.5 -13t-55.5 -4q-143 0 -216 78.5t-73 203.5q0 25 3.5 48.5t7.5 49.5zM463 891q-2 -10 -3 -20.5t-1 -20.5q0 -59 31.5 -84t72.5 -25q53 0 112.5 22.5t131.5 57.5l35 176q6 25 6 47q0 74 -47 104t-103 30q-72 0 -132 -42 t-81 -139z" />
<glyph unicode=":" horiz-adv-x="645" d="M348 569q-59 0 -96 36t-37 91q0 39 15.5 75t41 63.5t60.5 44t76 16.5q59 0 97 -37t38 -94q0 -37 -15.5 -73t-41 -62.5t-61.5 -43t-77 -16.5zM236 -14q-59 0 -96.5 36.5t-37.5 94.5q0 37 15.5 71.5t41 62.5t60.5 44t76 16q59 0 97 -35.5t38 -93.5q0 -37 -15.5 -72.5 t-42 -63.5t-62 -44t-74.5 -16z" />
<glyph unicode=";" horiz-adv-x="600" d="M334 569q-59 0 -97 36t-38 91q0 39 15 75t42 63.5t62.5 44t74.5 16.5q59 0 96 -36t37 -93q0 -37 -14 -73t-40 -63.5t-61.5 -44t-76.5 -16.5zM-6 -199q61 39 103 90.5t59 100.5q-37 8 -61.5 36.5t-24.5 73.5q0 39 15 76t43 63.5t62.5 43t75.5 16.5q72 0 108 -41t36 -106 q0 -70 -28 -140.5t-75 -133t-110.5 -116t-135.5 -86.5z" />
<glyph unicode="&#x3c;" d="M70 510l36 197l1063 442l-45 -236l-764 -313l644 -313l-43 -221z" />
<glyph unicode="=" d="M102 731l39 199h1004l-39 -199h-1004zM16 287l39 198h1004l-39 -198h-1004z" />
<glyph unicode="&#x3e;" d="M-2 66l43 237l764 313l-643 314l47 219l889 -442l-37 -197z" />
<glyph unicode="?" horiz-adv-x="1001" d="M670 1436q82 0 150.5 -23.5t118.5 -66.5t77.5 -102.5t27.5 -129.5q0 -72 -32.5 -136.5t-85.5 -133.5q-39 -53 -82 -95t-82 -84t-68.5 -89.5t-42.5 -110.5l-10 -49h-264l8 49q10 61 30.5 110.5t53.5 95.5t75 94t95 105q35 35 65.5 89.5t30.5 107.5t-34.5 84t-112.5 31 q-63 0 -133 -26t-138 -75l-94 215q98 72 214 106t233 34zM438 -14q-61 0 -97 37.5t-36 95.5q0 37 16.5 71.5t43 61.5t61.5 43t72 16q59 0 97 -36.5t38 -90.5q0 -39 -15.5 -74.5t-42 -63.5t-62.5 -44t-75 -16z" />
<glyph unicode="@" horiz-adv-x="1773" d="M799 328q-117 0 -175.5 61.5t-58.5 159.5q0 33 6 67l45 236q55 291 318 291q41 0 98.5 -19.5t118.5 -58.5l31 68h188l-106 -549q-2 -8 -2 -15.5v-13.5q0 -33 16 -48t45 -15t72 18t83 64.5t67.5 123t27.5 191.5q0 92 -32 171t-92 137t-149.5 91t-203.5 33 q-166 0 -304.5 -56.5t-237.5 -152.5t-153.5 -222t-54.5 -263q0 -219 122 -340t361 -121q53 0 123 13.5t160 43.5l45 -172q-92 -41 -182 -53t-168 -12q-154 0 -274.5 46t-204.5 130t-128 199.5t-44 256.5q0 186 71.5 348t197.5 281t299 187.5t374 68.5q164 0 288.5 -46 t209.5 -126t128 -187.5t43 -232.5q0 -133 -34.5 -244.5t-98 -192.5t-153.5 -127t-203 -46q-59 0 -117.5 26.5t-87.5 82.5q-72 -35 -146.5 -58.5t-127.5 -23.5zM782 643q-2 -10 -3 -18.5t-1 -18.5q0 -82 84 -82q39 0 91.5 21.5t105.5 50.5l57 295q-16 12 -37.5 23.5t-46 20.5 t-48 15t-42.5 6q-41 0 -77 -29.5t-48 -95.5z" />
<glyph unicode="A" horiz-adv-x="1306" d="M874 291h-489l-147 -291h-306l766 1411h287l217 -1411h-295zM504 526h340l-23 215l-37 330h-8l-151 -305z" />
<glyph unicode="B" horiz-adv-x="1277" d="M915 1411q94 0 164 -25.5t116 -69.5t68.5 -102.5t22.5 -126.5q0 -115 -56 -204.5t-177 -145.5q41 -23 67.5 -54.5t42 -68t21.5 -77.5t6 -80q0 -90 -33 -173t-93 -145.5t-147.5 -100.5t-195.5 -38h-682l274 1411h602zM483 848h287q57 0 98 18.5t68 46t39 58t12 57.5 q0 133 -162 133h-280zM367 250h295q104 0 167.5 57.5t63.5 153.5q0 66 -41 104.5t-119 38.5h-297z" />
<glyph unicode="C" horiz-adv-x="1153" d="M1071 1063q-53 55 -132 80.5t-151 25.5q-119 0 -195.5 -64.5t-103.5 -205.5l-73 -395q-6 -31 -6 -58q0 -53 20.5 -91t53 -61.5t74.5 -34.5t87 -11q35 0 76 6t83 19.5t82 33t72 43.5l117 -229q-53 -39 -112.5 -64.5t-121 -41t-123 -21.5t-118.5 -6q-84 0 -169 25.5 t-152.5 77.5t-109.5 130t-42 185q0 27 2 53t8 55l88 455q45 227 189.5 341.5t382.5 114.5q123 0 243.5 -38.5t192.5 -110.5z" />
<glyph unicode="D" horiz-adv-x="1290" d="M1178 453q-45 -229 -187.5 -341t-353.5 -112h-584l275 1411h520q88 0 165 -25.5t134 -73.5t91 -119t34 -163q0 -41 -10 -98zM981 905q4 18 6 34.5t2 33.5q0 51 -17.5 86t-48 57.5t-69.5 32.5t-82 10h-213l-178 -911h233q45 0 91.5 13t85 43t68.5 79t44 121z" />
<glyph unicode="E" horiz-adv-x="1185" d="M326 1411h950l-47 -252h-672l-63 -323h589l-47 -252h-592l-65 -334h721l-49 -250h-1000z" />
<glyph unicode="F" horiz-adv-x="1140" d="M492 825h591l-49 -250h-592l-110 -575h-281l275 1411h964l-47 -252h-686z" />
<glyph unicode="G" horiz-adv-x="1247" d="M1081 162q-61 -53 -124.5 -88t-128 -54.5t-127 -26.5t-117.5 -7q-94 0 -177 28.5t-145.5 84t-99.5 134t-37 177.5q0 27 2 53t8 55l90 455q23 115 78 199.5t134 141t174.5 84t197.5 27.5q61 0 125.5 -8t124 -25.5t111 -44t85.5 -61.5l-163 -217q-53 55 -129 76.5 t-148 21.5q-51 0 -101 -13t-94.5 -44t-77 -80t-46.5 -119l-78 -383q-8 -39 -8 -77q0 -106 62.5 -156.5t154.5 -50.5q41 0 92 11t104 50l47 232h-206l47 249h487z" />
<glyph unicode="H" horiz-adv-x="1292" d="M838 0l114 590h-520l-115 -590h-280l274 1411h281l-111 -567h520l111 567h285l-275 -1411h-284z" />
<glyph unicode="I" horiz-adv-x="604" d="M637 1411l-275 -1411h-280l274 1411h281z" />
<glyph unicode="J" horiz-adv-x="1097" d="M944 442q-43 -229 -181 -342.5t-382 -113.5q-57 0 -117.5 9t-117 25.5t-104.5 42t-81 58.5l160 215q59 -51 131 -69.5t133 -18.5q109 0 185.5 58.5t105.5 203.5l176 901h283l-191 -969v0z" />
<glyph unicode="K" horiz-adv-x="1251" d="M645 641l-258 -246l-76 -395h-280l274 1411h281l-121 -616l635 616h334l-580 -569l336 -842h-307z" />
<glyph unicode="L" horiz-adv-x="1140" d="M45 0l274 1411h279l-227 -1161h700l-49 -250h-977z" />
<glyph unicode="M" horiz-adv-x="1607" d="M821 563l578 848h270l-270 -1411h-279l146 758h-6q-27 -39 -80.5 -115t-113.5 -161t-117.5 -164.5t-92.5 -122.5h-201q-8 25 -23.5 68.5t-32.5 97t-35.5 111.5t-36 112.5t-32 99.5t-22.5 72h-10l-146 -756h-278l270 1411h246q14 -47 35.5 -116.5t46.5 -149.5t50.5 -165 t48 -163t42 -144.5t31.5 -109.5h12z" />
<glyph unicode="N" horiz-adv-x="1382" d="M993 508q45 227 88 451.5t86 451.5h277l-270 -1411h-254q-25 51 -59 125t-72.5 157t-80.5 171t-80 171t-71 153.5t-55 119.5l-185 -897h-278l270 1411h256l57.5 -117.5t73.5 -154.5t80 -175.5t80 -176.5t73 -157.5t56 -121.5h8z" />
<glyph unicode="O" horiz-adv-x="1300" d="M1206 438q-43 -225 -189.5 -337.5t-391.5 -112.5q-92 0 -181.5 27.5t-158 83t-111.5 138t-43 193.5q0 55 12 117l82 426q20 113 71.5 197.5t125.5 141t168 85t203 28.5q96 0 188 -28.5t162.5 -82.5t113.5 -135t43 -186q0 -23 -3 -47t-7 -49zM1012 893q6 31 6 57 q0 55 -20.5 95t-53.5 68t-74 41t-84 13q-109 0 -187.5 -58t-104.5 -198l-76 -393q-6 -37 -6 -67q0 -55 19.5 -95.5t52 -65t73.5 -35.5t82 -11q119 0 194.5 63.5t102.5 200.5z" />
<glyph unicode="P" horiz-adv-x="1169" d="M469 784h272q53 0 96.5 17.5t74 48.5t48 71t17.5 87q0 66 -42 108.5t-126 42.5h-266zM901 1411q86 0 151.5 -32.5t109.5 -87t65.5 -124t21.5 -141.5q0 -82 -29.5 -169t-90 -159.5t-151.5 -120t-216 -47.5h-342l-103 -530h-280l274 1411h590z" />
<glyph unicode="Q" horiz-adv-x="1331" d="M1206 438q-43 -217 -177 -329.5t-357 -118.5l-10 -47q-6 -25 -7 -41q0 -37 33 -52.5t123 -19.5l-31 -205q-16 -2 -31.5 -2h-29.5q-150 0 -230.5 54.5t-80.5 168.5q0 41 8 80l20 90q-63 20 -118.5 57.5t-97.5 89.5t-65.5 118.5t-23.5 148.5q0 55 12 117l82 426 q43 225 193.5 338.5t367.5 113.5q98 0 190.5 -28.5t164 -84t115.5 -136t44 -185.5q0 -23 -3 -46t-7 -48zM1012 893q6 27 6 55q0 55 -21.5 96t-56.5 69t-78 41t-86 13q-111 0 -183.5 -58t-98.5 -198l-76 -393q-6 -37 -6 -67q0 -55 20.5 -95.5t53 -65t74.5 -35.5t87 -11 q123 0 192.5 63.5t96.5 200.5z" />
<glyph unicode="R" horiz-adv-x="1216" d="M920 1411q90 0 155.5 -30.5t108.5 -82t64.5 -117t21.5 -134.5q0 -59 -14.5 -125t-50.5 -129.5t-96 -120t-153 -94.5q8 -37 28 -118t42.5 -171t41.5 -171t30 -118h-301l-115 530h-260l-103 -530h-280l272 1411h609zM471 784h285q109 0 173 64.5t64 161.5q0 66 -40 107.5 t-124 41.5h-284z" />
<glyph unicode="S" horiz-adv-x="1193" d="M748 1436q129 0 252.5 -25t228.5 -102l-137 -230q-80 59 -167 82t-173 23q-43 0 -88.5 -10.5t-82 -32t-61 -56t-24.5 -86.5q0 -37 19.5 -63.5t55 -46t83.5 -34.5t106 -30q205 -51 296 -139t91 -237q0 -104 -47 -189.5t-129 -146t-189.5 -92t-228.5 -31.5q-154 0 -289 44 t-239 152q4 4 30.5 34t57 66t56.5 65.5t32 35.5q74 -70 167 -104.5t193 -34.5q76 0 129 17.5t88 44t51.5 59t16.5 63.5q0 37 -21.5 62.5t-59.5 46t-89 37t-111 32.5q-72 20 -137.5 48t-114.5 70t-77.5 101.5t-28.5 141.5q0 111 43 196.5t116.5 145t172 91.5t209.5 32z" />
<glyph unicode="T" horiz-adv-x="1077" d="M840 1157l-226 -1157h-280l223 1157h-373l49 254h1029l-50 -254h-372z" />
<glyph unicode="U" horiz-adv-x="1298" d="M1206 449q-23 -115 -75 -201t-128.5 -143.5t-176 -86t-214.5 -28.5q-96 0 -185 25.5t-156.5 76.5t-107.5 130t-40 184q0 27 2 55t8 57l176 893h281l-180 -897q-6 -37 -7 -65q0 -55 19.5 -95.5t51.5 -66t71 -36.5t80 -11q49 0 98 14t92 47t75 85t46 128l174 897h285 l-189 -962v0z" />
<glyph unicode="V" horiz-adv-x="1236" d="M623 412q10 25 47 99.5t86 175.5t104 215t105.5 217.5t88.5 182t52 109.5h307l-721 -1411h-289l-180 1411h287q2 -27 10 -103.5t18.5 -178t21.5 -215t21.5 -216t18.5 -180.5t10 -106h13z" />
<glyph unicode="W" horiz-adv-x="1859" d="M1020 932l-176 -402l-234 -530h-307l-86 1411h285l14 -557l10 -436h13l194 440l246 553h274l35 -582l23 -411h12l170 416l240 577h295l-633 -1411h-305l-29 532l-25 400h-16z" />
<glyph unicode="X" horiz-adv-x="1218" d="M649 500l-373 -500h-331l585 723l-286 688h309l164 -461l340 461h329l-552 -688l321 -723h-319z" />
<glyph unicode="Y" horiz-adv-x="1140" d="M635 811l178 281l203 319h307l-590 -858l-106 -553h-281l107 553l-263 858h291l84 -342l60 -258h10z" />
<glyph unicode="Z" horiz-adv-x="1105" d="M35 242l815 919h-610l47 250h948l-43 -233l-827 -928h645l-47 -250h-975z" />
<glyph unicode="[" horiz-adv-x="595" d="M16 -201l318 1633h420l-35 -185h-187l-247 -1267h188l-35 -181h-422z" />
<glyph unicode="\" horiz-adv-x="718" d="M182 1485h211l211 -1571h-209z" />
<glyph unicode="]" horiz-adv-x="595" d="M-80 -201l37 181h186l244 1267h-184l35 185h419l-319 -1633h-418z" />
<glyph unicode="^" d="M850 547l-152 610l-391 -612h-237l575 878h195l229 -876h-219z" />
<glyph unicode="_" horiz-adv-x="1017" d="M-141 -307l32 166h1016l-33 -166h-1015z" />
<glyph unicode="`" horiz-adv-x="1040" d="M705 1110l-340 371l217 82l245 -377z" />
<glyph unicode="a" horiz-adv-x="1075" d="M131 655q74 371 404 371q53 0 126.5 -21.5t151.5 -72.5l37 80h240l-197 -1012h-242l-4 84q-109 -55 -183.5 -73.5t-127.5 -18.5q-141 0 -207 68.5t-66 189.5q0 27 2.5 53.5t8.5 54.5zM342 393q-6 -29 -6 -51q0 -57 29.5 -79.5t76.5 -22.5q49 0 116 26.5t138 65.5l72 379 q-39 29 -102.5 52t-116.5 23t-98 -36.5t-62 -118.5z" />
<glyph unicode="b" horiz-adv-x="1069" d="M969 375q-39 -209 -161 -298t-314 -89q-35 0 -86.5 5t-110.5 18.5t-127 38t-137 65.5l260 1351h262l-104 -534q104 57 182 75.5t131 18.5q143 0 205.5 -70.5t62.5 -189.5q0 -53 -12 -115zM756 625q6 31 6 51q0 59 -30 80.5t-75 21.5q-47 0 -114.5 -26.5t-139.5 -67.5 l-81 -412q49 -27 107 -38t106 -11q66 0 110.5 36t59.5 110z" />
<glyph unicode="c" horiz-adv-x="925" d="M870 125q-102 -82 -202.5 -108.5t-210.5 -26.5q-78 0 -145.5 21.5t-117 63.5t-78 102.5t-28.5 139.5q0 18 2 39t6 43l45 260q35 186 158 276.5t301 90.5q47 0 97.5 -7t97.5 -24.5t89 -47t74 -75.5l-153 -186q-53 63 -113.5 82.5t-97.5 19.5q-80 0 -132 -41.5t-71 -136.5 l-41 -202q-2 -10 -3 -20.5t-1 -20.5q0 -74 48 -106t106 -32q41 0 102.5 18.5t120.5 74.5l147 -197v0z" />
<glyph unicode="d" horiz-adv-x="1075" d="M131 659q33 166 136.5 266.5t283.5 100.5q53 0 127 -11t139 -46l101 497h256l-281 -1466h-242l-2 94q-96 -53 -175 -78.5t-132 -25.5q-135 0 -208 63.5t-73 192.5q0 53 13 114zM340 383q-6 -29 -6 -49q0 -57 29.5 -80t76.5 -23t119 25t133 63l80 406q-59 29 -109.5 42 t-97.5 13q-61 0 -111.5 -36.5t-68.5 -122.5z" />
<glyph unicode="e" horiz-adv-x="1011" d="M602 1028q102 0 173 -24.5t115 -64.5t63.5 -90t19.5 -104q0 -86 -40 -150.5t-112.5 -107.5t-173 -65.5t-223.5 -22.5h-43.5t-42.5 2q-6 -25 -6 -47q0 -76 48 -107.5t124 -31.5q47 0 105.5 21.5t123.5 74.5q8 -10 25.5 -38.5t38 -61.5t38 -60.5t25.5 -37.5 q-115 -82 -221.5 -102.5t-200.5 -20.5q-78 0 -145.5 18.5t-117.5 59.5t-79.5 103t-29.5 153q0 129 27.5 255t91 225t165.5 161.5t252 62.5zM590 797q-90 0 -140.5 -54.5t-76.5 -146.5q20 -2 39.5 -2h36.5q76 0 124 11t75.5 27.5t37.5 38t10 40.5q0 35 -20 60.5t-86 25.5z " />
<glyph unicode="f" horiz-adv-x="686" d="M225 805h-139l39 209h139l23 112q14 74 36.5 139.5t65.5 115t110.5 78t174.5 28.5q39 0 82 -4t92 -13l-43 -217q-23 4 -44.5 4h-39.5q-51 0 -82 -11t-49.5 -30.5t-27.5 -46t-15 -57.5l-21 -98h232l-41 -209h-230l-161 -836q-16 -82 -39 -153.5t-64 -123.5t-105.5 -83 t-164.5 -31q-37 0 -79 4t-91 15l41 219q16 -2 29.5 -3t27.5 -1q49 0 82 10t52.5 31.5t30.5 51t20 70.5z" />
<glyph unicode="g" horiz-adv-x="1056" d="M877 -55q-35 -190 -162 -278.5t-340 -88.5q-53 0 -110.5 11.5t-110 33t-96.5 53t-72 70.5l174 164q20 -27 49 -44.5t60.5 -28.5t62 -16t53.5 -5q84 0 149.5 39t88.5 139l24 104q-104 -59 -183 -75.5t-130 -16.5q-143 0 -204.5 70.5t-61.5 191.5q0 27 3 54.5t7 58.5 l45 262q35 209 157.5 298t317.5 89q72 0 194.5 -23.5t262.5 -103.5zM340 406q-6 -29 -6 -52q0 -57 30.5 -79.5t73.5 -22.5q49 0 117 24.5t139 69.5l76 399q-47 25 -106.5 37.5t-106.5 12.5q-63 0 -109.5 -36t-60.5 -110z" />
<glyph unicode="h" horiz-adv-x="1083" d="M649 0l121 625q6 27 6 47q0 59 -32.5 82.5t-75.5 23.5q-49 0 -109.5 -20.5t-146.5 -73.5l-133 -684h-261l287 1466h260l-106 -540q121 70 198.5 85t128.5 15q139 0 203 -68.5t64 -187.5q0 -51 -13 -113l-127 -657h-264z" />
<glyph unicode="i" horiz-adv-x="587" d="M291 1286q12 61 60 104.5t110 43.5q53 0 89 -34t36 -87q0 -35 -14.5 -67t-39 -55.5t-55.5 -36.5t-63 -13q-53 0 -89 32.5t-36 86.5v13t2 13zM516 1014l-125 -637q-4 -25 -7 -43.5t-3 -34.5q0 -45 24.5 -60.5t81.5 -19.5l-49 -223h-51q-129 0 -202.5 55t-73.5 174 q0 43 8 84l137 705h260z" />
<glyph unicode="j" horiz-adv-x="557" d="M313 -92q-12 -66 -32.5 -128.5t-57.5 -110.5t-97 -76.5t-155 -28.5q-33 0 -70.5 3t-78.5 11l45 246q10 -2 20.5 -2h20.5q74 0 107.5 30.5t43.5 90.5l205 1071h260zM473 1434q53 0 88 -34t35 -83q0 -35 -15.5 -66.5t-41 -55.5t-58 -38t-65.5 -14q-53 0 -87 32.5t-34 84.5 q0 35 15.5 66.5t41 55t57 38t64.5 14.5z" />
<glyph unicode="k" horiz-adv-x="1028" d="M29 0l274 1466h260l-143 -753h80q55 0 100 23.5t82 90.5l102 187h299l-145 -252q-35 -59 -77 -106.5t-107 -69.5q39 -14 62.5 -37t35.5 -50.5t18.5 -60t10.5 -65.5l53 -373h-268l-39 330q-10 76 -41 107.5t-109 31.5h-102l-88 -469h-258z" />
<glyph unicode="l" horiz-adv-x="561" d="M369 -2q-147 0 -212 52t-65 163q0 47 12 106l222 1147h258l-217 -1134q-2 -10 -3.5 -19.5t-1.5 -19.5q0 -39 28 -52.5t99 -15.5l-43 -227h-77z" />
<glyph unicode="m" horiz-adv-x="1622" d="M1188 0l123 627q4 12 4 22v21q0 53 -26.5 80.5t-71.5 27.5t-94.5 -18.5t-127.5 -65.5q-4 -27 -9 -58.5t-9 -55.5q-29 -145 -56.5 -290t-56.5 -290h-260q29 156 59.5 311.5t61.5 313.5q4 12 4 24.5v22.5q0 49 -23.5 76.5t-70.5 27.5q-41 0 -92 -20.5t-135 -73.5 q-35 -172 -66 -341t-66 -341h-260l197 1012h240q2 -23 2 -45.5v-44.5q61 37 104 58t77 31.5t60.5 12.5t53.5 2q90 0 143 -34t82 -93q68 41 121 66.5t95 39t73.5 17.5t60.5 4q141 0 201.5 -74.5t60.5 -189.5q0 -57 -12 -115q-31 -164 -61.5 -324.5t-63.5 -322.5h-262z" />
<glyph unicode="n" horiz-adv-x="1083" d="M649 0l121 625q6 27 6 49q0 59 -30.5 81.5t-77.5 22.5q-49 0 -108.5 -20.5t-147.5 -73.5l-133 -684h-261l199 1012h238l4 -86q63 35 113.5 54t89 29.5t69.5 13.5t55 3q139 0 203 -67.5t64 -186.5q0 -49 -13 -110l-127 -662h-264z" />
<glyph unicode="o" horiz-adv-x="1067" d="M969 356q-37 -188 -158 -277t-326 -89q-78 0 -149.5 22.5t-125.5 68.5t-87 113.5t-33 157.5q0 23 2 45.5t6 46.5l39 209q35 188 156 280.5t313 92.5q92 0 169 -26.5t130 -74.5t83 -115t30 -148q0 -47 -8 -89zM752 575q6 27 6 52q0 80 -50.5 119.5t-115.5 39.5 q-72 0 -124 -39.5t-73 -138.5l-37 -182q-6 -29 -6 -49q0 -41 15.5 -68.5t39 -45t52 -26t57.5 -8.5q78 0 129 39t72 140z" />
<glyph unicode="p" horiz-adv-x="1071" d="M975 354q-33 -166 -137.5 -267t-288.5 -101q-53 0 -123 10t-139 49l-88 -451h-258l274 1418h240l2 -92q98 53 177 77.5t132 24.5q135 0 206.5 -62.5t71.5 -191.5q0 -53 -12 -117zM764 629q6 31 6 53q0 57 -29.5 77.5t-72.5 20.5q-47 0 -120 -26.5t-136 -61.5l-78 -403 q66 -33 113 -44.5t96 -11.5q61 0 110 33t66 121z" />
<glyph unicode="q" horiz-adv-x="1054" d="M551 -408l96 490q-106 -59 -184 -76.5t-129 -17.5q-143 0 -205.5 71.5t-62.5 190.5q0 29 2 56.5t8 58.5l51 278q39 209 157.5 298t319.5 89q72 0 193 -23.5t262 -103.5l-244 -1311h-264zM340 389q-6 -29 -6 -49q0 -59 30.5 -81.5t73.5 -22.5q49 0 117 25.5t139 68.5 l78 415q-47 25 -105.5 37.5t-105.5 12.5q-61 0 -109.5 -36t-62.5 -110z" />
<glyph unicode="r" horiz-adv-x="770" d="M819 758q-137 -16 -230 -43t-171 -70l-125 -645h-260l196 1016h238l-8 -148h2q33 27 80 54.5t101 51t111.5 39t110.5 15.5z" />
<glyph unicode="s" horiz-adv-x="956" d="M567 1024q104 0 204.5 -24.5t182.5 -96.5q-35 -47 -66.5 -96t-66.5 -98q-68 53 -135.5 70.5t-132.5 17.5q-76 0 -111.5 -33t-35.5 -64q0 -35 35.5 -50t90 -26.5t117 -23.5t116.5 -38.5t90 -76t36 -133.5q0 -92 -40 -160.5t-105.5 -112.5t-150.5 -66.5t-175 -22.5 q-57 0 -110.5 5t-105.5 20.5t-103.5 45t-100.5 76.5q37 47 75 92t77 93q66 -63 136 -87t150 -24q88 0 133 37t45 78q0 33 -34.5 50t-87 30.5t-114 29t-113.5 44t-87 75.5t-35 125q0 92 39 157.5t99.5 106.5t135 60.5t148.5 19.5z" />
<glyph unicode="t" horiz-adv-x="765" d="M127 805l39 211h129l92 250h207l-49 -250h235l-39 -211h-235l-80 -426q-6 -31 -6 -57q0 -47 26.5 -69t92.5 -22q31 0 68.5 2.5t82.5 6.5l4 -215q-35 -12 -72.5 -19.5t-74.5 -11.5t-69 -5t-56 -1q-78 0 -131 15t-85 45t-45.5 71t-13.5 92q0 55 13 117l92 477h-125z" />
<glyph unicode="u" horiz-adv-x="1087" d="M471 1012l-123 -623q-2 -12 -3 -23.5t-1 -21.5q0 -59 34 -83.5t75 -24.5q49 0 109.5 22.5t146.5 73.5l133 680h262l-197 -1012h-241l-4 88q-59 -35 -108.5 -55.5t-90.5 -30.5t-73 -13t-58 -3q-137 0 -199.5 73.5t-62.5 194.5q0 53 12 115l127 643h262z" />
<glyph unicode="v" horiz-adv-x="980" d="M467 338l207 403q43 84 58.5 134.5t15.5 109.5v33h274v-31q0 -92 -24.5 -160.5t-69.5 -144.5l-396 -682h-260l-168 1014h283q2 -25 8 -72t12.5 -98t11.5 -97.5t7 -70.5q2 -27 7 -73t10.5 -96t9.5 -96t6 -73h8z" />
<glyph unicode="w" horiz-adv-x="1452" d="M1067 0h-256l-33 215q-10 78 -21.5 156t-21.5 155q-2 0 -4 1t-4 1l-154 -313q-27 -53 -53 -105.5t-55 -109.5h-256l-105 1016h267l18 -316l21 -323h12l153 311l117 230h215q8 -59 15.5 -118t17.5 -118q10 -82 19.5 -163t21.5 -161h8l176 377q35 78 48.5 131.5t13.5 110.5 v41h264v-39q0 -76 -18.5 -144.5t-57.5 -146.5z" />
<glyph unicode="x" horiz-adv-x="1038" d="M635 0l-135 322l-262 -322h-314l457 516l-244 498h307l119 -307l248 307h313l-444 -496l264 -518h-309z" />
<glyph unicode="y" horiz-adv-x="937" d="M25 -408l233 431l-59 45l-99 948h262l23 -373l21 -350h8l227 448q20 43 34.5 75t24 59.5t12.5 53t3 56.5v33h264v-31q0 -92 -25.5 -159.5t-68.5 -145.5l-598 -1090h-262z" />
<glyph unicode="z" horiz-adv-x="970" d="M-18 0l38 211l619 584h-475l43 219h792l-38 -205l-619 -580h504l-43 -229h-821z" />
<glyph unicode="{" horiz-adv-x="595" d="M303 610q41 -18 72 -62t31 -116q0 -29 -7 -65l-49 -250q-4 -18 -6 -36t-2 -32q0 -35 15.5 -54.5t56.5 -19.5h75l-32 -172h-156q-98 0 -147.5 55.5t-49.5 141.5q0 29 7 63l49 256q4 18 6 36t2 34q0 131 -123 135l35 178q80 6 129 61.5t67 149.5l52 269q10 55 36.5 100 t62.5 77t79 49t90 17h176l-33 -176h-75q-29 0 -49.5 -13t-35 -32.5t-22.5 -44t-12 -47.5l-47 -246q-10 -51 -32 -92t-49.5 -70.5t-57 -50t-54.5 -32.5z" />
<glyph unicode="|" horiz-adv-x="493" d="M139 -422v1909h213v-1909h-213z" />
<glyph unicode="}" horiz-adv-x="595" d="M369 621q-35 20 -67 65t-32 119q0 27 6 61l46 246q4 16 6 31.5t2 32.5q0 31 -15.5 52t-62.5 21h-70l35 174h176q92 0 137 -47t45 -127q0 -16 -2 -32.5t-6 -34.5l-53 -269q-6 -37 -6 -67q0 -66 29.5 -102.5t91.5 -41.5l-35 -178q-78 -4 -127 -56t-68 -149l-53 -274 q-23 -109 -98.5 -175.5t-169.5 -66.5h-174l33 172h75q33 0 53.5 13.5t33 34t19.5 46t11 48.5l49 250q20 98 74.5 158.5t114.5 84.5z" />
<glyph unicode="~" horiz-adv-x="1077" d="M383 717q47 0 96 -20.5t97.5 -46t94.5 -46t89 -20.5q14 0 32.5 4t41 18.5t51 41t65.5 73.5q6 -6 25.5 -21.5t43 -34t44 -35t27.5 -22.5q-74 -125 -162 -179t-185 -54q-51 0 -99 20.5t-96 44t-96.5 44t-101.5 20.5q-45 0 -86 -23.5t-100 -89.5l-129 121q66 88 147.5 146.5 t200.5 58.5z" />
<glyph unicode="&#xa2;" horiz-adv-x="923" d="M870 125q-94 -74 -187 -101.5t-191 -31.5l-48 -260h-114l51 264q-129 18 -211 99t-82 218q0 23 2 43.5t6 42.5l45 260q35 180 148.5 271.5t290.5 95.5l49 250h112l-49 -258q76 -10 146.5 -44t119.5 -102l-153 -186q-39 45 -81 66.5t-79 29.5l-104 -549q41 4 88 25t94 64z M350 408q-2 -10 -3 -21.5t-1 -21.5q0 -49 23.5 -79t58.5 -42l104 536q-59 -12 -91.5 -53t-49.5 -117z" />
<glyph unicode="&#xa3;" d="M942 1051q-29 53 -79 96t-136 43q-98 0 -144 -58.5t-46 -136.5q0 -55 15 -111.5t17 -131.5h295l-39 -187h-288q-23 -92 -62 -180t-98 -162h592l-41 -223h-924l37 193q84 86 139.5 174t83.5 198h-162l37 187h144q-8 66 -19.5 126t-11.5 117q0 70 24.5 148t80 142.5 t145.5 106.5t223 42q164 0 276.5 -63.5t172.5 -190.5z" />
<glyph unicode="&#xa5;" d="M121 475h293l14 78l-16 63h-258l32 172h187l-152 623h293l92 -596h15l319 596h309l-393 -623h199l-35 -172h-270l-39 -63l-17 -78h299l-32 -168h-297l-60 -307h-280l57 307h-291z" />
<glyph unicode="&#xa8;" horiz-adv-x="1005" d="M899 1419q51 0 83 -31.5t32 -82.5q0 -33 -14.5 -63t-39 -52.5t-55.5 -35.5t-61 -13q-51 0 -83 31.5t-32 78.5q0 33 14.5 64t37 54.5t53 36.5t65.5 13zM494 1419q51 0 82.5 -31.5t31.5 -82.5q0 -33 -14 -63t-39 -52.5t-55.5 -35.5t-61.5 -13q-51 0 -82.5 31.5t-31.5 78.5 q0 33 14 64t37.5 54.5t54.5 36.5t64 13z" />
<glyph unicode="&#xa9;" horiz-adv-x="1685" d="M844 -39q-154 0 -287 54.5t-231.5 152.5t-154.5 234.5t-56 299.5q0 160 56 297.5t154.5 236.5t231.5 155.5t287 56.5t287 -55.5t231 -154.5t154.5 -236.5t56.5 -299.5q0 -160 -56.5 -296t-154.5 -235t-231 -154.5t-287 -55.5zM844 1300q-121 0 -223.5 -46t-179 -126.5 t-119.5 -190.5t-43 -235q0 -127 43 -235.5t119.5 -188t179 -126t223.5 -46.5t224 46.5t179 126t119 188t43 235.5q0 129 -43 239t-119 189.5t-179 124.5t-224 45zM1049 918q-45 39 -92.5 53t-92.5 14q-29 0 -59.5 -9t-55 -28.5t-40 -51.5t-15.5 -77v-260q0 -45 16.5 -75.5 t41 -50t55.5 -29t59 -9.5q41 0 88 14.5t95 51.5l88 -139q-53 -45 -126 -69t-149 -24q-63 0 -125.5 18.5t-113 54.5t-81 90t-30.5 126v332q0 74 30.5 129t80 92t112 56.5t125.5 19.5q76 0 153 -22.5t130 -67.5z" />
<glyph unicode="&#xab;" horiz-adv-x="1120" d="M299 45l-203 418l369 422h256l-375 -430l191 -410h-238zM723 45l-201 418l367 422h256l-373 -430l189 -410h-238z" />
<glyph unicode="&#xad;" horiz-adv-x="839" d="M141 649h645l-45 -231h-647z" />
<glyph unicode="&#xae;" horiz-adv-x="1067" d="M545 963h-74v-183h-96v469h186q61 0 105.5 -37.5t44.5 -103.5q0 -37 -19.5 -70.5t-60.5 -58.5l94 -199h-104zM471 1157v-104h86q27 0 43 15t16 40q0 49 -55 49h-90zM532 592q-90 0 -166.5 31.5t-134 88t-90 133.5t-32.5 167t33.5 166.5t92 134t135 89.5t162.5 32 q88 0 166 -32t134.5 -89.5t89 -134t32.5 -166.5t-33.5 -167t-92 -133.5t-135.5 -88t-161 -31.5zM532 1339q-68 0 -127 -25.5t-102 -69.5t-68.5 -103.5t-25.5 -128.5q0 -70 25.5 -130.5t68.5 -104.5t102.5 -69.5t126.5 -25.5q68 0 126.5 25.5t101.5 69.5t67.5 104.5 t24.5 130.5t-24.5 129t-67.5 103t-101.5 69.5t-126.5 25.5z" />
<glyph unicode="&#xb4;" horiz-adv-x="1040" d="M557 1163l242 400l223 -76l-328 -379z" />
<glyph unicode="&#xb8;" horiz-adv-x="927" d="M299 -152l125 250h129q-23 -43 -44.5 -87t-43.5 -87q49 -2 81 -16t52 -37t28.5 -49.5t8.5 -52.5q0 -41 -17.5 -79t-52.5 -68t-85 -47t-113 -17q-51 0 -107.5 14t-103.5 37l59 119q43 -23 80 -31t70 -8q35 0 68.5 14t33.5 53q0 16 -9 25.5t-22.5 12.5t-28 1t-26.5 -6z" />
<glyph unicode="&#xbb;" horiz-adv-x="1120" d="M862 885l201 -422l-367 -418h-256l373 428l-188 412h237zM436 885l203 -422l-367 -418h-258l375 428l-188 412h235z" />
<glyph unicode="&#x2c6;" horiz-adv-x="1040" d="M711 1311l-338 -224l-88 101l358 313h178l238 -313l-109 -88z" />
<glyph unicode="&#x2da;" horiz-adv-x="1050" d="M674 1229q39 0 73.5 30.5t34.5 71.5q0 29 -21.5 49.5t-53.5 20.5q-45 0 -77 -31t-32 -72q0 -29 20.5 -49t55.5 -20zM653 1087q-86 0 -146.5 53.5t-60.5 133.5q0 53 19.5 102t56.5 86t87 59.5t112 22.5q90 0 151.5 -54t61.5 -136q0 -55 -20.5 -103.5t-57.5 -85.5 t-89.5 -57.5t-113.5 -20.5z" />
<glyph unicode="&#x2dc;" horiz-adv-x="1040" d="M598 1460q39 0 71.5 -14t61.5 -31.5t53.5 -31t46.5 -13.5q33 0 66 19.5t80 72.5q6 -4 24.5 -16t40 -27.5t41 -28t25.5 -16.5q-63 -117 -130 -163t-136 -46q-39 0 -72 12.5t-62.5 28t-56 27.5t-55.5 12q-35 0 -66.5 -16.5t-85.5 -71.5l-129 92q66 104 133.5 157.5 t149.5 53.5z" />
<glyph unicode="&#x401;" horiz-adv-x="1185" d="M326 1411h950l-47 -252h-672l-63 -323h589l-47 -252h-592l-65 -334h721l-49 -250h-1000zM1096 1786q53 0 84.5 -34t29.5 -83q-2 -33 -16 -61.5t-37.5 -51t-53.5 -36t-61 -13.5q-53 0 -85.5 34t-28.5 87q0 31 15 59.5t38 50t53.5 35t61.5 13.5zM678 1786q53 0 85 -34 t28 -83q-4 -66 -54.5 -114t-113.5 -48q-51 0 -84 34t-31 85q2 33 16.5 61.5t38 50t54 35t61.5 13.5z" />
<glyph unicode="&#x402;" horiz-adv-x="1490" d="M1155 469q4 20 6 38.5t2 35.5q0 78 -45 123t-153 45q-53 0 -127 -22.5t-158 -65.5l-121 -623h-283l226 1157h-334l49 254h1079l-49 -254h-463l-55 -280q94 41 178 63.5t166 22.5q190 0 283.5 -95.5t93.5 -242.5q0 -25 -3 -48.5t-7 -50.5l-41 -252q-16 -98 -45 -183 t-84.5 -148.5t-145.5 -100.5t-229 -37h-47.5t-50.5 5l45 253q66 2 112.5 12.5t80.5 36t55.5 69.5t33.5 114z" />
<glyph unicode="&#x403;" horiz-adv-x="1095" d="M51 0l275 1411h964l-47 -252h-686q-33 -174 -54.5 -279.5t-35.5 -177t-24.5 -127t-23.5 -126t-33.5 -175t-53.5 -274.5h-281zM655 1606l389 280l148 -176l-453 -221z" />
<glyph unicode="&#x404;" horiz-adv-x="1153" d="M1077 1065q-53 55 -132 79.5t-150 24.5q-123 0 -197 -64.5t-102 -205.5l-13 -61h398l-47 -238h-396l-16 -96q-6 -31 -6 -58q0 -53 20.5 -91t54 -61.5t75.5 -34.5t85 -11q35 0 76 6t83 19.5t82 33t73 43.5l116 -229q-53 -39 -112.5 -64.5t-121 -41t-122.5 -21.5t-119 -6 q-84 0 -169 25.5t-152.5 76.5t-110.5 130t-43 183q0 51 12 111l88 455q90 457 568 456q61 0 123.5 -9t121 -27.5t108.5 -46t85 -64.5z" />
<glyph unicode="&#x405;" horiz-adv-x="1193" d="M748 1436q129 0 252.5 -25t228.5 -102l-137 -230q-80 59 -167 82t-173 23q-43 0 -88.5 -10.5t-82 -32t-61 -56t-24.5 -86.5q0 -37 19.5 -63.5t55 -46t83.5 -34.5t106 -30q205 -51 296 -139t91 -237q0 -104 -47 -189.5t-129 -146t-189.5 -92t-228.5 -31.5q-154 0 -289 44 t-239 152q4 4 30.5 34t57 66t56.5 65.5t32 35.5q74 -70 167 -104.5t193 -34.5q76 0 129 17.5t88 44t51.5 59t16.5 63.5q0 37 -21.5 62.5t-59.5 46t-89 37t-111 32.5q-72 20 -137.5 48t-114.5 70t-77.5 101.5t-28.5 141.5q0 111 43 196.5t116.5 145t172 91.5t209.5 32z" />
<glyph unicode="&#x406;" horiz-adv-x="604" d="M637 1411l-275 -1411h-280l274 1411h281z" />
<glyph unicode="&#x407;" horiz-adv-x="604" d="M637 1411l-275 -1411h-280l274 1411h281zM770 1786q51 0 83 -32t32 -83q0 -33 -14.5 -62.5t-39 -52t-55.5 -36t-61 -13.5q-51 0 -83 32t-32 79q0 33 14.5 63.5t37 54t53 37t65.5 13.5zM365 1786q51 0 82.5 -32t31.5 -83q0 -33 -14 -62.5t-39 -52t-55.5 -36t-61.5 -13.5 q-51 0 -82.5 32t-31.5 79q0 33 14 63.5t37.5 54t54.5 37t64 13.5z" />
<glyph unicode="&#x408;" horiz-adv-x="1097" d="M944 442q-43 -229 -181 -342.5t-382 -113.5q-57 0 -117.5 9t-117 25.5t-104.5 42t-81 58.5l160 215q59 -51 131 -69.5t133 -18.5q109 0 185.5 58.5t105.5 203.5l176 901h283l-191 -969v0z" />
<glyph unicode="&#x409;" horiz-adv-x="1953" d="M727 1157q-37 -164 -63.5 -311.5t-58.5 -274.5t-74 -231t-107.5 -182t-161.5 -127t-235 -64q-10 57 -18.5 113.5t-16.5 114.5q100 29 163.5 73.5t104.5 113.5t66.5 166t50.5 228l123 635h854q-27 -135 -53.5 -270t-51.5 -271h293q190 0 295 -103t105 -269q0 -80 -26 -168 t-86.5 -162t-159.5 -121t-245 -47h-624l225 1157h-299zM1200 623q-16 -94 -34.5 -186.5t-37.5 -186.5h289q121 0 184.5 63.5t63.5 159.5q0 68 -45 109t-139 41h-281z" />
<glyph unicode="&#x40a;" horiz-adv-x="1904" d="M856 606h-410l-116 -606h-281l273 1411h278l-106 -551h411l107 551h280l-108 -557h293q193 0 298 -95t105 -261q0 -80 -25.5 -168t-86 -162t-160 -121t-244.5 -47h-625zM1069 252h287q127 0 186.5 59.5t59.5 155.5q0 137 -187 137h-278z" />
<glyph unicode="&#x40b;" horiz-adv-x="1505" d="M1069 0l88 469q8 35 8 74q0 78 -46 123t-154 45q-53 0 -126 -22.5t-157 -65.5l-121 -623h-282l225 1157h-334l49 254h1079l-49 -254h-465l-53 -280q94 41 178 63.5t166 22.5q190 0 285.5 -96.5t95.5 -243.5q0 -23 -3 -47.5t-7 -49.5l-94 -526h-283z" />
<glyph unicode="&#x40c;" horiz-adv-x="1234" d="M39 0l260 1411h276l-104 -567h131q39 0 76 6t70.5 25.5t62.5 55.5t53 93l170 387h295l-182 -416q-45 -106 -109.5 -174.5t-134.5 -91.5q82 -29 116 -101.5t46 -176.5l49 -451h-293l-39 410q-4 57 -20.5 94t-42 57.5t-59 27.5t-76.5 7h-160l-109 -596h-276zM664 1606 l389 280l147 -176l-452 -221z" />
<glyph unicode="&#x40e;" horiz-adv-x="1175" d="M150 227h79q51 0 102.5 16.5t88.5 75.5l26 46l-219 1046h277l63 -391l58 -389h10l192 385l203 395h297l-590 -1069q-66 -117 -122 -187.5t-114.5 -108.5t-125 -51t-152.5 -13h-104zM772 1436q-84 0 -138 29.5t-85 74.5t-40 100.5t-5 108.5h186q-4 -20 -1 -44t15.5 -45.5 t33 -35.5t53.5 -14q31 0 57 13t45.5 34.5t32 45t16.5 46.5h188q-10 -47 -35.5 -101.5t-68.5 -101.5t-105.5 -78.5t-148.5 -31.5z" />
<glyph unicode="&#x40f;" horiz-adv-x="1312" d="M1403 1411l-275 -1411h-399l-67 -346h-283l67 346h-403l274 1411h281l-225 -1159h520l225 1159h285z" />
<glyph unicode="&#x410;" horiz-adv-x="1306" d="M874 291h-489l-147 -291h-306l766 1411h287l217 -1411h-295zM504 526h340l-23 215l-37 330h-8l-151 -305z" />
<glyph unicode="&#x411;" horiz-adv-x="1251" d="M344 1411h838l-47 -252h-557l-58 -287h295q190 0 294.5 -103t104.5 -269q0 -80 -26.5 -168t-87 -162t-158.5 -122t-244 -48h-624zM401 252h289q121 0 183.5 63.5t62.5 159.5q0 66 -45 107t-137 41h-281z" />
<glyph unicode="&#x412;" horiz-adv-x="1277" d="M915 1411q94 0 164 -25.5t116 -69.5t68.5 -102.5t22.5 -126.5q0 -115 -56 -204.5t-177 -145.5q41 -23 67.5 -54.5t42 -68t21.5 -77.5t6 -80q0 -90 -33 -173t-93 -145.5t-147.5 -100.5t-195.5 -38h-682l274 1411h602zM483 848h287q57 0 98 18.5t68 46t39 58t12 57.5 q0 133 -162 133h-280zM367 250h295q104 0 167.5 57.5t63.5 153.5q0 66 -41 104.5t-119 38.5h-297z" />
<glyph unicode="&#x413;" horiz-adv-x="1095" d="M51 0l275 1411h964l-47 -252h-686q-33 -174 -54.5 -279.5t-35.5 -177t-24.5 -127t-23.5 -126t-33.5 -175t-53.5 -274.5h-281z" />
<glyph unicode="&#x414;" horiz-adv-x="1492" d="M90 248q53 35 95 83t77 117.5t65.5 163t61.5 219.5q35 145 70 289t69 291h955l-223 -1165h122l-110 -561h-254l61 315h-884l-64 -315h-252l109 563h102zM733 1163q-35 -137 -62.5 -269t-61.5 -250t-79 -219t-114 -179h567q43 229 87 457.5t89 459.5h-426z" />
<glyph unicode="&#x415;" horiz-adv-x="1185" d="M326 1411h950l-47 -252h-672l-63 -323h589l-47 -252h-592l-65 -334h721l-49 -250h-1000z" />
<glyph unicode="&#x416;" horiz-adv-x="1837" d="M702 0l111 596h-94q-43 0 -81 -7t-72 -26.5t-63.5 -56.5t-53.5 -96l-173 -410h-299l193 455q45 104 110.5 177t157.5 101q-59 23 -97 91.5t-50 172.5l-53 414h280l53 -387q8 -57 25.5 -92t44.5 -54.5t60.5 -26.5t74.5 -7h82l105 567h276l-104 -567h86q39 0 74.5 7 t67.5 26.5t60.5 54.5t55.5 92l172 387h288l-180 -418q-49 -111 -112.5 -175t-133.5 -87q82 -29 116 -102.5t46 -177.5l49 -451h-286l-39 410q-6 57 -22.5 94t-42 57.5t-61.5 27.5t-79 7h-107l-108 -596h-277z" />
<glyph unicode="&#x417;" horiz-adv-x="1179" d="M735 1423q86 0 165 -20.5t140.5 -61.5t98.5 -101t37 -142q0 -123 -67 -221.5t-200 -149.5q94 -39 135 -113.5t41 -144.5q0 -127 -53 -218t-138 -150.5t-190.5 -87t-209.5 -27.5q-129 0 -252 34.5t-207 108.5l164 203q31 -25 69.5 -43.5t81.5 -30.5t85 -18.5t77 -6.5 q57 0 109.5 15.5t92.5 43t63.5 68.5t23.5 93q0 78 -58.5 118.5t-144.5 40.5h-186l43 224h192q43 0 88 11t82 34.5t60.5 60.5t23.5 90q0 39 -20.5 65.5t-51 44t-66.5 25t-69 7.5q-78 0 -171 -26t-163 -77l-112 209q109 72 233.5 107.5t253.5 35.5z" />
<glyph unicode="&#x418;" horiz-adv-x="1378" d="M1071 913l-766 -913h-252l271 1411h278l-174 -909h8l766 909h258l-272 -1411h-281l176 913h-12z" />
<glyph unicode="&#x419;" horiz-adv-x="1378" d="M899 1464q-84 0 -138 30t-85 75t-40 100t-5 109h186q-4 -20 -1 -44t15.5 -45.5t33 -36t53.5 -14.5q31 0 57 13.5t45.5 35t32 45t16.5 46.5h188q-10 -47 -35.5 -101.5t-68.5 -101.5t-105.5 -79t-148.5 -32zM1071 913l-766 -913h-252l271 1411h278l-174 -909h8l766 909h258 l-272 -1411h-281l176 913h-12z" />
<glyph unicode="&#x41a;" horiz-adv-x="1234" d="M39 0l260 1411h276l-104 -567h131q39 0 76 6t70.5 25.5t62.5 55.5t53 93l170 387h295l-182 -416q-45 -106 -109.5 -174.5t-134.5 -91.5q82 -29 116 -101.5t46 -176.5l49 -451h-293l-39 410q-4 57 -20.5 94t-42 57.5t-59 27.5t-76.5 7h-160l-109 -596h-276z" />
<glyph unicode="&#x41b;" horiz-adv-x="1325" d="M682 1159l-72 -375q-35 -176 -74.5 -319t-107.5 -247.5t-174.5 -169t-271.5 -83.5l-37 232q100 29 164.5 73.5t105.5 113.5t66.5 165t50.5 227l123 635h929l-272 -1411h-285l226 1159h-371z" />
<glyph unicode="&#x41c;" horiz-adv-x="1607" d="M821 563l578 848h270l-270 -1411h-279l146 758h-6q-27 -39 -80.5 -115t-113.5 -161t-117.5 -164.5t-92.5 -122.5h-201q-8 25 -23.5 68.5t-32.5 97t-35.5 111.5t-36 112.5t-32 99.5t-22.5 72h-10l-146 -756h-278l270 1411h246q14 -47 35.5 -116.5t46.5 -149.5t50.5 -165 t48 -163t42 -144.5t31.5 -109.5h12z" />
<glyph unicode="&#x41d;" horiz-adv-x="1292" d="M838 0l114 590h-520l-115 -590h-280l274 1411h281l-111 -567h520l111 567h285l-275 -1411h-284z" />
<glyph unicode="&#x41e;" horiz-adv-x="1300" d="M1206 438q-43 -225 -189.5 -337.5t-391.5 -112.5q-92 0 -181.5 27.5t-158 83t-111.5 138t-43 193.5q0 55 12 117l82 426q20 113 71.5 197.5t125.5 141t168 85t203 28.5q96 0 188 -28.5t162.5 -82.5t113.5 -135t43 -186q0 -23 -3 -47t-7 -49zM1012 893q6 31 6 57 q0 55 -20.5 95t-53.5 68t-74 41t-84 13q-109 0 -187.5 -58t-104.5 -198l-76 -393q-6 -37 -6 -67q0 -55 19.5 -95.5t52 -65t73.5 -35.5t82 -11q119 0 194.5 63.5t102.5 200.5z" />
<glyph unicode="&#x41f;" horiz-adv-x="1292" d="M838 0l225 1159h-520l-226 -1159h-280l274 1411h1086l-275 -1411h-284z" />
<glyph unicode="&#x420;" horiz-adv-x="1169" d="M469 784h272q53 0 96.5 17.5t74 48.5t48 71t17.5 87q0 66 -42 108.5t-126 42.5h-266zM901 1411q86 0 151.5 -32.5t109.5 -87t65.5 -124t21.5 -141.5q0 -82 -29.5 -169t-90 -159.5t-151.5 -120t-216 -47.5h-342l-103 -530h-280l274 1411h590z" />
<glyph unicode="&#x421;" horiz-adv-x="1153" d="M1071 1063q-53 55 -132 80.5t-151 25.5q-119 0 -195.5 -64.5t-103.5 -205.5l-73 -395q-6 -31 -6 -58q0 -53 20.5 -91t53 -61.5t74.5 -34.5t87 -11q35 0 76 6t83 19.5t82 33t72 43.5l117 -229q-53 -39 -112.5 -64.5t-121 -41t-123 -21.5t-118.5 -6q-84 0 -169 25.5 t-152.5 77.5t-109.5 130t-42 185q0 27 2 53t8 55l88 455q45 227 189.5 341.5t382.5 114.5q123 0 243.5 -38.5t192.5 -110.5z" />
<glyph unicode="&#x422;" horiz-adv-x="1077" d="M840 1157l-226 -1157h-280l223 1157h-373l49 254h1029l-50 -254h-372z" />
<glyph unicode="&#x423;" horiz-adv-x="1175" d="M150 227h79q51 0 102.5 16.5t88.5 75.5l26 46l-219 1046h277l63 -391l58 -389h10l192 385l203 395h297l-590 -1069q-66 -117 -122 -187.5t-114.5 -108.5t-125 -51t-152.5 -13h-104z" />
<glyph unicode="&#x424;" horiz-adv-x="1599" d="M1126 1356q223 -16 340 -145.5t117 -346.5q0 -162 -45 -295t-133 -230t-219 -155.5t-301 -70.5l-23 -113h-280l20 113q-221 18 -336.5 146t-115.5 335q0 162 46 297t134 234.5t218 158.5t296 72l14 69h281zM932 358q100 10 171 53.5t116 110t65.5 151.5t20.5 179 q0 53 -10.5 100t-37 82t-69.5 57.5t-109 26.5zM797 1112q-102 -10 -173 -58t-114 -119t-61.5 -154t-18.5 -160q0 -109 48 -177.5t171 -85.5z" />
<glyph unicode="&#x425;" horiz-adv-x="1218" d="M649 500l-373 -500h-331l585 723l-286 688h309l164 -461l340 461h329l-552 -688l321 -723h-319z" />
<glyph unicode="&#x426;" horiz-adv-x="1382" d="M1409 1411l-227 -1165h123l-107 -563h-258l64 317h-953l273 1411h278l-223 -1161h520l223 1161h287z" />
<glyph unicode="&#x427;" horiz-adv-x="1247" d="M535 1411l-76 -407q-4 -23 -6 -41.5t-2 -34.5q0 -86 53 -124t170 -38q68 0 145.5 22.5t134.5 51.5l109 571h283l-275 -1411h-287l117 588q-74 -35 -167 -55.5t-181 -20.5q-193 0 -296 86t-103 248q0 53 12 115l86 450h283z" />
<glyph unicode="&#x428;" horiz-adv-x="1865" d="M1962 1411l-272 -1411h-1637l273 1411h280l-225 -1161h397l223 1161h279l-223 -1161h397l223 1161h285z" />
<glyph unicode="&#x429;" horiz-adv-x="1933" d="M1057 250h399l223 1161h285l-227 -1165h125l-109 -563h-256l62 317h-1508l273 1411h280l-225 -1161h399l226 1161h276z" />
<glyph unicode="&#x42a;" horiz-adv-x="1546" d="M700 252h289q117 0 181.5 63.5t64.5 159.5q0 66 -45 107t-137 41h-279zM926 1411l-105 -539h295q94 0 168 -27.5t125 -76.5t77.5 -117.5t26.5 -150.5q0 -80 -25.5 -168t-86 -162t-159.5 -122t-245 -48h-624l225 1165h-420l47 246h701z" />
<glyph unicode="&#x42b;" horiz-adv-x="1736" d="M1794 1411l-270 -1411h-279l271 1411h278zM393 252h289q117 0 181.5 63.5t64.5 159.5q0 66 -45 107t-138 41h-280zM66 0l270 1411h280l-104 -539h295q190 0 293.5 -103t103.5 -269q0 -80 -25.5 -168t-86 -162t-158.5 -122t-244 -48h-624z" />
<glyph unicode="&#x42c;" horiz-adv-x="1251" d="M399 252h289q117 0 181.5 63.5t64.5 159.5q0 66 -45 107t-137 41h-281zM72 0l270 1411h281l-105 -539h295q190 0 294.5 -103t104.5 -269q0 -80 -26.5 -168t-87 -162t-158.5 -122t-244 -48h-624z" />
<glyph unicode="&#x42d;" horiz-adv-x="1148" d="M231 1292q104 68 215 101.5t244 33.5q100 0 185.5 -26.5t147.5 -77.5t97 -127t35 -174q0 -53 -12 -115l-92 -485q-43 -227 -186.5 -331.5t-372.5 -104.5q-66 0 -131.5 11t-125 31.5t-110.5 49t-86 63.5l158 203q63 -53 140 -77.5t148 -24.5q51 0 98.5 12t86.5 40t67.5 74 t40.5 111l25 121h-434l47 240h434l14 63q6 33 6 66q0 51 -18 88t-49 61.5t-71 35.5t-83 11q-66 0 -142.5 -19.5t-168.5 -72.5z" />
<glyph unicode="&#x42e;" horiz-adv-x="1701" d="M1606 451q-41 -221 -169 -343t-376 -122q-109 0 -198 26.5t-154.5 77.5t-101.5 126t-36 169q0 25 3.5 49.5t7.5 50.5l20 105h-160l-114 -590h-281l272 1411h281l-108 -567h159l25 125q45 227 186.5 341.5t368.5 114.5q98 0 184 -28.5t149.5 -81.5t100.5 -128t37 -169 q0 -23 -3 -45.5t-7 -46.5zM1411 907q4 18 6 34.5t2 33.5q0 51 -17.5 87t-47 59.5t-67.5 34.5t-79 11q-104 0 -170.5 -60t-93.5 -196l-80 -411q-6 -37 -6 -70q0 -100 61.5 -143t145.5 -43q104 0 172 60.5t94 195.5z" />
<glyph unicode="&#x42f;" horiz-adv-x="1218" d="M717 559q-41 0 -78 -8t-67.5 -28.5t-58.5 -56.5t-50 -93l-152 -373h-313l168 393q33 78 70.5 144.5t109.5 95.5q-90 47 -130 126t-40 181q0 92 32 177t93 150.5t152.5 104.5t212.5 39h645l-262 -1411h-285l110 559h-157zM989 1159h-291q-102 0 -164.5 -53t-62.5 -150 q0 -72 43 -112.5t133 -40.5h275z" />
<glyph unicode="&#x430;" horiz-adv-x="1075" d="M131 655q74 371 404 371q53 0 126.5 -21.5t151.5 -72.5l37 80h240l-197 -1012h-242l-4 84q-109 -55 -183.5 -73.5t-127.5 -18.5q-141 0 -207 68.5t-66 189.5q0 27 2.5 53.5t8.5 54.5zM342 393q-6 -29 -6 -51q0 -57 29.5 -79.5t76.5 -22.5q49 0 116 26.5t138 65.5l72 379 q-39 29 -102.5 52t-116.5 23t-98 -36.5t-62 -118.5z" />
<glyph unicode="&#x431;" horiz-adv-x="1050" d="M498 -10q-213 0 -313.5 94t-100.5 260l8 86l70 367q25 127 50.5 237.5t75.5 196.5t135 144.5t226 82.5l41 6q68 10 142.5 20.5t160.5 20.5l29 -229q-145 -18 -242.5 -30.5t-161 -42t-100.5 -87t-61 -164.5l-13 -63q72 37 142.5 55.5t134.5 18.5q127 0 202.5 -67 t80.5 -202l-7 -88q-4 -41 -14 -101.5t-25 -146.5q-20 -111 -66 -182.5t-109.5 -112t-137 -57t-147.5 -16.5zM504 229q78 0 130 36t75 116q16 63 25 125.5t9 91.5q0 49 -24.5 86t-91.5 37q-53 0 -113.5 -20.5t-118.5 -55.5q-8 -35 -17 -80t-24 -123q-4 -23 -6 -42t-2 -33 q0 -138 158 -138z" />
<glyph unicode="&#x432;" horiz-adv-x="1030" d="M602 1030q106 0 177 -23.5t112 -60.5t57.5 -82t16.5 -88q0 -53 -33 -116.5t-113 -92.5q76 -27 112 -83t36 -115q0 -63 -21.5 -132t-76 -125.5t-147.5 -92t-235 -35.5q-139 0 -256.5 37.5t-207.5 87.5l104 534q14 70 44 139.5t85 125t140 89t206 33.5zM588 801 q-53 0 -89 -16.5t-59.5 -42t-36 -56.5t-18.5 -59l-70 -367q31 -16 86.5 -28.5t104.5 -12.5q63 0 101 15.5t58.5 37t26.5 44t6 38.5q0 41 -27.5 66.5t-109.5 25.5h-72l29 177h74q55 0 81.5 26.5t26.5 63.5q0 35 -26.5 61.5t-85.5 26.5z" />
<glyph unicode="&#x433;" horiz-adv-x="966" d="M584 1024q74 0 139 -17.5t114.5 -52t78 -85t28.5 -115.5q0 -70 -22.5 -120t-60.5 -86t-86 -59.5t-100 -40t-104.5 -27.5t-97.5 -22q-57 -12 -101 -34.5t-44 -69.5q0 -41 39 -60.5t106 -19.5q80 0 148.5 22.5t146.5 75.5q29 -49 57.5 -97t57.5 -97q-61 -41 -122 -66.5 t-117 -40t-110.5 -19.5t-105.5 -5q-78 0 -146.5 17.5t-118.5 51t-80 83.5t-30 118q0 106 45 171t114 101.5t148.5 55t148.5 35t114 38t45 64.5q0 31 -30 52.5t-91 21.5q-63 0 -132 -17.5t-153 -70.5l-102 192q59 37 111.5 61.5t103.5 38t102.5 18.5t106.5 5z" />
<glyph unicode="&#x434;" horiz-adv-x="1064" d="M596 1481q133 0 222 -31t141.5 -86t74 -130t21.5 -163q0 -57 -11.5 -131t-21.5 -145l-74 -418q-20 -104 -63 -177t-104.5 -120t-137.5 -68.5t-162 -21.5q-199 0 -306 94t-107 260q0 23 3 51.5t9 57.5l26 137q16 86 47 156.5t80.5 121t118 78t164.5 27.5q59 0 132 -19.5 t140 -64.5l11 55q6 31 8 59.5t4 55.5q0 98 -57.5 149.5t-200.5 51.5q-35 0 -72 -3.5t-84 -11.5q-8 53 -15 105.5t-13 105.5q118 25 227 25zM549 737q-70 0 -118 -44t-71 -150l-22 -107q-6 -37 -6 -55q0 -82 44 -119t126 -37q66 0 121 40t75 138l25 125q4 27 12 69t13 69 q-47 35 -95.5 53t-103.5 18z" />
<glyph unicode="&#x435;" horiz-adv-x="1011" d="M602 1028q102 0 173 -24.5t115 -64.5t63.5 -90t19.5 -104q0 -86 -40 -150.5t-112.5 -107.5t-173 -65.5t-223.5 -22.5h-43.5t-42.5 2q-6 -25 -6 -47q0 -76 48 -107.5t124 -31.5q47 0 105.5 21.5t123.5 74.5q8 -10 25.5 -38.5t38 -61.5t38 -60.5t25.5 -37.5 q-115 -82 -221.5 -102.5t-200.5 -20.5q-78 0 -145.5 18.5t-117.5 59.5t-79.5 103t-29.5 153q0 129 27.5 255t91 225t165.5 161.5t252 62.5zM590 797q-90 0 -140.5 -54.5t-76.5 -146.5q20 -2 39.5 -2h36.5q76 0 124 11t75.5 27.5t37.5 38t10 40.5q0 35 -20 60.5t-86 25.5z " />
<glyph unicode="&#x436;" horiz-adv-x="1480" d="M526 0l76 414h-47q-37 0 -65.5 -4t-53 -19.5t-46 -43.5t-42.5 -75l-110 -272h-281l147 334q35 78 80 128t123 73q-57 25 -82.5 71.5t-38.5 118.5l-47 291h267l38 -236q12 -82 50 -108.5t102 -26.5h49l68 371h258l-68 -371h45q63 0 108.5 25.5t82.5 109.5l106 236h279 l-131 -293q-35 -74 -78 -121t-109 -72q68 -25 90.5 -73.5t32.5 -124.5l51 -332h-270l-31 272q-10 92 -48 117t-109 25h-62l-76 -414h-258z" />
<glyph unicode="&#x437;" horiz-adv-x="927" d="M530 1024q78 0 143.5 -16.5t114 -49t75 -81t26.5 -109.5q0 -33 -9.5 -68.5t-31 -69.5t-56 -63.5t-83.5 -48.5q39 -16 64.5 -38.5t39.5 -48t19.5 -51.5t5.5 -46q0 -88 -37 -152.5t-99.5 -107.5t-142.5 -63.5t-166 -20.5q-100 0 -202.5 22.5t-165.5 59.5l94 190 q82 -35 147.5 -47t118.5 -12q92 0 141 32.5t49 94.5q0 43 -33.5 64.5t-90.5 21.5h-181l39 194h180q59 0 103.5 27t44.5 80q0 92 -139 92q-47 0 -111.5 -15.5t-142.5 -56.5l-94 176q111 68 209.5 89.5t170.5 21.5z" />
<glyph unicode="&#x438;" horiz-adv-x="1087" d="M471 1012l-123 -623q-2 -12 -3 -23.5t-1 -21.5q0 -59 34 -83.5t75 -24.5q49 0 109.5 22.5t146.5 73.5l133 680h262l-197 -1012h-241l-4 88q-59 -35 -108.5 -55.5t-90.5 -30.5t-73 -13t-58 -3q-137 0 -199.5 73.5t-62.5 194.5q0 53 12 115l127 643h262z" />
<glyph unicode="&#x439;" horiz-adv-x="1087" d="M471 1012l-123 -623q-2 -12 -3 -23.5t-1 -21.5q0 -59 34 -83.5t75 -24.5q49 0 109.5 22.5t146.5 73.5l133 680h262l-197 -1012h-241l-4 88q-59 -35 -108.5 -55.5t-90.5 -30.5t-73 -13t-58 -3q-137 0 -199.5 73.5t-62.5 194.5q0 53 12 115l127 643h262zM684 1163 q-86 0 -139 32t-83 78t-39 100t-5 100h186q-4 -23 -1 -47.5t15.5 -44t33 -33t50.5 -13.5q31 0 56.5 13.5t45 34t33 45t17.5 45.5h186q-10 -51 -34.5 -105.5t-67.5 -99.5t-105.5 -75t-148.5 -30z" />
<glyph unicode="&#x43a;" horiz-adv-x="1048" d="M1071 1014l-135 -297q-37 -74 -81 -121t-110 -72q70 -25 92.5 -74t34.5 -124l52 -326h-271l-32 276q-10 92 -54.5 117t-115.5 25h-101l-74 -418h-256l187 1014h258l-72 -365h99q63 0 109 25.5t87 109.5l109 230h274z" />
<glyph unicode="&#x43b;" horiz-adv-x="1075" d="M526 795l-43 -224q-27 -139 -61.5 -241.5t-88.5 -174t-134 -115.5t-199 -63q-8 51 -18.5 101.5t-20.5 103.5q66 20 109 46t72.5 68t49 106.5t37.5 162.5q23 113 44.5 224.5t43.5 224.5h762l-196 -1014h-258l153 795h-252z" />
<glyph unicode="&#x43c;" horiz-adv-x="1288" d="M647 440l422 574h240l-197 -1014h-256l96 502h-6q-66 -92 -134.5 -184.5t-133.5 -184.5h-176q-31 92 -63.5 180t-65.5 181q-2 0 -3 1t-3 1l-97 -496h-256l197 1014h227q29 -86 58.5 -168t58.5 -168l80 -238h12z" />
<glyph unicode="&#x43d;" horiz-adv-x="1069" d="M633 0l78 406h-365l-78 -406h-256l197 1014h256l-78 -389h365l77 389h261l-197 -1014h-260z" />
<glyph unicode="&#x43e;" horiz-adv-x="1067" d="M969 356q-37 -188 -158 -277t-326 -89q-78 0 -149.5 22.5t-125.5 68.5t-87 113.5t-33 157.5q0 23 2 45.5t6 46.5l39 209q35 188 156 280.5t313 92.5q92 0 169 -26.5t130 -74.5t83 -115t30 -148q0 -47 -8 -89zM752 575q6 27 6 52q0 80 -50.5 119.5t-115.5 39.5 q-72 0 -124 -39.5t-73 -138.5l-37 -182q-6 -29 -6 -49q0 -41 15.5 -68.5t39 -45t52 -26t57.5 -8.5q78 0 129 39t72 140z" />
<glyph unicode="&#x43f;" horiz-adv-x="1083" d="M649 0l121 625q6 27 6 49q0 59 -30.5 81.5t-77.5 22.5q-49 0 -108.5 -20.5t-147.5 -73.5l-133 -684h-261l199 1012h238l4 -86q63 35 113.5 54t89 29.5t69.5 13.5t55 3q139 0 203 -67.5t64 -186.5q0 -49 -13 -110l-127 -662h-264z" />
<glyph unicode="&#x440;" horiz-adv-x="1071" d="M975 354q-33 -166 -137.5 -267t-288.5 -101q-53 0 -123 10t-139 49l-88 -451h-258l274 1418h240l2 -92q98 53 177 77.5t132 24.5q135 0 206.5 -62.5t71.5 -191.5q0 -53 -12 -117zM764 629q6 31 6 53q0 57 -29.5 77.5t-72.5 20.5q-47 0 -120 -26.5t-136 -61.5l-78 -403 q66 -33 113 -44.5t96 -11.5q61 0 110 33t66 121z" />
<glyph unicode="&#x441;" horiz-adv-x="925" d="M870 125q-102 -82 -202.5 -108.5t-210.5 -26.5q-78 0 -145.5 21.5t-117 63.5t-78 102.5t-28.5 139.5q0 18 2 39t6 43l45 260q35 186 158 276.5t301 90.5q47 0 97.5 -7t97.5 -24.5t89 -47t74 -75.5l-153 -186q-53 63 -113.5 82.5t-97.5 19.5q-80 0 -132 -41.5t-71 -136.5 l-41 -202q-2 -10 -3 -20.5t-1 -20.5q0 -74 48 -106t106 -32q41 0 102.5 18.5t120.5 74.5l147 -197v0z" />
<glyph unicode="&#x442;" horiz-adv-x="1622" d="M1188 0l123 627q4 12 4 22v21q0 53 -26.5 80.5t-71.5 27.5t-94.5 -18.5t-127.5 -65.5q-4 -27 -9 -58.5t-9 -55.5q-29 -145 -56.5 -290t-56.5 -290h-260q29 156 59.5 311.5t61.5 313.5q4 12 4 24.5v22.5q0 49 -23.5 76.5t-70.5 27.5q-41 0 -92 -20.5t-135 -73.5 q-35 -172 -66 -341t-66 -341h-260l197 1012h240q2 -23 2 -45.5v-44.5q61 37 104 58t77 31.5t60.5 12.5t53.5 2q90 0 143 -34t82 -93q68 41 121 66.5t95 39t73.5 17.5t60.5 4q141 0 201.5 -74.5t60.5 -189.5q0 -57 -12 -115q-31 -164 -61.5 -324.5t-63.5 -322.5h-262z" />
<glyph unicode="&#x443;" horiz-adv-x="937" d="M25 -408l233 431l-59 45l-99 948h262l23 -373l21 -350h8l227 448q20 43 34.5 75t24 59.5t12.5 53t3 56.5v33h264v-31q0 -92 -25.5 -159.5t-68.5 -145.5l-598 -1090h-262z" />
<glyph unicode="&#x444;" horiz-adv-x="1376" d="M395 -408l78 398q-76 4 -143.5 30.5t-119.5 75.5t-83 123t-31 174q0 143 43 258t120 196t182.5 126t232.5 49l74 387h260l-74 -387q76 -4 146.5 -25.5t122.5 -65.5t84 -116t32 -176q0 -152 -46 -270.5t-125 -201.5t-185.5 -128t-229.5 -49l-78 -398h-260zM780 227 q45 2 93.5 23.5t89.5 66.5t67.5 116t26.5 169q0 51 -14.5 85t-38 54.5t-54 29.5t-63.5 11zM627 782q-43 -2 -91.5 -22.5t-90.5 -63.5t-68.5 -111.5t-26.5 -164.5q0 -98 51.5 -143.5t118.5 -49.5z" />
<glyph unicode="&#x445;" horiz-adv-x="1038" d="M635 0l-135 322l-262 -322h-314l457 516l-244 498h307l119 -307l248 307h313l-444 -496l264 -518h-309z" />
<glyph unicode="&#x446;" horiz-adv-x="1116" d="M1112 1012q-37 -184 -72.5 -365.5t-70.5 -367.5q-2 -12 -4 -24.5t-2 -27.5q0 -43 19 -79.5t65 -53.5q-18 -94 -37 -187t-35 -188h-209q10 70 18.5 138.5t18.5 138.5q-35 16 -56.5 52t-25.5 73h-2q-59 -45 -116.5 -71.5t-107 -40t-88 -17.5t-65.5 -4q-135 0 -199.5 70.5 t-64.5 189.5q0 33 4 59.5t8 59.5q33 162 64.5 322.5t62.5 322.5h262q-31 -156 -61.5 -311.5t-59.5 -313.5q-2 -10 -5 -27.5t-3 -27.5q-4 -51 26 -75t85 -24q47 0 109.5 23t148.5 74l133 682h260v0z" />
<glyph unicode="&#x447;" horiz-adv-x="1028" d="M414 1014l-58 -303q-2 -10 -3 -20.5t-1 -20.5q0 -59 38 -85t110 -26q47 0 104.5 17.5t110.5 41.5l73 396h259l-197 -1014h-258l78 403q-80 -35 -147.5 -49t-127.5 -14q-139 0 -226 61.5t-87 194.5q0 45 8 84l68 334h256z" />
<glyph unicode="&#x448;" horiz-adv-x="1632" d="M467 1012l-123 -627q-2 -12 -3 -23.5t-1 -21.5q0 -106 96 -107q47 0 97.5 17.5t128.5 66.5q2 27 7 58t9 55q29 147 56.5 291.5t56.5 290.5h260q-29 -156 -59.5 -311.5t-61.5 -313.5q-2 -12 -3 -23.5t-1 -21.5q0 -51 24.5 -78.5t67.5 -27.5t94 20t135 74q35 172 65.5 341 t65.5 341h260l-196 -1012h-240q-2 23 -2 44.5v43.5q-61 -37 -104 -56.5t-77 -29.5t-60.5 -12t-53.5 -2q-90 0 -143 32.5t-82 92.5q-68 -43 -121 -68t-95 -37t-75 -16t-59 -4q-72 0 -121 20.5t-81 56t-46 85t-14 106.5q0 27 2 53.5t8 55.5l125 647h264z" />
<glyph unicode="&#x449;" horiz-adv-x="1648" d="M1378 1012h260q-37 -184 -72.5 -363.5t-70.5 -369.5q-2 -14 -4 -27.5t-2 -28.5q0 -41 17.5 -75.5t64.5 -53.5q-18 -92 -36.5 -186t-35.5 -189h-209l37 277q-35 16 -55.5 52t-24.5 73h-2q-63 -43 -109 -68.5t-84 -40t-69 -19.5t-63 -5q-37 0 -76 7t-72 22.5t-58.5 39 t-35.5 56.5q-68 -41 -121 -65.5t-95 -38t-75 -17.5t-59 -4q-131 0 -196.5 70.5t-65.5 189.5q0 37 5 73.5t13 73.5l119 617h262q-31 -158 -61.5 -313.5t-59.5 -313.5q-6 -25 -6 -47q0 -55 28.5 -80t69.5 -25q45 0 95.5 17.5t127.5 66.5q4 23 8.5 52.5t8.5 52.5l112 590h263 q-31 -156 -62 -312.5t-59 -312.5q-6 -29 -6 -49q0 -53 26.5 -77.5t67.5 -24.5t92 20t135 74z" />
<glyph unicode="&#x44a;" horiz-adv-x="1243" d="M102 1012h576l-62 -316h2q31 12 69 23.5t75 20t70.5 13.5t56.5 5q66 0 121 -19.5t95 -55.5t61.5 -86t21.5 -112v-16q-2 -41 -8 -88t-17 -92q-18 -70 -50 -126.5t-86 -96t-131 -61t-183 -21.5q-43 0 -97.5 5t-116 17t-127 34.5t-128.5 59.5l137 701h-320zM702 213 q53 0 89 10t58.5 26.5t34 37t17.5 43.5q8 29 11 57.5t3 38.5q0 49 -29.5 69.5t-76.5 20.5t-110.5 -20.5t-127.5 -53.5l-43 -198q47 -16 95 -23.5t79 -7.5z" />
<glyph unicode="&#x44b;" horiz-adv-x="1454" d="M205 1012h254l-62 -316h2q31 12 69 23.5t75 20t70.5 13.5t56.5 5q66 0 121 -19.5t95 -55.5t61.5 -86t21.5 -112v-16q-2 -41 -8.5 -88t-16.5 -92q-18 -70 -50 -126.5t-86 -96t-131 -61t-183 -21.5q-43 0 -97.5 5t-116 17t-127 34.5t-128.5 59.5zM1012 0l194 1014h258 l-196 -1014h-256zM483 213q53 0 89 10t58.5 26.5t34 37t17.5 43.5q8 29 11 57.5t3 38.5q0 49 -29.5 69.5t-76.5 20.5t-110.5 -20.5t-127.5 -53.5l-43 -198q47 -16 95 -23.5t79 -7.5z" />
<glyph unicode="&#x44c;" horiz-adv-x="1026" d="M205 1012h254l-62 -316h2q31 12 69 23.5t75 20t70.5 13.5t56.5 5q66 0 121 -19.5t95 -55.5t61.5 -86t21.5 -112v-16q-2 -41 -8.5 -88t-16.5 -92q-18 -70 -50 -126.5t-86 -96t-131 -61t-183 -21.5q-43 0 -97.5 5t-116 17t-127 34.5t-128.5 59.5zM483 213q53 0 89 10 t58.5 26.5t34 37t17.5 43.5q8 29 11 57.5t3 38.5q0 49 -29.5 69.5t-76.5 20.5t-110.5 -20.5t-127.5 -53.5l-43 -198q47 -16 95 -23.5t79 -7.5z" />
<glyph unicode="&#x44d;" horiz-adv-x="915" d="M391 -10q-98 0 -198.5 27.5t-182.5 111.5l158 182q53 -57 112.5 -70.5t98.5 -13.5q92 0 137 36t62 114l10 49h-297l35 188h297l4 35q2 8 2 25q0 59 -35 86.5t-100 27.5q-41 0 -102.5 -17t-121.5 -64l-123 196q100 78 201 100.5t178 22.5q178 0 268.5 -91t90.5 -233 q0 -39 -6 -77l-43 -263q-31 -186 -145 -279t-300 -93z" />
<glyph unicode="&#x44e;" horiz-adv-x="1406" d="M1309 350q-14 -80 -45 -146.5t-83.5 -113.5t-129 -73.5t-181.5 -26.5q-102 0 -179 24.5t-128 67.5t-77.5 100.5t-26.5 122.5v29.5t4 30.5l8 41h-117l-80 -406h-256l199 1014h256l-78 -391h117l8 49q33 166 145.5 258t297.5 92q88 0 160.5 -24.5t124.5 -68.5t81 -104.5 t29 -132.5q0 -31 -6 -61zM1102 623q2 10 3 18t1 18q0 68 -46 106t-112 38t-115 -39t-65 -131l-45 -242q-2 -12 -3 -23.5t-1 -21.5q0 -66 40 -101.5t120 -35.5q82 0 122.5 43t57.5 129z" />
<glyph unicode="&#x44f;" horiz-adv-x="1015" d="M616 569l-28 -190h-94q-47 0 -80 -19.5t-58 -78.5l-104 -281h-260l131 336q14 35 46 74t83 49q-72 29 -102.5 79t-30.5 117q0 23 4 51.5t8 41.5q20 84 61 139t97.5 87t127 45t154.5 13q96 0 220 -23.5t233 -76.5l-166 -932h-256l152 784q-102 35 -185 35 q-76 0 -115.5 -29.5t-56.5 -93.5q-4 -10 -5 -22t-1 -17q0 -33 18.5 -59.5t84.5 -28.5h122z" />
<glyph unicode="&#x451;" horiz-adv-x="1011" d="M602 1028q102 0 173 -24.5t115 -64.5t63.5 -90t19.5 -104q0 -86 -40 -150.5t-112.5 -107.5t-173 -65.5t-223.5 -22.5h-43.5t-42.5 2q-6 -25 -6 -47q0 -76 48 -107.5t124 -31.5q47 0 105.5 21.5t123.5 74.5q8 -10 25.5 -38.5t38 -61.5t38 -60.5t25.5 -37.5 q-115 -82 -221.5 -102.5t-200.5 -20.5q-78 0 -145.5 18.5t-117.5 59.5t-79.5 103t-29.5 153q0 129 27.5 255t91 225t165.5 161.5t252 62.5zM590 797q-90 0 -140.5 -54.5t-76.5 -146.5q20 -2 39.5 -2h36.5q76 0 124 11t75.5 27.5t37.5 38t10 40.5q0 35 -20 60.5t-86 25.5z M907 1434q51 0 83 -32t32 -83q0 -33 -14.5 -62.5t-39 -52t-55 -36t-61.5 -13.5q-51 0 -83 32t-32 79q0 33 14.5 63.5t37 54t53 37t65.5 13.5zM502 1434q51 0 82.5 -32t31.5 -83q0 -33 -14 -62.5t-38.5 -52t-55.5 -36t-62 -13.5q-51 0 -82.5 32t-31.5 79q0 33 14 63.5t38 54 t54.5 37t63.5 13.5z" />
<glyph unicode="&#x452;" horiz-adv-x="1128" d="M999 207q-16 -92 -41.5 -165t-69.5 -123t-115 -77.5t-177 -27.5h-45.5t-48.5 4l43 221q94 2 135 41t59 137l76 408q6 27 6 47q0 59 -31.5 82.5t-76.5 23.5q-47 0 -106.5 -21.5t-145.5 -68.5l-135 -688h-260l221 1151h-99l33 176h101l26 139h262l-28 -139h379l-33 -176 h-379l-45 -229q61 35 111.5 55t91.5 31.5t72.5 14.5t58.5 3q135 0 196.5 -66.5t61.5 -183.5q0 -29 -4.5 -57.5t-10.5 -61.5z" />
<glyph unicode="&#x453;" horiz-adv-x="966" d="M584 1024q74 0 139 -17.5t114.5 -52t78 -85t28.5 -115.5q0 -70 -22.5 -120t-60.5 -86t-86 -59.5t-100 -40t-104.5 -27.5t-97.5 -22q-57 -12 -101 -34.5t-44 -69.5q0 -41 39 -60.5t106 -19.5q80 0 148.5 22.5t146.5 75.5q29 -49 57.5 -97t57.5 -97q-61 -41 -122 -66.5 t-117 -40t-110.5 -19.5t-105.5 -5q-78 0 -146.5 17.5t-118.5 51t-80 83.5t-30 118q0 106 45 171t114 101.5t148.5 55t148.5 35t114 38t45 64.5q0 31 -30 52.5t-91 21.5q-63 0 -132 -17.5t-153 -70.5l-102 192q59 37 111.5 61.5t103.5 38t102.5 18.5t106.5 5zM467 1163 l242 400l223 -76l-328 -379z" />
<glyph unicode="&#x454;" horiz-adv-x="925" d="M870 125q-102 -82 -202.5 -108.5t-210.5 -26.5q-78 0 -145.5 21.5t-117 63.5t-78 102.5t-28.5 139.5q0 18 2 39t6 43l45 260q35 186 158 276.5t301 90.5q47 0 97.5 -7t97.5 -24.5t89 -47t74 -75.5l-153 -186q-53 63 -113.5 82.5t-97.5 19.5q-80 0 -131 -40.5t-72 -133.5 h275l-41 -200h-275v-6q-2 -10 -3 -20.5t-1 -20.5q0 -74 48 -106t106 -32q41 0 102.5 18.5t120.5 74.5l147 -197v0z" />
<glyph unicode="&#x455;" horiz-adv-x="956" d="M567 1024q104 0 204.5 -24.5t182.5 -96.5q-35 -47 -66.5 -96t-66.5 -98q-68 53 -135.5 70.5t-132.5 17.5q-76 0 -111.5 -33t-35.5 -64q0 -35 35.5 -50t90 -26.5t117 -23.5t116.5 -38.5t90 -76t36 -133.5q0 -92 -40 -160.5t-105.5 -112.5t-150.5 -66.5t-175 -22.5 q-57 0 -110.5 5t-105.5 20.5t-103.5 45t-100.5 76.5q37 47 75 92t77 93q66 -63 136 -87t150 -24q88 0 133 37t45 78q0 33 -34.5 50t-87 30.5t-114 29t-113.5 44t-87 75.5t-35 125q0 92 39 157.5t99.5 106.5t135 60.5t148.5 19.5z" />
<glyph unicode="&#x456;" horiz-adv-x="587" d="M291 1286q12 61 60 104.5t110 43.5q53 0 89 -34t36 -87q0 -35 -14.5 -67t-39 -55.5t-55.5 -36.5t-63 -13q-53 0 -89 32.5t-36 86.5v13t2 13zM516 1014l-125 -637q-4 -25 -7 -43.5t-3 -34.5q0 -45 24.5 -60.5t81.5 -19.5l-49 -223h-51q-129 0 -202.5 55t-73.5 174 q0 43 8 84l137 705h260z" />
<glyph unicode="&#x457;" horiz-adv-x="587" d="M680 1419q51 0 83 -31.5t32 -82.5q0 -33 -14.5 -63t-39 -52.5t-55.5 -35.5t-61 -13q-51 0 -83 31.5t-32 78.5q0 33 14.5 64t37 54.5t53 36.5t65.5 13zM274 1419q51 0 83 -31.5t32 -82.5q0 -33 -14.5 -63t-39 -52.5t-55 -35.5t-61.5 -13q-51 0 -83 31.5t-32 78.5 q0 33 14.5 64t38 54.5t54 36.5t63.5 13zM518 1016l-125 -639q-4 -23 -7 -40.5t-1 -31.5q0 -47 24.5 -64.5t77.5 -21.5l-49 -223h-51q-129 0 -202.5 55t-73.5 174q0 43 8 84l135 707h264z" />
<glyph unicode="&#x458;" horiz-adv-x="557" d="M313 -92q-12 -66 -32.5 -128.5t-57.5 -110.5t-97 -76.5t-155 -28.5q-33 0 -70.5 3t-78.5 11l45 246q10 -2 20.5 -2h20.5q74 0 107.5 30.5t43.5 90.5l205 1071h260zM473 1434q53 0 88 -34t35 -83q0 -35 -15.5 -66.5t-41 -55.5t-58 -38t-65.5 -14q-53 0 -87 32.5t-34 84.5 q0 35 15.5 66.5t41 55t57 38t64.5 14.5z" />
<glyph unicode="&#x459;" horiz-adv-x="1611" d="M1063 1012l-62 -316h3q31 12 68.5 23.5t74.5 20t70.5 13.5t56.5 5q66 0 121 -19.5t95 -55.5t61.5 -86t21.5 -112v-16q-2 -41 -8 -88t-17 -92q-18 -70 -50 -126.5t-86 -96t-131 -61t-183 -21.5q-43 0 -97.5 5t-116 17t-127 34.5t-128.5 59.5l137 701h-197l-43 -230 q-27 -139 -62.5 -241.5t-92 -174t-139 -114.5t-201.5 -64q-10 51 -20.5 102.5t-18.5 102.5q68 20 113 47t76.5 69t53 106.5t41.5 162.5q23 113 44.5 223.5t44.5 223.5zM1087 213q53 0 89 10t58.5 26.5t34 37t17.5 43.5q8 29 11 57.5t3 38.5q0 49 -29.5 69.5t-76.5 20.5 t-110.5 -20.5t-127.5 -53.5l-43 -198q47 -16 95 -23.5t79 -7.5z" />
<glyph unicode="&#x45a;" horiz-adv-x="1558" d="M1012 1012q-4 -23 -12.5 -66t-17.5 -92t-17.5 -93t-12.5 -65q90 39 158 51.5t113 12.5q68 0 124 -20.5t96 -59.5t60.5 -92t18.5 -121q-2 -37 -8.5 -84t-16.5 -92q-31 -139 -137.5 -223t-310.5 -84q-43 0 -98.5 5t-117 17t-127 36t-128.5 60q4 23 13 72t19.5 103.5 t20.5 103.5t14 72h-283l-86 -453h-256l197 1014h256l-70 -348h283l70 346h256zM1036 215q51 0 87 10.5t58.5 26.5t34 36.5t17.5 43.5t10 47t4 39q4 53 -25.5 75.5t-78.5 22.5q-47 0 -110.5 -20.5t-125.5 -53.5l-43 -196q45 -16 93 -23.5t79 -7.5z" />
<glyph unicode="&#x45b;" horiz-adv-x="1110" d="M682 0l121 625q6 27 6 47q0 59 -33 82.5t-76 23.5q-47 0 -107.5 -19.5t-146.5 -72.5l-133 -686h-260l223 1151h-100l33 174h102l27 141h260l-29 -141h381l-35 -174h-378l-45 -225q61 35 110 54t89 29.5t72 13.5t58 3q139 0 201.5 -67.5t62.5 -184.5q0 -53 -12 -117 l-127 -657h-264z" />
<glyph unicode="&#x45c;" horiz-adv-x="1048" d="M512 1163l242 400l223 -76l-328 -379zM1071 1014l-135 -297q-37 -74 -81 -121t-110 -72q70 -25 92.5 -74t34.5 -124l52 -326h-271l-32 276q-10 92 -54.5 117t-115.5 25h-101l-74 -418h-256l187 1014h258l-72 -365h99q63 0 109 25.5t87 109.5l109 230h274z" />
<glyph unicode="&#x45e;" horiz-adv-x="937" d="M25 -408l233 431l-59 45l-99 948h262l23 -373l21 -350h8l227 448q20 43 34.5 75t24 59.5t12.5 53t3 56.5v33h264v-31q0 -92 -25.5 -159.5t-68.5 -145.5l-598 -1090h-262zM594 1155q-84 0 -138.5 29.5t-85 75t-39.5 100.5t-5 108h186q-4 -20 -1 -43.5t15.5 -45t33 -36 t52.5 -14.5q31 0 57.5 13.5t46 35t32 45t16.5 45.5h188q-10 -47 -35.5 -101t-68.5 -101t-105.5 -79t-148.5 -32z" />
<glyph unicode="&#x45f;" horiz-adv-x="1067" d="M575 -43l-94 -338h-184l49 285zM473 1012l-121 -623q-2 -12 -3 -23.5t-1 -21.5q0 -59 34 -83.5t75 -24.5q47 0 107.5 22.5t146.5 73.5l133 680h262l-197 -1012h-239l-6 88q-119 -70 -198 -86t-132 -16q-137 0 -199.5 73.5t-62.5 194.5q0 53 12 115l127 643h262z" />
<glyph unicode="&#x490;" horiz-adv-x="1130" d="M1245 1159h-688l-225 -1159h-279l273 1411h735l51 256h234z" />
<glyph unicode="&#x491;" horiz-adv-x="878" d="M432 797l-156 -797h-256l197 1014h547l41 213h225l-84 -430h-514z" />
<glyph unicode="&#x4d9;" horiz-adv-x="1011" d="M438 -8q-104 0 -174.5 24.5t-115 64.5t-63.5 91t-19 104q0 86 39.5 149.5t112.5 106.5t174.5 64.5t223.5 21.5h43.5t42.5 -2q2 12 4.5 24.5t2.5 23.5q0 76 -48.5 107.5t-123.5 31.5q-47 0 -105.5 -21.5t-124.5 -74.5q-8 10 -26.5 38.5t-38 60.5t-38 60.5t-24.5 38.5 q117 82 221.5 103.5t198.5 21.5q78 0 146.5 -20.5t118.5 -62.5t80 -106.5t30 -152.5q0 -129 -27.5 -254t-91 -223t-166 -158.5t-252.5 -60.5zM451 221q88 0 139 54.5t78 146.5q-23 2 -41.5 2h-34.5q-76 0 -124 -11.5t-75.5 -27.5t-38 -37.5t-10.5 -40.5q0 -35 20.5 -60.5 t86.5 -25.5z" />
<glyph unicode="&#x2000;" horiz-adv-x="943" />
<glyph unicode="&#x2001;" horiz-adv-x="1886" />
<glyph unicode="&#x2002;" horiz-adv-x="943" />
<glyph unicode="&#x2003;" horiz-adv-x="1886" />
<glyph unicode="&#x2004;" horiz-adv-x="628" />
<glyph unicode="&#x2005;" horiz-adv-x="471" />
<glyph unicode="&#x2006;" horiz-adv-x="314" />
<glyph unicode="&#x2007;" horiz-adv-x="314" />
<glyph unicode="&#x2008;" horiz-adv-x="235" />
<glyph unicode="&#x2009;" horiz-adv-x="377" />
<glyph unicode="&#x200a;" horiz-adv-x="104" />
<glyph unicode="&#x2010;" horiz-adv-x="839" d="M141 649h645l-45 -231h-647z" />
<glyph unicode="&#x2011;" horiz-adv-x="839" d="M141 649h645l-45 -231h-647z" />
<glyph unicode="&#x2012;" horiz-adv-x="839" d="M141 649h645l-45 -231h-647z" />
<glyph unicode="&#x2013;" horiz-adv-x="1036" d="M49 455l76 223h958l-77 -223h-957z" />
<glyph unicode="&#x2014;" horiz-adv-x="2117" d="M41 455l76 223h2033l-75 -223h-2034z" />
<glyph unicode="&#x2018;" horiz-adv-x="618" d="M684 1417q-59 -39 -102 -89t-60 -101q39 -8 63.5 -38t24.5 -77q0 -39 -14 -75t-39 -62.5t-59.5 -41.5t-75.5 -15q-72 0 -113 52t-41 132q0 61 24.5 123.5t71 121t111 108.5t141.5 85z" />
<glyph unicode="&#x2019;" horiz-adv-x="618" d="M254 1040q61 39 103 89.5t59 99.5q-39 8 -62.5 37.5t-23.5 76.5q0 80 51 138.5t137 58.5q72 0 112 -52t40 -130q0 -61 -24.5 -124t-71 -121t-111 -108.5t-141.5 -86.5z" />
<glyph unicode="&#x201a;" horiz-adv-x="600" d="M12 -199q61 39 104.5 90.5t59.5 100.5q-88 16 -88 114q0 80 52.5 137.5t135.5 57.5q72 0 111 -50t39 -128q0 -61 -24.5 -125t-69.5 -122t-108.5 -109.5t-143.5 -88.5z" />
<glyph unicode="&#x201c;" horiz-adv-x="993" d="M670 1417q-59 -39 -102.5 -89t-59.5 -101q41 -8 64.5 -38t23.5 -77q0 -39 -14.5 -75t-39 -62.5t-59 -41.5t-75.5 -15q-72 0 -113 52t-41 132q0 61 25.5 123.5t71.5 121t110.5 108.5t142.5 85zM1065 1417q-59 -39 -102 -89t-60 -101q41 -8 64.5 -38t23.5 -77 q0 -39 -14 -75t-39 -62.5t-59.5 -41.5t-75.5 -15q-72 0 -112 52t-40 132q0 61 25.5 123.5t72 121t110 108.5t140.5 85z" />
<glyph unicode="&#x201d;" horiz-adv-x="993" d="M637 1040q61 39 103 89.5t59 99.5q-39 8 -62.5 37.5t-23.5 76.5q0 80 52 138.5t134 58.5q72 0 112 -50t40 -128q0 -61 -25 -124.5t-70 -122t-108.5 -110t-142.5 -87.5zM240 1040q61 39 104 89.5t59 99.5q-39 8 -63.5 37.5t-24.5 76.5q0 80 53.5 138.5t135.5 58.5 q72 0 111.5 -50t39.5 -128q0 -61 -24.5 -124.5t-69.5 -123t-108.5 -110t-143.5 -86.5z" />
<glyph unicode="&#x201e;" horiz-adv-x="1075" d="M12 -199q61 39 104.5 90.5t59.5 100.5q-88 16 -88 114q0 80 52.5 137.5t135.5 57.5q72 0 111 -50t39 -128q0 -61 -24.5 -125t-69.5 -122t-108.5 -109.5t-143.5 -88.5zM467 -199q61 39 103 90.5t59 100.5q-41 8 -63.5 35.5t-22.5 74.5q0 82 50 140.5t136 58.5 q72 0 112 -50t40 -128q0 -61 -25 -125t-70 -122t-108.5 -109.5t-142.5 -88.5z" />
<glyph unicode="&#x2026;" horiz-adv-x="1847" d="M221 -14q-61 0 -97 37.5t-36 95.5q0 37 15.5 71.5t42 61.5t61.5 43t74 16q61 0 98 -36.5t37 -92.5q0 -39 -15.5 -73.5t-42 -62.5t-62.5 -44t-75 -16zM850 -14q-61 0 -97 37.5t-36 95.5q0 37 15.5 71.5t42 61.5t61 43t73.5 16q61 0 99.5 -36.5t38.5 -90.5 q0 -39 -15.5 -74.5t-43 -63.5t-63.5 -44t-75 -16zM1456 -14q-61 0 -98 37.5t-37 95.5q0 37 16.5 71.5t43 61.5t61.5 43t74 16q61 0 98 -36.5t37 -92.5q0 -39 -15.5 -73.5t-42 -62.5t-62.5 -44t-75 -16z" />
<glyph unicode="&#x202f;" horiz-adv-x="377" />
<glyph unicode="&#x2039;" horiz-adv-x="751" d="M279 45l-203 418l366 422h256l-372 -430l188 -410h-235z" />
<glyph unicode="&#x203a;" horiz-adv-x="751" d="M436 885l201 -422l-367 -418h-256l375 428l-190 412h237z" />
<glyph unicode="&#x205f;" horiz-adv-x="471" />
<glyph unicode="&#x20ac;" d="M117 748l35 161h96q39 246 187.5 381t402.5 135q102 0 202.5 -25.5t176.5 -74.5q-37 -55 -75 -110.5t-75 -112.5q-51 35 -114.5 50t-121.5 15q-123 0 -198.5 -67.5t-108.5 -190.5h437l-27 -161h-817zM909 668l-26 -164h-434q-4 -16 -6.5 -32.5t-2.5 -33.5 q0 -90 58.5 -143t167.5 -53q59 0 133.5 18.5t138.5 52.5l102 -233q-100 -51 -205.5 -71.5t-201.5 -20.5q-94 0 -180 27.5t-151.5 79.5t-104.5 129t-39 177q0 25 3 49.5t7 53.5h-98l34 164h805z" />
<glyph unicode="&#x2122;" horiz-adv-x="1863" d="M498 557h-179v686h-245v170h669v-170h-245v-686zM1526 1018l-84 -160l-105 -182h-131l-100 180l-90 162h-4v-461h-178v858h165l160 -301l111 -215h8l111 219l155 297h166v-858h-180v461h-4z" />
<glyph unicode="&#x25fc;" horiz-adv-x="1013" d="M0 1014h1014v-1014h-1014v1014z" />
</font>
</defs>
</svg>
